SplineFontDB: 3.2
FontName: SeriousShannsLight
FullName: Serious Shanns Light
FamilyName: Serious Shanns Light
Weight: Light
Copyright: https://github.com/kaBeech/serious-shanns/blob/main/LICENSE
Version: 6.0.0
ItalicAngle: 0
UnderlinePosition: 0
UnderlineWidth: 0
Ascent: 800
Descent: 200
InvalidEm: 0
sfntRevision: 0x00003333
LayerCount: 2
Layer: 0 0 "Back" 1
Layer: 1 0 "Fore" 0
XUID: [1021 329 -1817886000 12366394]
StyleMap: 0x0040
FSType: 4
OS2Version: 3
OS2_WeightWidthSlopeOnly: 0
OS2_UseTypoMetrics: 0
CreationTime: 1532631502
ModificationTime: 315532800
PfmFamily: 81
TTFWeight: 300
TTFWidth: 5
LineGap: 0
VLineGap: 0
Panose: 0 0 0 0 0 0 0 0 0 0
OS2TypoAscent: 613
OS2TypoAOffset: 0
OS2TypoDescent: -188
OS2TypoDOffset: 0
OS2TypoLinegap: 98
OS2WinAscent: 778
OS2WinAOffset: 0
OS2WinDescent: 308
OS2WinDOffset: 0
HheadAscent: 796
HheadAOffset: 0
HheadDescent: -317
HheadDOffset: 0
OS2SubXSize: 317
OS2SubYSize: 293
OS2SubXOff: 0
OS2SubYOff: 37
OS2SupXSize: 317
OS2SupYSize: 293
OS2SupXOff: 0
OS2SupYOff: 171
OS2StrikeYSize: 0
OS2StrikeYPos: 132
OS2CapHeight: 576
OS2XHeight: 485
OS2Vendor: 'NONE'
OS2CodePages: 00000001.00000000
OS2UnicodeRanges: 00000001.00000000.00000000.00000000
MarkAttachClasses: 1
DEI: 91125
LangName: 1033 "" "" "Normal" "FontForge 2.0 : Serious Shanns Light : 1-1-1980" "" "Version 0.2.0"
Encoding: UnicodeBmp
Compacted: 1
UnicodeInterp: none
NameList: AGL For New Fonts
DisplaySize: -48
AntiAlias: 1
FitToEm: 0
WinInfo: 48 16 4
BeginPrivate: 8
BlueValues 32 [-39 -8 492 523 690 718 765 769]
OtherBlues 11 [-297 -287]
BlueScale 9 0.0333333
BlueShift 2 17
StdHW 4 [67]
StdVW 4 [73]
StemSnapH 4 [67]
StemSnapV 7 [68 73]
EndPrivate
BeginChars: 65537 105

StartChar: .notdef
Encoding: 65536 -1 0
Width: 620
GlyphClass: 1
Flags: HMW
HStem: -258 34<139.5 480.5 139.5 514.5> 705 34<139.5 480.5 139.5 139.5>
VStem: 105.5 34<-224 -224 -224 705> 480.5 34<-224 705 705 705>
LayerCount: 2
Fore
SplineSet
105.5 739 m 1
 514.5 739 l 1
 514.5 -258 l 1
 105.5 -258 l 1
 105.5 739 l 1
139.5 -224 m 1
 480.5 -224 l 1
 480.5 705 l 1
 139.5 705 l 1
 139.5 -224 l 1
EndSplineSet
EndChar

StartChar: exclam
Encoding: 33 33 2
Width: 620
GlyphClass: 2
Flags: HMW
HStem: -15.3799 135.375
VStem: 238.5 143.001 272.5 78.001 280.5 72
LayerCount: 2
Fore
SplineSet
358.5 738 m 0x90
 358.5 732 357.166992188 694.669921875 354.5 626.002929688 c 0
 352.5 557.3359375 351.5 507.668945312 351.5 477.001953125 c 0
 351.166015625 461.66796875 350.999023438 447.583984375 350.999023438 434.75 c 0
 350.999023438 421.916015625 351.166015625 410.33203125 351.5 399.998046875 c 0
 352.166992188 379.331054688 352.5 361.6640625 352.5 346.997070312 c 0x90
 352.5 332.330078125 352.166992188 322.663085938 351.5 317.99609375 c 0
 350.611328125 311.331054688 350.166992188 302.1484375 350.166992188 290.44921875 c 0
 350.166992188 284.594726562 350.27734375 278.110351562 350.5 270.99609375 c 0xa0
 349.16796875 259.663085938 344.5 250.663085938 336.5 243.99609375 c 0
 329.16796875 237.329101562 320.16796875 233.99609375 309.5 233.99609375 c 2
 306.5 233.99609375 l 2
 295.833984375 234.663085938 287.166992188 238.330078125 280.5 244.997070312 c 0x90
 275.166992188 250.997070312 272.5 259.330078125 272.5 269.997070312 c 0xa0
 272.5 276.6640625 273.83203125 287.997070312 276.5 303.997070312 c 0
 278.5 313.330078125 279.83203125 323.330078125 280.5 333.997070312 c 0
 281.166992188 344.6640625 281.5 367.331054688 281.5 401.998046875 c 0
 281.5 415.998046875 280.83203125 437.331054688 279.5 465.998046875 c 0
 278.166992188 497.331054688 277.5 531.6640625 277.5 568.997070312 c 0
 278.166992188 596.330078125 279.166992188 634.997070312 280.5 684.997070312 c 0
 281.166992188 710.330078125 281.5 726.997070312 281.5 734.997070312 c 0
 282.166992188 750.330078125 286.166992188 761.663085938 293.5 768.99609375 c 0
 300.83203125 776.329101562 310.166015625 779.99609375 321.499023438 779.99609375 c 2
 324.499023438 779.99609375 l 2
 334.499023438 779.99609375 342.499023438 776.99609375 348.499023438 770.99609375 c 0
 355.166015625 764.329101562 358.5 753.333007812 358.5 738 c 0x90
362.499023438 7.9990234375 m 0
 349.83203125 -4.66796875 332.83203125 -12.3349609375 311.499023438 -15.001953125 c 0
 308.83203125 -15.251953125 306.2265625 -15.376953125 303.685546875 -15.376953125 c 0
 285.89453125 -15.376953125 271.166015625 -9.251953125 259.5 2.998046875 c 0
 245.5 16.998046875 238.5 33.998046875 238.5 53.998046875 c 0
 238.5 71.3310546875 245.83203125 86.3310546875 260.5 98.998046875 c 0
 277.166992188 112.998046875 295.833984375 119.998046875 316.5 119.998046875 c 0
 335.16796875 119.998046875 350.5 113.998046875 362.5 101.998046875 c 0
 375.16796875 89.3310546875 381.5 73.6640625 381.5 54.9970703125 c 0xc0
 381.5 36.330078125 375.166015625 20.666015625 362.499023438 7.9990234375 c 0
EndSplineSet
EndChar

StartChar: quotedbl
Encoding: 34 34 3
Width: 620
GlyphClass: 2
Flags: HMW
HStem: 444.999 328.002
VStem: 187.5 84 346.502 86.998
LayerCount: 2
Fore
SplineSet
392.499023438 773.000976562 m 0
 402.499023438 773.000976562 411.499023438 770.66796875 419.499023438 766.000976562 c 0
 423.499023438 764.000976562 426.833007812 760.66796875 429.499023438 756.000976562 c 0
 432.166992188 750.66796875 433.499023438 744.66796875 433.499023438 738.000976562 c 2
 433.499023438 696.000976562 l 2
 433.499023438 676.66796875 432.833007812 641.000976562 431.499023438 589.000976562 c 0
 430.166992188 537.000976562 428.166992188 499.333984375 425.499023438 476.000976562 c 0
 424.166992188 466.000976562 419.833984375 458.33203125 412.500976562 452.999023438 c 0
 405.833984375 447.666015625 398.500976562 444.999023438 390.500976562 444.999023438 c 2
 387.500976562 444.999023438 l 2
 376.833984375 445.666015625 366.833984375 449.333007812 357.500976562 456 c 0
 350.833984375 460.666992188 347.500976562 467.333984375 347.500976562 476.000976562 c 0
 348.166992188 477.333984375 348.500976562 479.000976562 348.500976562 481.000976562 c 0
 349.833984375 506.333984375 350.500976562 537.3359375 350.500976562 574.002929688 c 2
 350.500976562 612.000976562 l 2
 349.166992188 665.333984375 347.834960938 709.333984375 346.501953125 744.000976562 c 2
 346.501953125 746.002929688 l 2
 346.501953125 751.3359375 347.833984375 756.000976562 350.500976562 760.000976562 c 0
 353.166992188 764.000976562 356.501953125 766.66796875 360.501953125 768.000976562 c 0
 369.834960938 772.000976562 378.501953125 774.002929688 386.501953125 774.002929688 c 0
 389.168945312 773.3359375 391.166992188 773.000976562 392.499023438 773.000976562 c 0
265.499023438 476.000976562 m 0
 264.166015625 465.333984375 259.833984375 457.666015625 252.500976562 452.999023438 c 0
 244.500976562 447.666015625 236.833984375 444.999023438 229.500976562 444.999023438 c 2
 227.500976562 444.999023438 l 2
 216.833984375 445.666015625 206.833984375 449.333007812 197.500976562 456 c 0
 190.833984375 460.666992188 187.500976562 467.333984375 187.500976562 476.000976562 c 2
 187.500976562 481.000976562 l 2
 189.500976562 507.66796875 190.500976562 540.000976562 190.500976562 578.000976562 c 0
 189.833984375 588.66796875 189.500976562 600.000976562 189.500976562 612.000976562 c 0
 188.166992188 665.333984375 187.166992188 709.333984375 186.500976562 744.000976562 c 2
 186.500976562 747.000976562 l 2
 186.500976562 751.66796875 187.500976562 756.000976562 189.500976562 760.000976562 c 0
 192.166992188 764.000976562 195.500976562 766.66796875 199.500976562 768.000976562 c 0
 208.643554688 771.4296875 218.030273438 773.14453125 227.663085938 773.14453125 c 0
 229.268554688 773.14453125 230.880859375 773.096679688 232.499023438 773.000976562 c 0
 242.499023438 773.000976562 251.499023438 770.66796875 259.499023438 766.000976562 c 0
 262.833007812 764.000976562 265.833007812 760.66796875 268.499023438 756.000976562 c 0
 271.166992188 750.66796875 272.499023438 744.334960938 272.499023438 737.001953125 c 0
 273.166992188 729.001953125 273.499023438 715.668945312 273.499023438 697.001953125 c 0
 273.499023438 678.334960938 272.833007812 642.66796875 271.499023438 590.000976562 c 0
 270.166992188 537.333984375 268.166015625 499.333984375 265.499023438 476.000976562 c 0
EndSplineSet
EndChar

StartChar: numbersign
Encoding: 35 35 4
Width: 620
GlyphClass: 2
Flags: HMW
HStem: 200 63.999 454.998 65.002 695.002 20G
LayerCount: 2
Fore
SplineSet
269.502929688 454.998046875 m 1
 230.498046875 263.999023438 l 1
 265.831054688 264.666015625 309.168945312 264.998046875 360.501953125 264.998046875 c 2
 368.501953125 264.998046875 l 1
 380.501953125 324.998046875 392.168945312 388.331054688 403.501953125 454.998046875 c 1
 269.502929688 454.998046875 l 1
226.497070312 200 m 1
 218.497070312 200 l 1
 203.1640625 122.666992188 192.497070312 70.6669921875 186.497070312 44 c 0
 182.497070312 32 174.1640625 22.3330078125 161.497070312 15 c 0
 153.497070312 10.3330078125 145.830078125 7.9990234375 138.497070312 7.9990234375 c 0
 135.1640625 7.33203125 131.831054688 7.6650390625 128.498046875 8.998046875 c 0
 119.165039062 10.998046875 112.165039062 17.666015625 107.498046875 28.9990234375 c 0
 104.831054688 35.666015625 103.497070312 42.3330078125 103.497070312 49 c 0
 103.497070312 55.6669921875 104.498046875 62.6669921875 106.498046875 70 c 0
 111.831054688 86.6669921875 122.1640625 129.666992188 137.497070312 199 c 1
 95.4970703125 199 l 2
 80.1640625 199 69.1640625 201.666992188 62.4970703125 207 c 0
 56.4970703125 211.666992188 53.4970703125 218 53.4970703125 226 c 2
 53.4970703125 228 l 2
 54.1640625 236.666992188 57.1640625 243.666992188 62.4970703125 249 c 0
 68.4970703125 255.666992188 78.830078125 259.333984375 93.4970703125 260.000976562 c 0
 98.1640625 260.66796875 106.1640625 261.000976562 117.497070312 261.000976562 c 0
 128.830078125 261.000976562 139.830078125 261.333984375 150.497070312 262.000976562 c 1
 188.497070312 454.000976562 l 1
 176.497070312 454.000976562 l 1
 134.497070312 453.000976562 l 1
 131.497070312 453.000976562 l 2
 119.497070312 452.333984375 110.1640625 455.000976562 103.497070312 461.000976562 c 0
 96.830078125 466.333984375 93.4970703125 473.333984375 93.4970703125 482.000976562 c 2
 93.4970703125 485.000976562 l 2
 93.4970703125 493.000976562 96.4970703125 500.000976562 102.497070312 506.000976562 c 0
 109.1640625 512.66796875 119.830078125 516.334960938 134.497070312 517.001953125 c 0
 147.1640625 517.668945312 166.498046875 518.001953125 192.498046875 518.001953125 c 2
 200.498046875 518.001953125 l 1
 230.498046875 680.001953125 l 2
 235.165039062 694.001953125 241.83203125 703.668945312 250.499023438 709.001953125 c 0
 257.166015625 713.001953125 263.833007812 715.001953125 270.5 715.001953125 c 0
 273.166992188 715.001953125 276.166992188 714.668945312 279.5 714.001953125 c 0
 291.5 711.334960938 300.5 705.66796875 306.5 697.000976562 c 0
 309.833007812 691.66796875 311.5 685.000976562 311.5 677.000976562 c 0
 312.166992188 672.333984375 311.833984375 667.666992188 310.500976562 663 c 2
 281.500976562 520 l 1
 414.500976562 520 l 1
 442.500976562 673 l 2
 447.16796875 687 453.834960938 696.666992188 462.501953125 702 c 0
 468.501953125 706 474.834960938 708 481.501953125 708 c 0
 484.834960938 707.333007812 488.501953125 706.666015625 492.501953125 705.999023438 c 0
 504.501953125 703.33203125 513.501953125 697.999023438 519.501953125 689.999023438 c 0
 522.834960938 685.33203125 524.501953125 679.33203125 524.501953125 671.999023438 c 0
 524.501953125 667.33203125 523.834960938 661.999023438 522.501953125 655.999023438 c 0
 515.168945312 627.999023438 506.168945312 582.999023438 495.501953125 520.999023438 c 1
 507.501953125 520.999023438 l 1
 518.501953125 520.999023438 l 2
 532.501953125 520.999023438 543.834960938 517.33203125 552.501953125 509.999023438 c 0
 561.168945312 502.666015625 565.8359375 495.333007812 566.502929688 488 c 0
 565.8359375 479.333007812 562.502929688 471.666015625 556.502929688 464.999023438 c 0
 550.502929688 458.999023438 540.8359375 455.665039062 527.502929688 454.998046875 c 2
 482.502929688 454.998046875 l 1
 450.502929688 263.999023438 l 1
 503.501953125 263.999023438 l 2
 516.168945312 263.999023438 524.502929688 261.666015625 528.502929688 256.999023438 c 0
 532.502929688 252.33203125 534.8359375 245.33203125 535.502929688 235.999023438 c 0
 535.502929688 225.33203125 533.502929688 217.33203125 529.502929688 211.999023438 c 0
 524.8359375 205.33203125 516.168945312 201.999023438 503.501953125 201.999023438 c 2
 439.501953125 201.999023438 l 1
 425.501953125 121.33203125 415.501953125 67.33203125 409.501953125 39.9990234375 c 0
 404.834960938 28.666015625 396.834960938 19.9990234375 385.501953125 13.9990234375 c 0
 378.168945312 9.9990234375 370.8359375 7.9990234375 363.502929688 7.9990234375 c 0
 360.169921875 7.33203125 356.502929688 7.6650390625 352.502929688 8.998046875 c 0
 342.502929688 11.6650390625 335.169921875 17.998046875 330.502929688 27.998046875 c 0
 327.8359375 33.998046875 326.502929688 39.998046875 326.502929688 45.998046875 c 0
 326.502929688 51.998046875 327.502929688 58.6650390625 329.502929688 65.998046875 c 0
 336.169921875 92.6650390625 345.502929688 137.665039062 357.502929688 200.998046875 c 1
 345.502929688 200.998046875 l 1
 226.497070312 200 l 1
EndSplineSet
EndChar

StartChar: dollar
Encoding: 36 36 5
Width: 620
GlyphClass: 2
Flags: HMW
HStem: -18.9971 64.9971 368 63.0029 653 59<344.498 353.5 344.498 353.5>
VStem: 102.501 72.999 282.5 58 282.5 63.002 461.499 73.999
LayerCount: 2
Fore
SplineSet
457 245.50390625 m 0xfa
 454 257.170898438 448.5 269.337890625 440.5 282.004882812 c 0
 432.5 294.671875 420.833007812 306.338867188 405.5 317.005859375 c 0
 390.166992188 327.005859375 372.166992188 336.005859375 351.5 344.005859375 c 2
 340.5 349.005859375 l 1
 340.5 335.005859375 l 1
 339.499023438 187.005859375 l 2
 338.83203125 132.338867188 338.165039062 89.671875 337.498046875 59.0048828125 c 1
 350.499023438 65 l 2
 381.166015625 79 407.166015625 98.337890625 428.499023438 123.004882812 c 0
 450.499023438 147.671875 461.499023438 176.004882812 461.499023438 208.004882812 c 0
 461.499023438 221.337890625 460 233.836914062 457 245.50390625 c 0xfa
203.498046875 469.002929688 m 0
 220.165039062 451.669921875 242.83203125 439.002929688 271.499023438 431.002929688 c 2
 282.5 429.002929688 l 1xf6
 283.166992188 483.002929688 283.499023438 551.002929688 283.499023438 633.002929688 c 2
 283.499023438 646.002929688 l 1
 271.499023438 643.002929688 l 2
 244.166015625 633.669921875 221.833007812 619.336914062 204.5 600.00390625 c 0
 185.166992188 581.336914062 175.5 558.336914062 175.5 531.00390625 c 0
 175.5 507.00390625 184.831054688 486.3359375 203.498046875 469.002929688 c 0
206.5 -11 m 0
 186.5 -5.6669921875 169.501953125 2 155.501953125 12 c 0
 126.834960938 30.6669921875 105.834960938 52.333984375 92.501953125 77.0009765625 c 0
 87.1689453125 89.0009765625 84.501953125 99.333984375 84.501953125 108.000976562 c 0
 84.501953125 119.333984375 89.8349609375 127.666992188 100.501953125 133 c 0
 107.834960938 136.333007812 113.16796875 138.333007812 116.500976562 139 c 0
 119.833984375 139.666992188 122.500976562 140 124.500976562 140 c 2
 130.500976562 140 l 2
 134.500976562 140 138.66796875 138.166992188 143.000976562 134.5 c 0
 147.333984375 130.833007812 152.166992188 125 157.5 117 c 0
 171.5 95 187.833007812 77.6669921875 206.5 65 c 0
 223.166992188 52.3330078125 244.166015625 46 269.499023438 46 c 2
 271.499023438 46 l 1
 280.5 46 l 1
 281.833007812 164 282.5 266.666992188 282.5 354 c 2
 282.5 363 l 1
 273.833007812 363.666992188 266 364.5 259 365.5 c 2
 241.5 368 l 2
 220.833007812 370.666992188 201.5 376.666992188 183.5 386 c 0
 164.833007812 395.333007812 149.833007812 406.666015625 138.5 419.999023438 c 0
 127.166992188 433.33203125 118.333984375 447.499023438 112.000976562 462.499023438 c 0
 105.66796875 477.499023438 102.500976562 491.999023438 102.500976562 505.999023438 c 0
 102.500976562 528.666015625 106.16796875 550.499023438 113.500976562 571.499023438 c 0
 120.833984375 592.499023438 131.500976562 611.999023438 145.500976562 629.999023438 c 0
 159.500976562 647.999023438 178.16796875 663.666015625 201.500976562 676.999023438 c 0
 223.500976562 690.33203125 248.499023438 699.665039062 276.499023438 704.998046875 c 2
 282.5 705.998046875 l 1xfa
 283.833007812 727.331054688 284.500976562 749.331054688 284.500976562 771.998046875 c 0
 285.16796875 786.665039062 287.66796875 797.83203125 292.000976562 805.499023438 c 0
 296.333984375 813.166015625 303.500976562 816.999023438 313.500976562 816.999023438 c 2
 315.500976562 816.999023438 l 2
 326.16796875 817.666015625 333.834960938 813.999023438 338.501953125 805.999023438 c 0
 343.168945312 798.666015625 345.501953125 788.333007812 345.501953125 775 c 2
 345.501953125 713 l 1xf6
 353.5 712 l 2
 366.833007812 711.333007812 385.16796875 708 408.500976562 702 c 0
 433.833984375 696 452.833984375 690.666992188 465.500976562 686 c 0
 475.500976562 682.666992188 482.833007812 677 487.5 669 c 0
 491.5 662.333007812 493.500976562 655.666015625 493.500976562 648.999023438 c 0
 493.500976562 646.999023438 493.16796875 644.666015625 492.500976562 641.999023438 c 0
 491.833984375 635.999023438 490.166992188 631.666015625 487.5 628.999023438 c 0
 484.166992188 626.33203125 480.666015625 624.83203125 476.999023438 624.499023438 c 0
 473.33203125 624.166015625 469.833007812 623.999023438 466.5 623.999023438 c 0
 453.166992188 623.999023438 438.5 627.666015625 422.5 634.999023438 c 0
 413.833007812 638.999023438 404 642.83203125 393 646.499023438 c 0
 382 650.166015625 368.833007812 652.333007812 353.5 653 c 2
 344.498046875 653 l 1
 340.5 423 l 1xfa
 348.5 421 l 2
 375.833007812 417.666992188 400.166015625 411 421.499023438 401 c 0
 444.83203125 391 463.33203125 379.666992188 476.999023438 367 c 0
 490.666015625 354.333007812 502.166015625 339.833007812 511.499023438 323.5 c 0
 520.83203125 307.166992188 527.165039062 291 530.498046875 275 c 0
 533.831054688 259 535.498046875 242.333007812 535.498046875 225 c 0
 535.498046875 195.666992188 530.331054688 167.833984375 519.998046875 141.500976562 c 0
 509.665039062 115.16796875 495.665039062 92.3349609375 477.998046875 73.001953125 c 0
 460.331054688 53.6689453125 439.498046875 37.001953125 415.498046875 23.001953125 c 0
 394.165039062 9.001953125 370.498046875 -1.6650390625 344.498046875 -8.998046875 c 2
 337.498046875 -11 l 1
 337.498046875 -17.998046875 l 2
 338.165039062 -57.3310546875 338.83203125 -83.998046875 339.499023438 -97.998046875 c 0
 338.166015625 -109.998046875 333.999023438 -119.165039062 326.999023438 -125.498046875 c 0
 319.999023438 -131.831054688 311.499023438 -134.998046875 301.499023438 -134.998046875 c 2
 300.499023438 -134.998046875 l 1
 299.499023438 -134.998046875 l 2
 291.499023438 -134.998046875 285.499023438 -131.998046875 281.499023438 -125.998046875 c 0
 278.166015625 -120.665039062 276.499023438 -112.998046875 276.499023438 -102.998046875 c 2
 276.499023438 -93.998046875 l 2
 277.83203125 -79.3310546875 278.499023438 -57.6640625 278.499023438 -28.9970703125 c 2
 278.499023438 -18.9970703125 l 1
 269.499023438 -18.9970703125 l 1
 265.499023438 -18.9970703125 l 2
 244.83203125 -18.9970703125 225.166992188 -16.3330078125 206.5 -11 c 0
EndSplineSet
EndChar

StartChar: percent
Encoding: 37 37 6
Width: 620
GlyphClass: 2
Flags: HMW
HStem: -18.001 57 180.998 54.0323 442 54.999 642.043 52.9575
VStem: 70.4986 53.001 87.0016 68.499 246.5 45.998 327.501 49.002 437.499 70.001 497.573 51.9275
LayerCount: 2
Fore
SplineSet
387.500976562 58.9990234375 m 0xf340
 396.168945312 46.9990234375 411.834960938 40.33203125 434.501953125 38.9990234375 c 2
 437.498046875 38.9990234375 l 2xf380
 455.498046875 38.9990234375 469.668945312 45.166015625 480.001953125 57.4990234375 c 0
 490.334960938 69.83203125 496.168945312 85.6650390625 497.500976562 104.998046875 c 2
 497.500976562 105.998046875 l 1
 497.500976562 108.998046875 l 2
 497.548828125 110.474609375 497.572265625 111.9296875 497.572265625 113.362304688 c 0
 497.572265625 131.977539062 493.548828125 146.85546875 485.500976562 157.998046875 c 0
 474.168945312 173.331054688 456.834960938 180.998046875 433.501953125 180.998046875 c 0
 415.501953125 180.998046875 401.501953125 173.998046875 391.501953125 159.998046875 c 0
 382.168945312 145.998046875 377.168945312 128.331054688 376.501953125 106.998046875 c 2
 376.501953125 102.998046875 l 2
 376.450195312 101.561523438 376.424804688 100.1484375 376.424804688 98.7587890625 c 0
 376.424804688 82.0966796875 380.116210938 68.8447265625 387.500976562 58.9990234375 c 0xf340
372.499023438 -0.5009765625 m 0
 357.166015625 11.166015625 345.833007812 25.9990234375 338.499023438 43.9990234375 c 0
 331.166015625 61.9990234375 327.500976562 81.33203125 327.500976562 101.999023438 c 2
 327.500976562 103.999023438 l 2
 327.500976562 142.666015625 337.168945312 174.166015625 356.500976562 198.499023438 c 0
 375.833984375 222.83203125 403.833984375 234.999023438 440.500976562 234.999023438 c 0
 441.500976562 235.01953125 442.497070312 235.030273438 443.485351562 235.030273438 c 0
 474.141601562 235.030273438 499.479492188 225.01953125 519.500976562 204.999023438 c 0
 529.500976562 194.33203125 537.166992188 179.999023438 542.500976562 161.999023438 c 0
 547.166992188 147.999023438 549.500976562 132.33203125 549.500976562 114.999023438 c 0xf340
 549.500976562 110.999023438 549.166992188 104.999023438 548.500976562 96.9990234375 c 0
 546.500976562 58.33203125 535.833007812 29.33203125 516.500976562 9.9990234375 c 0
 497.166992188 -8.66796875 467.833984375 -18.0009765625 428.500976562 -18.0009765625 c 2
 425.500976562 -18.0009765625 l 2
 405.500976562 -18.0009765625 387.833007812 -12.16796875 372.499023438 -0.5009765625 c 0
135.501953125 517.999023438 m 0
 144.834960938 505.999023438 162.168945312 498.999023438 187.500976562 496.999023438 c 2
 188.500976562 496.999023438 l 2
 206.500976562 496.999023438 220.168945312 503.33203125 229.500976562 515.999023438 c 0
 238.833984375 528.666015625 244.166992188 544.999023438 245.500976562 564.999023438 c 0
 246.166992188 566.33203125 246.500976562 567.999023438 246.500976562 569.999023438 c 0
 245.833007812 593.33203125 240.500976562 610.999023438 230.500976562 622.999023438 c 0
 219.833007812 635.666015625 204.833007812 641.999023438 185.500976562 641.999023438 c 0
 184.659179688 642.028320312 183.826171875 642.04296875 183.001953125 642.04296875 c 0
 164.870117188 642.04296875 150.704101562 635.028320312 140.500976562 620.999023438 c 0
 131.166992188 607.666015625 125.500976562 589.999023438 123.500976562 567.999023438 c 2
 123.500976562 562.999023438 l 2xfb
 123.452148438 561.618164062 123.428710938 560.259765625 123.428710938 558.922851562 c 0
 123.428710938 541.545898438 127.454101562 527.904296875 135.501953125 517.999023438 c 0
193.499023438 195 m 2
 338.499023438 472 l 2
 387.166015625 565.333007812 420.166015625 632.333007812 437.499023438 673 c 0
 445.499023438 685 456.833007812 691 471.499023438 691 c 0
 478.166015625 691 484.833007812 689.333007812 491.500976562 686 c 0
 502.166992188 680.666992188 507.500976562 673.666992188 507.500976562 665 c 0
 507.500976562 657.666992188 504.168945312 648.666992188 497.501953125 638 c 0
 472.168945312 597.333007812 415.833984375 493.666015625 328.500976562 326.999023438 c 0
 242.500976562 160.33203125 184.833984375 47.33203125 155.500976562 -12.0009765625 c 0
 144.168945312 -32.0009765625 132.500976562 -42.0009765625 120.500976562 -42.0009765625 c 0
 116.500976562 -42.0009765625 111.66796875 -40.66796875 106.000976562 -38.0009765625 c 0
 100.333984375 -35.333984375 95.833984375 -31.833984375 92.5009765625 -27.5009765625 c 0
 89.16796875 -23.16796875 87.3349609375 -17.5009765625 87.001953125 -10.5009765625 c 0xf780
 86.982421875 -10.08984375 86.97265625 -9.6728515625 86.97265625 -9.2509765625 c 0
 86.97265625 -2.49609375 89.482421875 5.5869140625 94.501953125 14.9990234375 c 0
 108.501953125 43.666015625 141.499023438 103.666992188 193.499023438 195 c 2
119.998046875 459.5 m 0
 103.665039062 471.166992188 91.33203125 486 82.9990234375 504 c 0
 74.666015625 522 70.4990234375 541.333007812 70.4990234375 562 c 2
 70.4990234375 564 l 2xfb
 70.4990234375 602.666992188 81.166015625 634.166992188 102.499023438 658.5 c 0
 123.833007812 682.833007812 153.833007812 695 192.499023438 695 c 0
 193.416015625 695.020507812 194.329101562 695.03125 195.235351562 695.03125 c 0
 223.348632812 695.03125 246.770507812 685.020507812 265.498046875 665 c 0
 274.831054688 654.333007812 281.831054688 640 286.498046875 622 c 0
 290.498046875 608 292.498046875 591.666992188 292.498046875 573 c 0
 292.498046875 526.333007812 282.498046875 492.333007812 262.498046875 471 c 0
 244.498046875 451.666992188 216.498046875 442 178.498046875 442 c 2
 176.498046875 442 l 2
 155.165039062 442 136.331054688 447.833007812 119.998046875 459.5 c 0
EndSplineSet
EndChar

StartChar: ampersand
Encoding: 38 38 7
Width: 620
GlyphClass: 2
Flags: HMW
HStem: -32 74.001 655.001 59.1001
VStem: 61.4986 80.0029 147.499 76.002 382.501 63.1093
LayerCount: 2
Fore
SplineSet
544.49609375 11 m 2
 544.49609375 3 l 2
 542.49609375 -13 537.828125 -23 530.49609375 -27 c 0
 526.49609375 -29.6669921875 521.828125 -31 516.49609375 -31 c 0
 511.828125 -31 506.162109375 -29.3330078125 499.495117188 -26 c 0
 486.162109375 -19.3330078125 474.495117188 -7.3330078125 464.495117188 10 c 0
 462.495117188 13.3330078125 458.495117188 23 452.495117188 39 c 0
 446.495117188 55 441.495117188 67 437.495117188 75 c 2
 430.495117188 90 l 1
 409.828125 61.3330078125 397.828125 45 394.495117188 41 c 0
 391.162109375 37.6669921875 385.828125 32 378.49609375 24 c 0
 371.163085938 16 364.830078125 10 359.49609375 6 c 0
 354.1640625 2.6669921875 347.1640625 -2 338.49609375 -8 c 0
 330.49609375 -14 322.49609375 -18.3330078125 314.49609375 -21 c 0
 306.49609375 -23.6669921875 297.1640625 -26 286.49609375 -28 c 0
 275.1640625 -30.6669921875 263.831054688 -32 252.498046875 -32 c 0
 217.1640625 -32 184.83203125 -23 155.499023438 -5 c 0
 126.166015625 13 103.166015625 37 86.498046875 67 c 0
 69.83203125 97.6669921875 61.498046875 130.333984375 61.498046875 165.000976562 c 0
 61.498046875 219.000976562 71.498046875 265.333984375 91.498046875 304.000976562 c 0
 115.499023438 352.000976562 155.499023438 388.333984375 211.499023438 413.000976562 c 2
 221.499023438 418.000976562 l 1
 211.499023438 434.000976562 202.166015625 449.000976562 193.499023438 463.000976562 c 0
 184.83203125 476.333984375 178.83203125 486.000976562 175.499023438 492.000976562 c 0
 172.166015625 498.000976562 168.166015625 505.333984375 163.499023438 514.000976562 c 0
 158.83203125 522.66796875 155.83203125 530.000976562 154.499023438 536.000976562 c 0
 149.83203125 554.000976562 147.499023438 571.66796875 147.499023438 589.000976562 c 0
 147.499023438 600.333984375 149.166015625 611.333984375 152.499023438 622.000976562 c 0
 155.166015625 632.66796875 160.166015625 643.66796875 167.499023438 655.000976562 c 0
 174.83203125 666.333984375 183.83203125 676.333984375 194.499023438 685.000976562 c 0
 205.166015625 693.66796875 219.499023438 700.66796875 237.499023438 706.000976562 c 0
 254.83203125 711.333984375 274.83203125 714.000976562 297.499023438 714.000976562 c 0
 299.366210938 714.067382812 301.2265625 714.100585938 303.080078125 714.100585938 c 0
 319.759765625 714.100585938 335.8984375 711.400390625 351.499023438 706.000976562 c 0
 369.499023438 700.000976562 385.499023438 691.66796875 399.499023438 681.000976562 c 0
 413.499023438 669.66796875 424.83203125 655.334960938 433.499023438 638.001953125 c 0
 441.499023438 620.668945312 445.499023438 601.3359375 445.499023438 580.002929688 c 0
 445.573242188 577.631835938 445.609375 575.28515625 445.609375 572.962890625 c 0
 445.609375 554.396484375 443.240234375 537.41015625 438.5 522.00390625 c 0
 433.166992188 504.00390625 426.5 489.336914062 418.5 478.00390625 c 0
 410.5 466.670898438 400.5 455.670898438 388.5 445.00390625 c 0
 376.5 434.336914062 365.5 425.669921875 355.5 419.002929688 c 0
 344.83203125 412.3359375 332.5 405.668945312 318.5 399.001953125 c 2
 309.5 395.001953125 l 1
 314.5 386.001953125 l 2
 327.166992188 364.668945312 347.833984375 333.668945312 376.5 293.001953125 c 0
 405.16796875 252.334960938 423.5 225.66796875 431.5 213.000976562 c 2
 440.5 198.000976562 l 1
 450.5 217.333984375 458.16796875 233.333984375 463.5 246.000976562 c 0
 469.5 258.66796875 474.16796875 268.66796875 477.5 276.000976562 c 0
 480.833984375 283.333984375 483.5 288.666992188 485.5 292 c 0
 496.16796875 308 505.834960938 317.666992188 514.501953125 321 c 0
 517.16796875 321.666992188 520.16796875 322 523.501953125 322 c 0
 529.501953125 322 535.834960938 320.333007812 542.501953125 317 c 0
 550.501953125 313.666992188 555.501953125 306.333984375 557.501953125 295.000976562 c 0
 558.16796875 291.66796875 558.501953125 288.66796875 558.501953125 286.000976562 c 0
 558.501953125 276.000976562 555.501953125 264.66796875 549.501953125 252.000976562 c 0
 546.834960938 246.66796875 537.16796875 233.66796875 520.5 213.000976562 c 0
 503.833984375 192.333984375 489.833984375 173.333984375 478.5 156.000976562 c 2
 475.5 151.000976562 l 1
 486.16796875 133.000976562 505.5 99.333984375 533.5 50.0009765625 c 0
 540.833984375 38.0009765625 544.49609375 25 544.49609375 11 c 2
223.5 572.000976562 m 0
 223.5 554.000976562 228.16796875 534.333984375 237.5 513.000976562 c 0
 247.5 492.333984375 259.16796875 474.000976562 272.5 458.000976562 c 2
 276.5 453.000976562 l 1
 282.5 455.000976562 l 2
 297.833984375 459.66796875 310.833984375 464.66796875 321.5 470.000976562 c 0
 332.16796875 475.333984375 342.5 482.333984375 352.5 491.000976562 c 0
 362.5 499.66796875 369.833984375 510.66796875 374.5 524.000976562 c 0
 379.833984375 536.66796875 382.5 551.66796875 382.5 569.000976562 c 0
 382.5 597.000976562 373.833984375 618.333984375 356.5 633.000976562 c 0
 339.16796875 647.66796875 318.834960938 655.000976562 295.501953125 655.000976562 c 0
 268.834960938 655.000976562 249.501953125 646.000976562 237.501953125 628.000976562 c 0
 228.16796875 614.000976562 223.5 595.333984375 223.5 572.000976562 c 0
141.501953125 174.000976562 m 0
 141.501953125 136.66796875 151.834960938 105.66796875 172.501953125 81.0009765625 c 0
 193.16796875 55.0009765625 220.16796875 42.0009765625 253.501953125 42.0009765625 c 0
 270.834960938 42.66796875 288.834960938 46.0009765625 307.501953125 52.0009765625 c 0
 314.16796875 54.0009765625 321.16796875 57.66796875 328.501953125 63.0009765625 c 0
 336.501953125 67.66796875 342.501953125 71.66796875 346.501953125 75.0009765625 c 0
 350.501953125 78.333984375 355.501953125 83.333984375 361.501953125 90.0009765625 c 0
 367.501953125 96.66796875 371.501953125 101.334960938 373.501953125 104.001953125 c 0
 376.16796875 106.001953125 379.8359375 110.668945312 384.502929688 118.001953125 c 0
 389.169921875 125.334960938 393.169921875 131.001953125 396.502929688 135.001953125 c 1
 382.502929688 165.001953125 371.502929688 187.334960938 363.502929688 202.001953125 c 0
 354.8359375 218.001953125 338.502929688 243.334960938 314.502929688 278.001953125 c 0
 290.502929688 312.668945312 271.8359375 340.668945312 258.502929688 362.001953125 c 1
 250.502929688 359.001953125 l 2
 229.8359375 349.001953125 212.16796875 337.334960938 197.501953125 324.001953125 c 0
 182.16796875 310.668945312 170.501953125 295.668945312 162.501953125 279.001953125 c 0
 155.16796875 262.334960938 149.8359375 245.66796875 146.502929688 229.000976562 c 0
 143.169921875 212.333984375 141.501953125 194.000976562 141.501953125 174.000976562 c 0
EndSplineSet
EndChar

StartChar: quotesingle
Encoding: 39 39 8
Width: 620
GlyphClass: 2
Flags: HMW
HStem: 456 307.126
VStem: 267.5 84
LayerCount: 2
Fore
SplineSet
345.499023438 487 m 0
 344.166015625 476.333007812 339.833984375 468.333007812 332.500976562 463 c 0
 325.166992188 458.333007812 317.500976562 456 309.500976562 456 c 2
 307.500976562 456 l 2
 296.166992188 456.666992188 286.166992188 460.333984375 277.500976562 467.000976562 c 0
 270.833984375 472.333984375 267.500976562 479.333984375 267.500976562 488.000976562 c 2
 267.500976562 491.000976562 l 1
 267.500976562 492.000976562 l 2
 269.346679688 519.694335938 270.270507812 551.71875 270.270507812 588.075195312 c 0
 270.270507812 630.48828125 269.013671875 678.796875 266.500976562 733.000976562 c 2
 266.500976562 735.000976562 l 2
 266.500976562 740.333984375 267.500976562 745.000976562 269.500976562 749.000976562 c 0
 272.166992188 753.000976562 275.500976562 755.66796875 279.500976562 757.000976562 c 0
 288.833984375 761.083984375 298.420898438 763.125976562 308.264648438 763.125976562 c 0
 309.670898438 763.125976562 311.083007812 763.083984375 312.499023438 763.000976562 c 0
 322.499023438 762.333984375 331.499023438 759.666992188 339.499023438 755 c 0
 343.499023438 753 346.833007812 749.666992188 349.499023438 745 c 0
 351.499023438 740.333007812 352.499023438 734 352.499023438 726 c 0
 353.166992188 718 353.499023438 705 353.499023438 687 c 0
 353.499023438 669 352.833007812 637 351.499023438 591 c 0
 350.166992188 545 348.166015625 510.333007812 345.499023438 487 c 0
EndSplineSet
EndChar

StartChar: parenleft
Encoding: 40 40 9
Width: 620
GlyphClass: 2
Flags: HMW
HStem: -122 64.999 743 61<409.239 422.572>
VStem: 170.428 78.1449
LayerCount: 2
Fore
SplineSet
448.572265625 -93 m 0
 448.572265625 -101 445.239257812 -107.666992188 438.572265625 -113 c 0
 432.572265625 -119 425.905273438 -122 418.572265625 -122 c 0
 375.905273438 -121.333007812 337.23828125 -105.666015625 302.571289062 -74.9990234375 c 0
 267.904296875 -44.33203125 239.571289062 -1.33203125 217.571289062 54.0009765625 c 0
 195.571289062 110.000976562 180.904296875 174.333984375 173.571289062 247.000976562 c 0
 171.571289062 267.000976562 170.571289062 292.000976562 170.571289062 322.000976562 c 0
 170.475585938 326.288085938 170.427734375 330.731445312 170.427734375 335.331054688 c 0
 170.427734375 362.921875 172.142578125 396.145507812 175.571289062 435.000976562 c 0
 182.904296875 512.333984375 195.904296875 575.666992188 214.571289062 625 c 0
 222.571289062 647 233.571289062 668.333007812 247.571289062 689 c 0
 261.571289062 709.666992188 277.571289062 728.666992188 295.571289062 746 c 0
 312.904296875 763.333007812 332.571289062 777.333007812 354.571289062 788 c 0
 377.23828125 798.666992188 398.905273438 804 419.572265625 804 c 0
 429.572265625 804 436.905273438 802 441.572265625 798 c 0
 446.905273438 793.333007812 449.572265625 785.333007812 449.572265625 774 c 0
 449.572265625 762.666992188 446.905273438 754.666992188 441.572265625 750 c 0
 435.572265625 745.333007812 427.572265625 743 417.572265625 743 c 0
 398.239257812 743 380.239257812 737.333007812 363.572265625 726 c 0
 347.572265625 715.333007812 333.572265625 700.666015625 321.572265625 681.999023438 c 0
 298.239257812 647.33203125 280.90625 604.999023438 269.573242188 554.999023438 c 0
 260.90625 520.33203125 254.90625 472.33203125 251.573242188 410.999023438 c 0
 249.573242188 379.666015625 248.573242188 351.666015625 248.573242188 326.999023438 c 0
 249.240234375 301.666015625 250.240234375 279.666015625 251.573242188 260.999023438 c 0
 254.90625 220.33203125 262.239257812 180.33203125 273.572265625 140.999023438 c 0
 284.239257812 101.666015625 297.239257812 67.9990234375 312.572265625 39.9990234375 c 0
 327.239257812 11.33203125 343.90625 -12.0009765625 362.573242188 -30.0009765625 c 0
 381.90625 -48.0009765625 400.573242188 -57.0009765625 418.573242188 -57.0009765625 c 0
 428.573242188 -57.0009765625 436.240234375 -59.333984375 441.573242188 -64.0009765625 c 0
 446.240234375 -68.66796875 448.572265625 -78.3330078125 448.572265625 -93 c 0
EndSplineSet
EndChar

StartChar: parenright
Encoding: 41 41 10
Width: 620
GlyphClass: 2
Flags: HMW
HStem: -122 65.001 743.001 61
VStem: 371.625 78
LayerCount: 2
Fore
SplineSet
446.626953125 247 m 0
 439.293945312 174.333007812 424.626953125 110 402.626953125 54 c 0
 380.626953125 -1.3330078125 352.293945312 -44.3330078125 317.626953125 -75 c 0
 282.293945312 -106.333007812 243.626953125 -122 201.626953125 -122 c 0
 194.959960938 -121.333007812 188.29296875 -118.333007812 181.625976562 -113 c 0
 174.29296875 -107.666992188 170.625976562 -101 170.625976562 -93 c 0
 170.625976562 -78.3330078125 173.29296875 -68.666015625 178.625976562 -63.9990234375 c 0
 183.29296875 -59.33203125 190.959960938 -56.9990234375 201.626953125 -56.9990234375 c 0
 219.626953125 -56.9990234375 237.959960938 -47.9990234375 256.626953125 -29.9990234375 c 0
 275.293945312 -11.33203125 292.293945312 12.0009765625 307.626953125 40.0009765625 c 0
 322.293945312 68.0009765625 335.293945312 101.66796875 346.626953125 141.000976562 c 0
 357.959960938 180.333984375 365.29296875 220.333984375 368.625976562 261.000976562 c 0
 370.625976562 281.000976562 371.625976562 303.333984375 371.625976562 328.000976562 c 0
 371.625976562 352.66796875 370.625976562 380.334960938 368.625976562 411.001953125 c 0
 365.29296875 471.668945312 359.29296875 519.668945312 350.625976562 555.001953125 c 0
 338.625976562 605.001953125 321.29296875 647.668945312 298.625976562 683.001953125 c 0
 287.29296875 700.334960938 273.29296875 714.66796875 256.625976562 726.000976562 c 0
 239.958984375 737.333984375 222.291992188 743.000976562 203.625 743.000976562 c 0
 193.625 743.000976562 185.291992188 745.333984375 178.625 750.000976562 c 0
 173.291992188 754.000976562 170.625 761.66796875 170.625 773.000976562 c 0
 169.958007812 780.333984375 170.625 786.000976562 172.625 790.000976562 c 0
 174.625 794.66796875 176.958007812 797.66796875 179.625 799.000976562 c 0
 185.625 802.333984375 192.625 804.000976562 200.625 804.000976562 c 0
 222.625 804.000976562 244.291992188 798.66796875 265.625 788.000976562 c 0
 286.958007812 777.333984375 306.625 763.333984375 324.625 746.000976562 c 0
 342.625 728.66796875 358.625 709.66796875 372.625 689.000976562 c 0
 386.625 667.66796875 397.625 646.334960938 405.625 625.001953125 c 0
 424.291992188 575.668945312 436.958984375 512.3359375 443.625976562 435.002929688 c 0
 447.625976562 389.669921875 449.625976562 352.002929688 449.625976562 322.002929688 c 0
 449.625976562 292.002929688 448.626953125 267 446.626953125 247 c 0
EndSplineSet
EndChar

StartChar: asterisk
Encoding: 42 42 11
Width: 620
GlyphClass: 2
Flags: HMW
HStem: 303 84<103.835 106.503 103.503 123.502> 315.998 56.999 315.998 69.999
VStem: 376.503 71.9951
LayerCount: 2
Fore
SplineSet
438.502929688 132 m 0x50
 432.502929688 128 424.834960938 126.333007812 415.501953125 127 c 0
 406.834960938 127 398.834960938 128.666992188 391.501953125 132 c 0
 384.168945312 135.333007812 379.168945312 140.666015625 376.501953125 147.999023438 c 0
 367.834960938 175.999023438 350.16796875 215.33203125 323.500976562 265.999023438 c 2
 314.500976562 282.999023438 l 1
 306.500976562 265.999023438 l 2
 274.500976562 203.33203125 254.833984375 161.999023438 247.500976562 141.999023438 c 0
 245.500976562 136.666015625 242.16796875 132.333007812 237.500976562 129 c 0
 232.833984375 126.333007812 227.500976562 124.666015625 221.500976562 123.999023438 c 2
 216.500976562 123.999023438 l 2
 204.500976562 123.999023438 194.500976562 126.33203125 186.500976562 130.999023438 c 0
 182.500976562 132.999023438 178.833984375 136.666015625 175.500976562 141.999023438 c 0
 172.16796875 147.999023438 169.834960938 154.666015625 168.501953125 161.999023438 c 2
 168.501953125 164.999023438 l 2
 168.501953125 171.666015625 170.168945312 178.333007812 173.501953125 185 c 2
 249.501953125 309 l 1
 182.834960938 305 136.501953125 303 110.501953125 303 c 0
 97.1689453125 303 86.8359375 307.333007812 79.5029296875 316 c 0
 72.169921875 324 68.5029296875 333 68.5029296875 343 c 2
 68.5029296875 346 l 2
 68.5029296875 356 71.169921875 365.333007812 76.5029296875 374 c 0
 79.169921875 378.666992188 82.8369140625 382 87.50390625 384 c 0
 92.8369140625 386 98.169921875 387 103.502929688 387 c 2
 106.502929688 387 l 2x90
 137.169921875 384.333007812 188.502929688 380.666015625 260.502929688 375.999023438 c 1
 251.502929688 391.999023438 l 2
 222.8359375 440.666015625 199.168945312 477.999023438 180.501953125 503.999023438 c 0
 173.834960938 515.33203125 170.501953125 526.33203125 170.501953125 536.999023438 c 2
 170.501953125 542.999023438 l 2
 171.834960938 553.666015625 176.16796875 560.666015625 183.500976562 563.999023438 c 1
 183.500976562 564.999023438 l 1
 188.833984375 568.33203125 195.166992188 569.999023438 202.5 569.999023438 c 0
 209.833007812 570.666015625 217.5 568.666015625 225.5 563.999023438 c 0
 233.5 559.33203125 239.5 552.665039062 243.5 543.998046875 c 0
 250.833007812 527.331054688 273.166015625 483.6640625 310.499023438 412.997070312 c 1
 318.499023438 427.997070312 l 2
 345.166015625 473.997070312 365.499023438 512.330078125 379.499023438 542.997070312 c 0
 383.499023438 550.997070312 389.166015625 557.330078125 396.499023438 561.997070312 c 0
 403.431640625 566.50390625 410.184570312 568.756835938 416.7578125 568.756835938 c 0
 422.825195312 568.756835938 428.739257812 566.836914062 434.499023438 562.997070312 c 0
 439.166015625 560.330078125 443.166015625 556.330078125 446.499023438 550.997070312 c 0
 449.83203125 545.6640625 451.499023438 538.6640625 451.499023438 529.997070312 c 0
 451.499023438 521.330078125 448.83203125 512.997070312 443.499023438 504.997070312 c 0
 422.166015625 473.6640625 398.499023438 434.6640625 372.499023438 387.997070312 c 2
 364.499023438 372.997070312 l 1
 381.499023438 372.997070312 l 2x50
 440.83203125 372.997070312 483.165039062 376.6640625 508.498046875 383.997070312 c 0
 511.831054688 385.330078125 515.1640625 385.997070312 518.497070312 385.997070312 c 0
 525.830078125 385.997070312 532.163085938 383.6640625 537.49609375 378.997070312 c 0
 546.163085938 370.997070312 550.830078125 362.6640625 551.497070312 353.997070312 c 0
 551.497070312 348.6640625 550.830078125 343.331054688 549.497070312 337.998046875 c 0
 546.1640625 325.331054688 540.831054688 316.998046875 533.498046875 312.998046875 c 0
 530.831054688 311.665039062 528.1640625 310.998046875 525.497070312 310.998046875 c 0
 522.1640625 310.331054688 519.497070312 310.331054688 517.497070312 310.998046875 c 0
 500.1640625 314.331054688 469.497070312 315.998046875 425.497070312 315.998046875 c 0x30
 418.831054688 316.33203125 410.498046875 316.499023438 400.498046875 316.499023438 c 0
 390.498046875 316.499023438 378.831054688 316.33203125 365.498046875 315.998046875 c 1
 441.498046875 185.998046875 l 2
 446.831054688 174.665039062 449.498046875 164.665039062 449.498046875 155.998046875 c 0
 448.831054688 154.665039062 448.498046875 152.998046875 448.498046875 150.998046875 c 0
 447.831054688 141.665039062 444.502929688 135.333007812 438.502929688 132 c 0x50
EndSplineSet
EndChar

StartChar: plus
Encoding: 43 43 12
Width: 620
GlyphClass: 2
Flags: HMW
HStem: 367.001 63.999
VStem: 277.497 62.0029
LayerCount: 2
Fore
SplineSet
167.5 366 m 2
 153.5 366 143.5 369.333007812 137.5 376 c 0
 130.83203125 382 127.5 389.666992188 127.5 399 c 2
 127.5 402 l 2
 128.166992188 410.666992188 131.166992188 418 136.5 424 c 0
 142.5 430 151.5 433 163.5 433 c 2
 166.5 433 l 2
 213.83203125 431.666992188 247.830078125 431 268.49609375 431 c 2
 277.49609375 431 l 1
 277.49609375 441 l 2
 277.49609375 474.333007812 276.83203125 510.333007812 275.5 549 c 2
 275.5 553 l 2
 275.5 563.666992188 278.5 571.333984375 284.5 576.000976562 c 0
 289.83203125 580.000976562 297.83203125 582.000976562 308.5 582.000976562 c 2
 312.5 582.000976562 l 2
 321.83203125 582.000976562 329.5 580.000976562 335.5 576.000976562 c 0
 340.166992188 572.66796875 342.5 565.66796875 342.5 555.000976562 c 2
 342.5 550.000976562 l 2
 340.5 511.333984375 339.5 474.333984375 339.5 439.000976562 c 2
 339.5 430.000976562 l 1
 459.5 430.000976562 l 2
 472.166992188 430.000976562 480.5 427.66796875 484.5 423.000976562 c 0
 489.166992188 417.66796875 491.833984375 410.666992188 492.5 402 c 0
 491.833984375 396.666992188 491.166992188 392.000976562 490.5 388.000976562 c 0
 489.83203125 384.000976562 488.166015625 380 485.499023438 376 c 0
 482.166015625 370.666992188 475.166015625 368.000976562 464.499023438 368.000976562 c 2
 460.499023438 368.000976562 l 2
 449.166015625 369.333984375 433.166015625 370.000976562 412.499023438 370.000976562 c 0
 392.499023438 370.000976562 367.83203125 369.66796875 338.499023438 369.000976562 c 1
 338.499023438 359.000976562 l 1
 338.499023438 295.000976562 l 2
 339.166015625 270.333984375 339.5 255.333984375 339.5 250.000976562 c 0
 338.83203125 238.000976562 336.1640625 229.66796875 331.498046875 225.000976562 c 0
 326.831054688 220.333984375 320.1640625 217.666992188 311.49609375 217 c 0
 300.830078125 217.666992188 292.830078125 220 287.49609375 224 c 0
 280.830078125 228.666992188 277.49609375 237.333984375 277.49609375 250.000976562 c 2
 277.49609375 367.000976562 l 1
 268.49609375 367.000976562 l 1
 167.5 366 l 2
EndSplineSet
EndChar

StartChar: comma
Encoding: 44 44 13
Width: 620
GlyphClass: 2
Flags: HMW
VStem: 217.501 185.998
LayerCount: 2
Fore
SplineSet
253.500976562 -207 m 0
 241.500976562 -207 231.833984375 -203.333007812 224.500976562 -196 c 0
 220.500976562 -191.333007812 218.16796875 -185.666015625 217.500976562 -178.999023438 c 0
 216.833984375 -177.666015625 216.500976562 -176.666015625 216.500976562 -175.999023438 c 0
 217.16796875 -171.999023438 219.500976562 -165.999023438 223.500976562 -157.999023438 c 0
 237.500976562 -137.999023438 256.833984375 -93.666015625 281.500976562 -24.9990234375 c 0
 306.833984375 43.66796875 322.166992188 91.66796875 327.5 119.000976562 c 0
 328.833007812 125.66796875 332.166015625 131.000976562 337.499023438 135.000976562 c 0
 343.499023438 139.000976562 349.499023438 141.000976562 355.499023438 141.000976562 c 2
 357.499023438 141.000976562 l 2
 364.166015625 141.000976562 370.499023438 140.333984375 376.499023438 139.000976562 c 0
 385.166015625 136.333984375 392.166015625 131.333984375 397.499023438 124.000976562 c 0
 401.499023438 119.333984375 403.499023438 113.333984375 403.499023438 106.000976562 c 0
 403.499023438 104.66796875 403.166015625 102.000976562 402.499023438 98.0009765625 c 0
 395.83203125 65.333984375 381.499023438 15.333984375 359.499023438 -51.9990234375 c 0
 347.499023438 -89.33203125 337.499023438 -117.665039062 329.499023438 -136.998046875 c 0
 320.83203125 -155.665039062 314.165039062 -168.33203125 309.498046875 -174.999023438 c 0
 300.165039062 -187.666015625 288.165039062 -196.666015625 273.498046875 -201.999023438 c 0
 265.498046875 -205.33203125 258.833984375 -207 253.500976562 -207 c 0
EndSplineSet
EndChar

StartChar: hyphen
Encoding: 45 45 14
Width: 620
GlyphClass: 2
Flags: HMW
HStem: 252 68<198.499 210.166> 259 61
VStem: 165.499 289.002
LayerCount: 2
Fore
SplineSet
165.500976562 290 m 2x60
 165.500976562 301.333007812 168.500976562 309.333007812 174.500976562 314 c 0
 179.16796875 318 186.500976562 320 196.500976562 320 c 0
 234.500976562 320 279.833984375 320.333007812 332.500976562 321 c 0
 385.16796875 322.333007812 415.16796875 323 422.500976562 323 c 0
 435.16796875 323 443.500976562 320.666992188 447.500976562 316 c 0
 451.500976562 310.666992188 453.833984375 303.666992188 454.500976562 295 c 0
 454.500976562 284.333007812 452.500976562 276.333007812 448.500976562 271 c 0
 443.833984375 264.333007812 435.166992188 261 422.5 261 c 0
 413.833007812 261 380.166015625 259.666992188 321.499023438 257 c 0
 262.83203125 253.666992188 221.83203125 252 198.499023438 252 c 0xa0
 187.83203125 252.666992188 179.83203125 255 174.499023438 259 c 0
 168.499023438 264.333007812 165.499023438 273.333007812 165.499023438 286 c 2
 165.500976562 290 l 2x60
EndSplineSet
EndChar

StartChar: period
Encoding: 46 46 15
Width: 620
GlyphClass: 2
Flags: HMW
HStem: -4 134.053
VStem: 238.5 143.001
LayerCount: 2
Fore
SplineSet
311.499023438 -4 m 2
 302.499023438 -4 l 2
 301.584960938 -4.03515625 300.681640625 -4.052734375 299.786132812 -4.052734375 c 0
 283.665039062 -4.052734375 270.236328125 1.6318359375 259.499023438 13 c 0
 245.499023438 27.6669921875 238.499023438 44.6669921875 238.499023438 64 c 0
 238.499023438 81.3330078125 245.833007812 96.3330078125 260.499023438 109 c 0
 277.166992188 123 295.833984375 130 316.500976562 130 c 0
 317.483398438 130.03515625 318.456054688 130.052734375 319.420898438 130.052734375 c 0
 336.772460938 130.052734375 351.131835938 124.368164062 362.500976562 113 c 0
 375.166992188 100.333007812 381.500976562 84.666015625 381.500976562 65.9990234375 c 0
 381.500976562 47.33203125 375.166992188 31.6650390625 362.500976562 18.998046875 c 0
 350.500976562 6.3310546875 333.499023438 -1.3330078125 311.499023438 -4 c 2
EndSplineSet
EndChar

StartChar: slash
Encoding: 47 47 16
Width: 620
GlyphClass: 2
Flags: W
LayerCount: 2
Fore
SplineSet
70 -9 m 0
 70 5 73.6669921875 17.6669921875 81 29 c 0
 178.333007812 189 261.666015625 331.333007812 330.999023438 456 c 0
 374.999023438 532.666992188 421.33203125 619.666992188 469.999023438 717 c 0
 474.666015625 725.666992188 480.666015625 732.333984375 487.999023438 737.000976562 c 0
 495.33203125 741.66796875 502.33203125 744.000976562 508.999023438 744.000976562 c 0
 516.33203125 744.000976562 523.999023438 742.333984375 531.999023438 739.000976562 c 0
 540.666015625 733.66796875 546.333007812 726.334960938 549 717.001953125 c 0
 549.666992188 715.001953125 550 712.334960938 550 709.001953125 c 0
 550 704.334960938 547.666992188 695.001953125 543 681.001953125 c 0
 525.666992188 646.334960938 477 562.66796875 397 430.000976562 c 0
 317 297.333984375 268.333007812 214.666992188 251 182 c 0
 243 166.666992188 225.666992188 131.666992188 199 77 c 0
 175 28.3330078125 160 -1.333984375 154 -12.0009765625 c 0
 144.666992188 -28.66796875 132.666992188 -40.3349609375 118 -47.001953125 c 0
 111.333007812 -50.3349609375 105.333007812 -52.001953125 100 -52.001953125 c 0
 94 -52.001953125 88.6669921875 -50.3349609375 84 -47.001953125 c 0
 76.6669921875 -43.001953125 72.333984375 -33.3349609375 71.0009765625 -18.001953125 c 0
 70.333984375 -14.6689453125 70 -11.6669921875 70 -9 c 0
EndSplineSet
EndChar

StartChar: zero
Encoding: 48 48 17
Width: 620
GlyphClass: 2
Flags: HMW
HStem: -14.998 65.001 646.003 61.999
VStem: 94.6676 79 450.669 74.998
LayerCount: 2
Fore
SplineSet
95.6640625 391 m 0
 96.33203125 418.333007812 97.998046875 441.83203125 100.666015625 461.499023438 c 0
 103.33203125 481.166015625 107 502.333007812 111.666015625 525 c 0
 116.333007812 547.666992188 121.666015625 567.666992188 127.666015625 585 c 0
 143 625.666992188 169 656.333984375 205.666015625 677.000976562 c 0
 239 697.66796875 279.666015625 708.000976562 327.666015625 708.000976562 c 0
 351 708.000976562 373 703.66796875 393.666015625 695.000976562 c 0
 415.666015625 686.333984375 435.666015625 673.500976562 453.666015625 656.500976562 c 0
 471.666015625 639.500976562 486.666015625 617.000976562 498.666015625 589.000976562 c 0
 510.666015625 561.000976562 518.333007812 529.000976562 521.666015625 493.000976562 c 0
 524.333007812 453.000976562 525.666015625 409.333984375 525.666015625 362.000976562 c 0
 525.666015625 326.000976562 524.5 288.16796875 522.166015625 248.500976562 c 0
 519.833007812 208.833984375 515.666015625 178.000976562 509.666015625 156.000976562 c 0
 498.333007812 114.000976562 484.333007812 80.333984375 467.666015625 55.0009765625 c 0
 459.666015625 43.0009765625 450.666015625 33.0009765625 440.666015625 25.0009765625 c 0
 430.666015625 17.0009765625 420.333007812 10.333984375 409.666015625 5.0009765625 c 0
 400.333007812 -0.33203125 389 -4.4990234375 375.66796875 -7.4990234375 c 0
 362.333984375 -10.4990234375 349.333984375 -12.4990234375 336.66796875 -13.4990234375 c 0
 324 -14.4990234375 308.66796875 -14.9990234375 290.66796875 -14.9990234375 c 0
 263.333984375 -14.33203125 238.333984375 -8.6650390625 215.66796875 2.001953125 c 0
 190.333984375 12.6689453125 168.66796875 27.501953125 150.66796875 46.501953125 c 0
 132.66796875 65.501953125 118.833984375 89.001953125 109.16796875 117.001953125 c 0
 99.5 145.001953125 94.66796875 175.334960938 94.66796875 208.001953125 c 2
 94.66796875 214.001953125 l 1
 94.66796875 309.001953125 l 2
 94.4453125 316.125976562 94.333984375 323.918945312 94.333984375 332.380859375 c 0
 94.333984375 349.258789062 94.77734375 368.797851562 95.6640625 391 c 0
229.666015625 613.000976562 m 0
 208.333007812 591.000976562 192 555.998046875 180.666015625 507.998046875 c 0
 176.666015625 490.665039062 173.666015625 470.665039062 171.666015625 447.998046875 c 0
 170 428.33203125 169.16796875 402.166015625 169.16796875 369.5 c 0
 169.16796875 336.833984375 170 297.66796875 171.66796875 252.001953125 c 0
 172.333984375 234.001953125 172.833984375 222.501953125 173.16796875 217.501953125 c 0
 173.5 212.501953125 173.66796875 209.001953125 173.66796875 207.001953125 c 2
 173.66796875 177.001953125 l 1
 191.66796875 201.001953125 l 1
 274.333984375 323.001953125 348.66796875 448.668945312 414.66796875 578.001953125 c 2
 417.66796875 584.001953125 l 1
 413.66796875 589.001953125 l 2
 401.66796875 607.001953125 387.16796875 621.001953125 370.16796875 631.001953125 c 0
 353.16796875 641.001953125 334.333984375 646.001953125 313.66796875 646.001953125 c 0
 277.66796875 646.001953125 249.666015625 635.000976562 229.666015625 613.000976562 c 0
336.166015625 54.9990234375 m 0
 349.833007812 58.33203125 363 63.9990234375 375.66796875 71.9990234375 c 0
 401 88.666015625 420.66796875 119.666015625 434.66796875 164.999023438 c 0
 437.333984375 173.666015625 440.16796875 196.166015625 443.16796875 232.499023438 c 0
 446.16796875 268.83203125 448.333984375 310.33203125 449.66796875 356.999023438 c 0
 450.333984375 369.666015625 450.66796875 381.999023438 450.66796875 393.999023438 c 0
 450.66796875 427.999023438 449.333984375 460.666015625 446.66796875 491.999023438 c 2
 443.66796875 526.999023438 l 1
 427.66796875 494.999023438 l 1
 361.66796875 349.666015625 284.333984375 227.666015625 195.66796875 128.999023438 c 1
 191.66796875 123.999023438 l 1
 193.66796875 117.999023438 l 2
 205 93.33203125 220 75.33203125 238.66796875 63.9990234375 c 0
 253.333984375 54.666015625 270.66796875 49.9990234375 290.66796875 49.9990234375 c 0
 307.333984375 49.9990234375 322.5 51.666015625 336.166015625 54.9990234375 c 0
EndSplineSet
EndChar

StartChar: one
Encoding: 49 49 18
Width: 620
GlyphClass: 2
Flags: HMW
HStem: 1 64.9961<491.499 493.499 491.166 499.833> 520.999 21G
VStem: 277.498 70 288.498 61
LayerCount: 2
Fore
SplineSet
524.5 59 m 0xe0
 530.5 53 533.5 45 533.5 35 c 0
 533.5 25 530.66796875 16.8330078125 525 10.5 c 0
 519.333007812 4.1669921875 508.166015625 1 491.5 1 c 0
 268.166015625 3 144.166015625 4 119.5 4 c 0
 107.5 4 99 7.1669921875 94 13.5 c 0
 89 19.8330078125 86.5 28 86.5 38 c 2
 86.5 41 l 2
 86.5 50.3330078125 89 58.3330078125 94 65 c 0
 99 71.6669921875 107.83203125 75 120.5 75 c 0
 149.83203125 75 202.165039062 74.3330078125 277.498046875 73 c 1
 277.498046875 83 l 2xe0
 277.498046875 109 277.165039062 127.666992188 276.498046875 139 c 0
 275.83203125 150.333007812 275.498046875 160.666015625 275.498046875 169.999023438 c 0
 275.498046875 180.666015625 275.83203125 212.333007812 276.498046875 265 c 0
 276.498046875 278.333007812 277.998046875 328.666015625 280.998046875 415.999023438 c 0
 283.998046875 503.33203125 286.498046875 567.999023438 288.498046875 609.999023438 c 1
 272.498046875 595.999023438 l 2
 228.498046875 555.999023438 195.498046875 531.666015625 173.498046875 522.999023438 c 0
 170.165039062 521.666015625 167.165039062 520.999023438 164.498046875 520.999023438 c 0
 158.498046875 520.999023438 151.498046875 524.33203125 143.498046875 530.999023438 c 0
 132.83203125 540.33203125 127.498046875 549.33203125 127.498046875 557.999023438 c 2
 127.498046875 558.999023438 l 1
 127.498046875 559.999023438 l 2
 127.498046875 568.666015625 129.498046875 576.666015625 133.498046875 583.999023438 c 0
 137.498046875 591.33203125 144.83203125 598.999023438 155.498046875 606.999023438 c 0
 175.498046875 622.33203125 195.83203125 638.665039062 216.498046875 655.998046875 c 2
 258.498046875 693.998046875 l 2
 266.498046875 701.331054688 274.665039062 707.6640625 282.998046875 712.997070312 c 0
 291.33203125 718.330078125 298.1640625 720.997070312 303.497070312 720.997070312 c 0
 314.830078125 720.997070312 326.497070312 715.6640625 338.497070312 704.997070312 c 0
 345.1640625 698.997070312 349.83203125 693.6640625 352.498046875 688.997070312 c 0
 354.498046875 686.330078125 355.498046875 683.997070312 355.498046875 681.997070312 c 0
 354.83203125 665.997070312 352.83203125 611.330078125 349.498046875 517.997070312 c 0xd0
 346.165039062 424.6640625 344.498046875 369.997070312 344.498046875 353.997070312 c 0
 344.498046875 237.330078125 345.498046875 142.663085938 347.498046875 69.99609375 c 1
 390.83203125 68.6630859375 424.83203125 67.6630859375 449.498046875 66.99609375 c 0
 474.165039062 66.3291015625 488.83203125 65.99609375 493.5 65.99609375 c 0
 495.205078125 66.0703125 496.849609375 66.107421875 498.431640625 66.107421875 c 0
 511.0703125 66.107421875 519.76171875 63.7392578125 524.5 59 c 0xe0
EndSplineSet
EndChar

StartChar: two
Encoding: 50 50 19
Width: 620
GlyphClass: 2
Flags: HMW
HStem: -8 64.0029 -1.99512 68.998 647.002 64.998
VStem: 95.4985 81.0029 429.5 80.002
LayerCount: 2
Fore
SplineSet
295.498046875 -8 m 0xb8
 266.166015625 -9.3330078125 236.498046875 -10 206.498046875 -10 c 0
 173.166015625 -9.3330078125 147.166015625 -8 128.498046875 -6 c 0
 122.498046875 -5.3330078125 117.498046875 -3.166015625 113.498046875 0.5009765625 c 0
 109.498046875 4.16796875 106.498046875 9.0009765625 104.498046875 15.0009765625 c 0
 98.498046875 30.333984375 95.498046875 52.5009765625 95.498046875 81.5009765625 c 0
 95.498046875 110.500976562 101.498046875 140.16796875 113.498046875 170.500976562 c 0
 125.498046875 200.833984375 143.331054688 230.000976562 166.998046875 258.000976562 c 0
 190.666015625 286.000976562 216.83203125 308.66796875 245.499023438 326.000976562 c 0
 310.83203125 366.66796875 352.83203125 395.000976562 371.499023438 411.000976562 c 0
 398.166015625 433.66796875 415.499023438 458.334960938 423.499023438 485.001953125 c 0
 427.499023438 499.668945312 429.499023438 517.668945312 429.499023438 539.001953125 c 0
 429.499023438 577.001953125 418.499023438 604.668945312 396.499023438 622.001953125 c 0
 376.499023438 638.668945312 348.499023438 647.001953125 312.499023438 647.001953125 c 0
 287.166015625 647.001953125 263.166015625 638.668945312 240.499023438 622.001953125 c 0
 217.83203125 605.334960938 199.499023438 586.66796875 185.499023438 566.000976562 c 0
 179.499023438 558.000976562 174.499023438 552.16796875 170.499023438 548.500976562 c 0
 166.499023438 544.833984375 162.499023438 542.666992188 158.499023438 542 c 2
 152.999023438 542 l 2
 150.666015625 542 147.833984375 542.333007812 144.5 543 c 0
 141.166992188 543.666992188 135.833984375 545.666992188 128.501953125 549 c 0
 119.833984375 553.666992188 114.501953125 560 112.500976562 568 c 2
 112.500976562 575 l 2
 112.434570312 575.799804688 112.401367188 576.623046875 112.401367188 577.469726562 c 0
 112.401367188 585.08984375 115.1015625 594.599609375 120.501953125 606 c 0
 126.501953125 617.333007812 135.833984375 629.166015625 148.501953125 641.499023438 c 0
 161.16796875 653.83203125 175.834960938 665.33203125 192.501953125 675.999023438 c 0
 209.169921875 686.666015625 227.501953125 695.333007812 247.501953125 702 c 0
 267.501953125 708.666992188 287.834960938 712 308.501953125 712 c 0
 371.834960938 712 421.16796875 696.333007812 456.501953125 665 c 0
 491.833984375 633.666992188 509.501953125 586 509.501953125 522 c 0
 509.501953125 469.333007812 496.16796875 427 469.501953125 395 c 0
 448.833984375 371.666992188 413.833984375 345.333984375 364.501953125 316.000976562 c 0
 349.16796875 306.000976562 328.501953125 293.333984375 302.501953125 278.000976562 c 0
 275.16796875 262.66796875 252.501953125 243.334960938 234.501953125 220.001953125 c 0
 215.833984375 196.668945312 202.001953125 172.8359375 193.001953125 148.502929688 c 0
 184.001953125 124.169921875 178.501953125 98.0029296875 176.501953125 70.0029296875 c 2
 176.501953125 60.0029296875 l 1
 221.833984375 57.3359375 262.501953125 56.0029296875 298.501953125 56.0029296875 c 0xb8
 324.501953125 56.0029296875 345.833984375 56.669921875 362.501953125 58.0029296875 c 0
 379.16796875 59.3359375 401.16796875 61.0029296875 428.501953125 63.0029296875 c 0
 457.16796875 65.0029296875 475.501953125 66.3359375 483.501953125 67.0029296875 c 2
 493.501953125 67.0029296875 l 2
 496.61328125 67.2255859375 499.318359375 67.3369140625 501.615234375 67.3369140625 c 0
 506.206054688 67.3369140625 509.16796875 66.892578125 510.501953125 66.00390625 c 0
 512.501953125 65.3369140625 514.833984375 64.00390625 517.501953125 62.00390625 c 0
 519.501953125 60.6708984375 520.833984375 59.337890625 521.501953125 58.0048828125 c 0
 523.501953125 54.0048828125 524.501953125 48.337890625 524.501953125 41.0048828125 c 0
 524.501953125 26.337890625 520.833984375 14.337890625 513.501953125 5.0048828125 c 0
 510.16796875 0.337890625 505.834960938 -1.9951171875 500.501953125 -1.9951171875 c 0x78
 452.501953125 -1.9951171875 384.166015625 -4 295.498046875 -8 c 0xb8
EndSplineSet
EndChar

StartChar: three
Encoding: 51 51 20
Width: 620
GlyphClass: 2
Flags: HMW
HStem: -14.998 64.998 328.002 81.002 647.004 65.001
VStem: 415.499 81 438.498 80.002
LayerCount: 2
Fore
SplineSet
495.501953125 532 m 0xf0
 496.168945312 530.666992188 496.499023438 529.333984375 496.499023438 528.000976562 c 0xf0
 496.499023438 511.333984375 494.001953125 495.833984375 489.001953125 481.500976562 c 0
 484.001953125 467.16796875 477.501953125 455.16796875 469.501953125 445.500976562 c 0
 461.501953125 435.833984375 451.668945312 427.000976562 440.001953125 419.000976562 c 0
 428.334960938 411.000976562 416.16796875 404.66796875 403.500976562 400.000976562 c 0
 392.16796875 395.333984375 380.16796875 391.666992188 367.500976562 389 c 2
 325.500976562 380 l 1
 367.500976562 370 l 2
 391.500976562 364.666992188 412.66796875 357.833984375 431.000976562 349.500976562 c 0
 449.333984375 341.16796875 465.166992188 330.500976562 478.5 317.500976562 c 0
 491.833007812 304.500976562 501.833007812 288.333984375 508.5 269.000976562 c 0
 515.166992188 249.66796875 518.5 226.334960938 518.5 199.001953125 c 0
 518.5 133.668945312 498.166992188 81.6689453125 457.5 43.001953125 c 0
 417.5 4.3349609375 364.5 -14.998046875 298.5 -14.998046875 c 0
 278.5 -14.998046875 258.5 -11.6650390625 238.5 -4.998046875 c 0
 217.166992188 2.3349609375 198 11.16796875 181 21.5009765625 c 0
 164 31.833984375 149.333007812 43.1669921875 137 55.5 c 0
 124.666992188 67.8330078125 115.5 80 109.5 92 c 0
 104.166992188 102 101.5 111.333007812 101.5 120 c 0
 101.5 122.666992188 101.833007812 125.333984375 102.5 128.000976562 c 0
 104.5 137.333984375 109.5 144.000976562 117.5 148.000976562 c 0
 124.833007812 152.000976562 131.833007812 154.000976562 138.5 154.000976562 c 0
 141.166992188 154.000976562 143.833984375 153.66796875 146.500976562 153.000976562 c 0
 155.833984375 150.333984375 165.166992188 143.000976562 174.5 131.000976562 c 0
 189.833007812 110.333984375 209.166015625 91.6669921875 232.499023438 75 c 0
 253.83203125 58.3330078125 277.165039062 50 302.498046875 50 c 0
 340.498046875 50 371.831054688 62.3330078125 396.498046875 87 c 0
 424.498046875 111.666992188 438.498046875 143.333984375 438.498046875 182.000976562 c 0xe8
 438.498046875 204.66796875 434.831054688 224.834960938 427.498046875 242.501953125 c 0
 420.165039062 260.168945312 408.83203125 275.668945312 393.499023438 289.001953125 c 0
 365.499023438 315.001953125 318.499023438 328.001953125 252.499023438 328.001953125 c 0
 242.499023438 328.001953125 233.83203125 332.334960938 226.499023438 341.001953125 c 0
 219.166015625 349.668945312 215.499023438 359.8359375 215.499023438 371.502929688 c 0
 215.499023438 383.169921875 218.166015625 392.336914062 223.499023438 399.00390625 c 0
 228.166015625 405.670898438 235.499023438 409.00390625 245.499023438 409.00390625 c 0
 297.499023438 409.00390625 338.499023438 420.670898438 368.499023438 444.00390625 c 0
 399.83203125 467.336914062 415.499023438 501.00390625 415.499023438 545.00390625 c 2
 415.499023438 549.00390625 l 1
 415.499023438 553.00390625 l 2
 415.518554688 553.899414062 415.528320312 554.7890625 415.528320312 555.671875 c 0
 415.528320312 585.68359375 404.518554688 608.4609375 382.499023438 624.00390625 c 0
 361.166015625 639.336914062 331.166015625 647.00390625 292.499023438 647.00390625 c 0
 279.83203125 647.00390625 266.499023438 644.670898438 252.499023438 640.00390625 c 0
 247.83203125 638.00390625 242.83203125 634.670898438 237.499023438 630.00390625 c 0
 232.166015625 625.336914062 227.833007812 621.669921875 224.5 619.002929688 c 0
 221.166992188 616.3359375 217 611.8359375 212 605.502929688 c 0
 207 599.169921875 203.5 594.836914062 201.5 592.50390625 c 0
 199.5 590.170898438 196.166992188 585.337890625 191.5 578.004882812 c 0
 182.166992188 565.337890625 173.166992188 558.004882812 164.5 556.004882812 c 0
 161.833007812 555.337890625 159.166015625 555.004882812 156.499023438 555.004882812 c 0
 149.83203125 555.004882812 142.499023438 557.004882812 134.499023438 561.004882812 c 0
 126.499023438 565.004882812 121.499023438 571.671875 119.499023438 581.004882812 c 0
 118.83203125 583.004882812 118.499023438 585.337890625 118.499023438 588.004882812 c 0
 118.499023438 596.671875 121.166015625 606.338867188 126.499023438 617.005859375 c 0
 139.166015625 642.338867188 158.499023438 664.005859375 184.499023438 682.005859375 c 0
 197.83203125 691.338867188 213.83203125 698.671875 232.499023438 704.004882812 c 0
 249.83203125 709.337890625 268.499023438 712.004882812 288.499023438 712.004882812 c 0
 427.166015625 712.004882812 496.499023438 653.337890625 496.499023438 536.004882812 c 0
 495.83203125 534.671875 495.501953125 533.333007812 495.501953125 532 c 0xf0
EndSplineSet
EndChar

StartChar: four
Encoding: 52 52 21
Width: 620
GlyphClass: 2
Flags: HMW
HStem: -13.998 21G 234 61.002 696.001 20G
VStem: 379.502 65.499 386.5 67.001 386.5 75.001
LayerCount: 2
Fore
SplineSet
401.5 -1 m 0xf0
 392.166992188 7 387.166992188 14.6669921875 386.5 22 c 2
 386.5 60 l 1xe4
 386.5 233 l 1xe8
 365.166992188 233.666992188 347.5 234 333.5 234 c 0
 245.5 233.333007812 180.83203125 228.666015625 139.5 219.999023438 c 0
 135.5 219.33203125 131.5 218.999023438 127.5 218.999023438 c 0
 123.5 218.999023438 119.5 219.666015625 115.5 220.999023438 c 0
 109.5 223.666015625 104.5 227.333007812 100.5 232 c 0
 91.1669921875 244 86.5 258.333007812 86.5 275 c 0
 86.5 283 87.8330078125 291 90.5 299 c 0
 97.1669921875 317.666992188 114.833984375 347.833984375 143.5 389.500976562 c 0
 172.16796875 431.16796875 208.16796875 483.000976562 251.5 545.000976562 c 0
 294.16796875 607.000976562 324.5 652.333984375 342.5 681.000976562 c 0
 349.833984375 692.333984375 357.833984375 700.833984375 366.5 706.500976562 c 0
 375.16796875 712.16796875 383.16796875 715.000976562 390.5 715.000976562 c 0
 392.5 715.66796875 394.5 716.000976562 396.5 716.000976562 c 0
 404.5 716.000976562 412.5 713.66796875 420.5 709.000976562 c 0
 428.5 704.333984375 433.5 696.333984375 435.5 685.000976562 c 0
 439.5 662.333984375 442.66796875 626.833984375 445 578.500976562 c 0xf0
 447.333984375 530.16796875 448.833984375 489.334960938 449.5 456.001953125 c 2
 452.5 294.001953125 l 1
 469.833984375 292.668945312 485.333984375 292.001953125 499 292.001953125 c 0
 512.66796875 292.001953125 521.66796875 289.501953125 526 284.501953125 c 0
 530.333984375 279.501953125 532.833984375 272.668945312 533.5 264.001953125 c 0
 533.5 253.334960938 531.5 245.334960938 527.5 240.001953125 c 0
 522.16796875 233.334960938 513 230.001953125 500 230.001953125 c 0
 487 230.001953125 471.5 230.668945312 453.5 232.001953125 c 1xe8
 454.16796875 126.668945312 456.16796875 67.001953125 459.5 53.001953125 c 0
 460.833984375 45.6689453125 461.5 39.001953125 461.5 33.001953125 c 0xe4
 462.16796875 22.3349609375 460.16796875 12.66796875 455.5 4.0009765625 c 0
 452.833984375 -1.33203125 449.333984375 -5.6650390625 445 -8.998046875 c 0
 440.66796875 -12.3310546875 435.5 -13.998046875 429.5 -13.998046875 c 0
 420.16796875 -13.3310546875 410.83203125 -9 401.5 -1 c 0xf0
379.501953125 603.001953125 m 2xf0
 378.501953125 629.001953125 l 1
 363.501953125 608.001953125 l 2
 272.834960938 478.001953125 210.501953125 377.001953125 176.501953125 305.001953125 c 2
 169.501953125 290.001953125 l 1
 185.501953125 291.001953125 l 2
 220.834960938 293.668945312 263.501953125 295.001953125 313.501953125 295.001953125 c 0
 333.501953125 295.001953125 357.834960938 294.668945312 386.501953125 294.001953125 c 1
 386.501953125 304.001953125 l 2
 386.501953125 429.334960938 384.16796875 529.001953125 379.501953125 603.001953125 c 2xf0
EndSplineSet
EndChar

StartChar: five
Encoding: 53 53 22
Width: 620
GlyphClass: 2
Flags: HMW
HStem: -7.99902 64.999 430 69.9971 628.997 69.002 639.996 60.0029
VStem: 101.501 73.999 109.501 67.999 448.5 80
LayerCount: 2
Fore
SplineSet
510.500976562 166 m 0xd6
 498.500976562 127.333007812 481.66796875 95.3330078125 460.000976562 70 c 0
 438.333984375 44.6669921875 413.500976562 25.333984375 385.500976562 12.0009765625 c 0
 358.16796875 -1.33203125 328.16796875 -7.9990234375 295.500976562 -7.9990234375 c 0
 270.16796875 -7.9990234375 246.500976562 -4.9990234375 224.500976562 1.0009765625 c 0
 201.16796875 7.0009765625 181.500976562 14.833984375 165.500976562 24.5009765625 c 0
 149.500976562 34.16796875 136.16796875 44.66796875 125.500976562 56.0009765625 c 0
 114.833984375 67.333984375 106.166992188 79.0009765625 99.5 91.0009765625 c 0
 94.1669921875 103.66796875 91.5 114.000976562 91.5 122.000976562 c 0
 91.5 133.333984375 97.1669921875 141.666992188 108.5 147 c 0
 119.833007812 152.333007812 127.833007812 155 132.5 155 c 0
 134.5 154.333007812 136.166992188 154 137.5 154 c 0
 141.5 154 145.5 152 149.5 148 c 0
 153.5 144 158.5 138 164.5 130 c 0
 197.166992188 81.3330078125 238.166992188 57 287.5 57 c 0
 335.5 57 373.833007812 78 402.5 120 c 0
 433.166992188 161.333007812 448.5 216.333007812 448.5 285 c 0
 448.5 328.333007812 438.5 363 418.5 389 c 0
 399.166992188 416.333007812 370.833984375 430 333.500976562 430 c 0
 317.500976562 430 300.833984375 428 283.500976562 424 c 0
 274.16796875 421.333007812 261.834960938 415.666015625 246.501953125 406.999023438 c 0
 242.501953125 404.999023438 237.334960938 401.166015625 231.001953125 395.499023438 c 0
 224.668945312 389.83203125 220.501953125 385.999023438 218.501953125 383.999023438 c 0
 208.501953125 374.666015625 200.168945312 366.666015625 193.501953125 359.999023438 c 0
 182.834960938 350.666015625 169.834960938 345.333007812 154.501953125 344 c 2
 150.501953125 344 l 2
 143.834960938 344 137.501953125 345.333007812 131.501953125 348 c 0
 122.834960938 351.333007812 116.16796875 359.666015625 111.500976562 372.999023438 c 0
 106.16796875 388.33203125 103.16796875 407.33203125 102.500976562 429.999023438 c 0
 101.833984375 440.666015625 101.500976562 450.999023438 101.500976562 460.999023438 c 0xda
 101.500976562 485.666015625 103.16796875 520.666015625 106.500976562 565.999023438 c 0
 108.500976562 590.666015625 109.500976562 607.999023438 109.500976562 617.999023438 c 2
 109.500976562 620.999023438 l 1
 107.500976562 622.999023438 l 2
 101.500976562 632.999023438 98.5009765625 644.999023438 98.5009765625 658.999023438 c 0
 98.5009765625 674.33203125 102.833984375 686.33203125 111.500976562 694.999023438 c 0
 116.833984375 700.33203125 122.833984375 702.999023438 129.500976562 702.999023438 c 0
 154.16796875 702.33203125 209.500976562 701.33203125 295.500976562 699.999023438 c 0xd6
 380.16796875 698.666015625 446.500976562 697.999023438 494.500976562 697.999023438 c 0
 499.16796875 697.999023438 503.500976562 695.666015625 507.500976562 690.999023438 c 0
 512.16796875 684.999023438 515.16796875 677.83203125 516.500976562 669.499023438 c 0
 517.833984375 661.166015625 518.166992188 653.666015625 517.5 646.999023438 c 0
 516.833007812 640.33203125 515 636.165039062 512 634.498046875 c 0
 509 632.831054688 506.666992188 631.6640625 505 630.997070312 c 0
 503.333007812 630.330078125 500.5 629.830078125 496.5 629.497070312 c 0
 492.5 629.1640625 489.666992188 628.997070312 488 628.997070312 c 0xe6
 486.333007812 628.997070312 482.666015625 629.1640625 476.999023438 629.497070312 c 0
 471.33203125 629.830078125 465.999023438 630.163085938 460.999023438 630.49609375 c 0
 455.999023438 630.829101562 441.499023438 631.99609375 417.499023438 633.99609375 c 0
 395.499023438 635.99609375 375.83203125 637.49609375 358.499023438 638.49609375 c 0
 341.166015625 639.49609375 317.333007812 639.99609375 287 639.99609375 c 0
 256.666992188 639.99609375 221.166992188 638.663085938 180.5 635.99609375 c 1
 179.833007812 623.329101562 178.833007812 600.99609375 177.5 568.99609375 c 0xd6
 176.166992188 536.99609375 175.5 516.663085938 175.5 507.99609375 c 0xda
 175.5 499.329101562 175.666992188 490.829101562 176 482.49609375 c 0
 176.333007812 474.163085938 176.833007812 451.330078125 177.5 413.997070312 c 1
 193.5 431.997070312 l 2
 210.833007812 451.330078125 233.333007812 467.497070312 261 480.497070312 c 0
 288.666992188 493.497070312 320.5 499.997070312 356.5 499.997070312 c 0
 382.5 499.997070312 406.166992188 494.6640625 427.5 483.997070312 c 0
 450.166992188 473.330078125 468.666992188 458.997070312 483 440.997070312 c 0
 497.333007812 422.997070312 508.5 401.497070312 516.5 376.497070312 c 0
 524.5 351.497070312 528.5 324.6640625 528.5 295.997070312 c 0
 528.5 247.997070312 522.500976562 204.666992188 510.500976562 166 c 0xd6
EndSplineSet
EndChar

StartChar: six
Encoding: 54 54 23
Width: 620
GlyphClass: 2
Flags: HMW
HStem: -13 64.998 401.999 69.999
VStem: 89.4995 69.999 452.499 78.002
LayerCount: 2
Fore
SplineSet
512.498046875 144 m 0
 500.498046875 112 484.331054688 84.5 463.998046875 61.5 c 0
 443.666015625 38.5 419.83203125 20.3330078125 392.499023438 7 c 0
 366.499023438 -6.3330078125 339.166015625 -13 310.499023438 -13 c 0
 274.499023438 -13 243.166015625 -5.3330078125 216.499023438 10 c 0
 187.166015625 25.3330078125 163.166015625 47.166015625 144.499023438 75.4990234375 c 0
 125.83203125 103.83203125 112 137.499023438 103 176.499023438 c 0
 94 215.499023438 89.5 258.666015625 89.5 305.999023438 c 0
 89.5 365.999023438 95.166015625 419.999023438 106.5 467.999023438 c 0
 117.166015625 512.666015625 131.666015625 550.333007812 149.999023438 581 c 0
 168.33203125 611.666992188 190.83203125 637.333984375 217.499023438 658.000976562 c 0
 242.166015625 679.333984375 268.833984375 695.333984375 297.5 706.000976562 c 0
 326.166992188 716.66796875 358.166992188 723.66796875 393.5 727.000976562 c 2
 399.5 727.000976562 l 2
 409.5 727.000976562 418.5 725.000976562 426.5 721.000976562 c 0
 434.5 717.000976562 439.166992188 710.333984375 440.5 701.000976562 c 2
 440.5 700.000976562 l 2
 440.5 695.333984375 437.5 689.666992188 431.5 683 c 0
 424.166992188 674.333007812 416.166992188 668.666015625 407.5 665.999023438 c 0
 400.833984375 663.999023438 390.5 661.499023438 376.5 658.499023438 c 0
 362.5 655.499023438 350.5 652.33203125 340.5 648.999023438 c 0
 330.5 645.666015625 318.833984375 640.999023438 305.5 634.999023438 c 0
 278.833984375 622.33203125 251.833984375 598.999023438 224.5 564.999023438 c 0
 209.833984375 546.33203125 196.166015625 521.665039062 183.499023438 490.998046875 c 0
 170.83203125 460.331054688 162.83203125 432.998046875 159.499023438 408.998046875 c 2
 155.499023438 375.998046875 l 1
 176.499023438 400.998046875 l 2
 196.499023438 424.331054688 221.166015625 441.998046875 250.499023438 453.998046875 c 0
 279.166015625 465.998046875 311.499023438 471.998046875 347.499023438 471.998046875 c 0
 374.166015625 471.331054688 398.166015625 466.998046875 419.499023438 458.998046875 c 0
 442.166015625 450.998046875 461.833984375 438.165039062 478.5 420.498046875 c 0
 495.166992188 402.831054688 508 379.498046875 517 350.498046875 c 0
 526 321.498046875 530.5 286.665039062 530.5 245.998046875 c 0
 530.5 209.998046875 524.498046875 176 512.498046875 144 c 0
161.5 228.998046875 m 0
 164.166992188 196.331054688 174.166992188 164.998046875 191.5 134.998046875 c 0
 200.166992188 118.998046875 210.166992188 104.998046875 221.5 92.998046875 c 0
 232.166992188 80.3310546875 245.166992188 70.3310546875 260.5 62.998046875 c 0
 275.833984375 55.6650390625 292.166015625 51.998046875 309.499023438 51.998046875 c 2
 311.499023438 51.998046875 l 2
 336.166015625 51.998046875 359.166015625 61.3310546875 380.499023438 79.998046875 c 0
 401.83203125 97.998046875 419.166015625 120.998046875 432.498046875 148.998046875 c 0
 445.831054688 176.998046875 452.498046875 205.331054688 452.498046875 233.998046875 c 0
 452.498046875 266.665039062 449.498046875 294.165039062 443.498046875 316.498046875 c 0
 437.498046875 338.831054688 428.166015625 356.331054688 415.498046875 368.998046875 c 0
 403.498046875 381.665039062 390.166015625 390.33203125 375.498046875 394.999023438 c 0
 360.831054688 399.666015625 343.498046875 401.999023438 323.498046875 401.999023438 c 0
 291.498046875 401.999023438 261.498046875 392.999023438 233.498046875 374.999023438 c 0
 204.831054688 356.999023438 180.831054688 333.999023438 161.498046875 305.999023438 c 1
 159.498046875 303.999023438 l 1
 159.498046875 300.999023438 l 2
 159.498046875 269.666015625 160.166992188 245.665039062 161.5 228.998046875 c 0
EndSplineSet
EndChar

StartChar: seven
Encoding: 55 55 24
Width: 620
GlyphClass: 2
Flags: HMW
HStem: -14 21G<157.168 162.502> 632.8 71.2011
LayerCount: 2
Fore
SplineSet
506.999023438 693.5 m 0
 512.666015625 691.166992188 517.833007812 687.333984375 522.5 682.000976562 c 0
 527.166992188 676.66796875 529.5 669.66796875 529.5 661.000976562 c 0
 529.5 652.333984375 526.833007812 641.666992188 521.5 629 c 0
 512.166992188 609 495.333984375 579 471.000976562 539 c 0
 446.66796875 499 421.834960938 457.666992188 396.501953125 415 c 0
 372.501953125 373 343.168945312 316.833007812 308.501953125 246.5 c 0
 273.834960938 176.166992188 241.16796875 104 210.500976562 30 c 0
 203.16796875 14 193.834960938 2.3330078125 182.501953125 -5 c 0
 174.501953125 -11 166.501953125 -14 158.501953125 -14 c 0
 155.834960938 -14 153.501953125 -13.6669921875 151.501953125 -13 c 0
 140.834960938 -10.3330078125 133.16796875 -3.8330078125 128.500976562 6.5 c 0
 126.458984375 11.0205078125 125.438476562 15.701171875 125.438476562 20.541015625 c 0
 125.438476562 26.763671875 127.125976562 33.25 130.500976562 40 c 0
 165.16796875 108 200.834960938 176 237.501953125 244 c 0
 272.834960938 312 302.001953125 366.166992188 325.001953125 406.5 c 0
 348.001953125 446.833007812 369.501953125 486.333007812 389.501953125 525 c 0
 410.168945312 563 424.501953125 594 432.501953125 618 c 2
 436.501953125 631 l 1
 399.302734375 632.200195312 362.463867188 632.799804688 325.984375 632.799804688 c 0
 301.6640625 632.799804688 277.502929688 632.533203125 253.501953125 632 c 0
 189.501953125 630 147.168945312 626.333007812 126.501953125 621 c 0
 124.501953125 620.333007812 122.168945312 620 119.501953125 620 c 0
 116.834960938 620 114.16796875 620.666992188 111.500976562 622 c 0
 106.833984375 623.333007812 103.166992188 626 100.5 630 c 0
 94.5 638.666992188 91.1669921875 648.666992188 90.5 660 c 0
 90.5 669.333007812 92.6669921875 676.833007812 97 682.5 c 0
 101.333007812 688.166992188 110.5 692.333984375 124.5 695.000976562 c 0
 159.833007812 701.000976562 215.833007812 704.000976562 292.5 704.000976562 c 0
 316.5 704.000976562 363.5 702.333984375 433.5 699.000976562 c 0
 468.833007812 697.66796875 487.833007812 697.000976562 490.5 697.000976562 c 0
 495.833007812 697.000976562 501.33203125 695.833007812 506.999023438 693.5 c 0
EndSplineSet
EndChar

StartChar: eight
Encoding: 56 56 25
Width: 620
GlyphClass: 2
Flags: HMW
HStem: -17.999 66.001 656.002 52.001
VStem: 83.5 66.9971 110.501 73.9971 422.5 70 462.498 74.002
LayerCount: 2
Fore
SplineSet
528.498046875 142.5 m 0xc4
 523.165039062 122.166992188 513.998046875 102.333984375 500.998046875 83.0009765625 c 0
 487.998046875 63.66796875 472.331054688 46.66796875 453.998046875 32.0009765625 c 0
 435.665039062 17.333984375 412.83203125 5.333984375 385.499023438 -3.9990234375 c 0
 359.499023438 -13.33203125 330.83203125 -17.9990234375 299.499023438 -17.9990234375 c 0
 268.166015625 -17.9990234375 240.499023438 -13.666015625 216.499023438 -4.9990234375 c 0
 191.166015625 3.66796875 170.499023438 15.0009765625 154.499023438 29.0009765625 c 0
 138.499023438 43.0009765625 124.83203125 59.5009765625 113.499023438 78.5009765625 c 0
 102.166015625 97.5009765625 94.3330078125 116.66796875 90 136.000976562 c 0
 85.6669921875 155.333984375 83.5 175.500976562 83.5 196.500976562 c 0xe4
 83.5 217.500976562 89 240.333984375 100 265.000976562 c 0
 111 289.66796875 126.833007812 312.66796875 147.5 334.000976562 c 0
 168.166992188 355.333984375 190.5 370.000976562 214.5 378.000976562 c 2
 236.5 386.000976562 l 1
 215.5 396.000976562 l 2
 182.166992188 412.000976562 156.333984375 432.66796875 138.000976562 458.000976562 c 0
 119.66796875 483.333984375 110.500976562 509.000976562 110.500976562 535.000976562 c 0
 110.500976562 542.333984375 111.000976562 550.333984375 112.000976562 559.000976562 c 0
 113.000976562 567.66796875 115.500976562 577.834960938 119.500976562 589.501953125 c 0
 123.500976562 601.168945312 128.333984375 612.3359375 134.000976562 623.002929688 c 0
 139.66796875 633.669921875 147.66796875 644.169921875 158.000976562 654.502929688 c 0
 168.333984375 664.8359375 180.166992188 674.002929688 193.5 682.002929688 c 0
 206.166992188 689.3359375 221.666992188 695.502929688 240 700.502929688 c 0
 258.333007812 705.502929688 278.833007812 708.002929688 301.5 708.002929688 c 0
 324.166992188 708.002929688 344.666992188 705.669921875 363 701.002929688 c 0
 381.333007812 696.3359375 396.833007812 690.002929688 409.5 682.002929688 c 0
 422.833007812 674.002929688 434.666015625 664.8359375 444.999023438 654.502929688 c 0
 455.33203125 644.169921875 463.33203125 633.669921875 468.999023438 623.002929688 c 0
 474.666015625 612.3359375 479.333007812 601.002929688 483 589.002929688 c 0
 486.666992188 577.002929688 489.166992188 566.502929688 490.5 557.502929688 c 0
 491.833007812 548.502929688 492.5 540.002929688 492.5 532.002929688 c 0xd8
 492.5 524.002929688 491.5 516.502929688 489.5 509.502929688 c 0
 487.5 502.502929688 485.166992188 496.169921875 482.5 490.502929688 c 0
 479.833007812 484.8359375 476 479.002929688 471 473.002929688 c 0
 466 467.002929688 461.166992188 461.669921875 456.5 457.002929688 c 0
 448.5 448.3359375 434.833007812 437.3359375 415.5 424.002929688 c 0
 407.5 418.002929688 394.5 408.3359375 376.5 395.002929688 c 1
 391.5 388.002929688 l 2
 414.166992188 378.002929688 434.5 366.502929688 452.5 353.502929688 c 0
 470.5 340.502929688 484.666992188 327.669921875 495 315.002929688 c 0
 505.333007812 302.3359375 513.833007812 289.168945312 520.5 275.501953125 c 0
 527.166992188 261.834960938 531.5 249.501953125 533.5 238.501953125 c 0
 535.5 227.501953125 536.5 216.001953125 536.5 204.001953125 c 0
 536.5 183.334960938 533.831054688 162.833007812 528.498046875 142.5 c 0xc4
217.5 472.001953125 m 0
 236.833007812 454.001953125 268.5 436.334960938 312.5 419.001953125 c 1
 315.5 417.001953125 l 1
 319.5 419.001953125 l 2
 345.5 430.334960938 368.833007812 446.334960938 389.5 467.001953125 c 0
 411.5 488.334960938 422.5 509.001953125 422.5 529.001953125 c 0
 422.5 549.001953125 417.166992188 568.668945312 406.5 588.001953125 c 0
 395.833007812 607.334960938 381.166015625 623.501953125 362.499023438 636.501953125 c 0
 343.83203125 649.501953125 323.83203125 656.001953125 302.499023438 656.001953125 c 2
 300.499023438 656.001953125 l 2
 269.83203125 655.334960938 243.165039062 643.001953125 220.498046875 619.001953125 c 0
 196.498046875 595.001953125 184.498046875 568.001953125 184.498046875 538.001953125 c 0xd8
 184.498046875 513.334960938 195.5 491.334960938 217.5 472.001953125 c 0
174.498046875 113.501953125 m 0
 190.498046875 91.8349609375 209.831054688 75.3349609375 232.498046875 64.001953125 c 0
 254.498046875 53.3349609375 278.165039062 48.001953125 303.498046875 48.001953125 c 0
 321.498046875 48.001953125 339.498046875 51.001953125 357.498046875 57.001953125 c 0
 375.498046875 63.001953125 392.165039062 71.6689453125 407.498046875 83.001953125 c 0
 423.498046875 95.001953125 436.665039062 110.168945312 446.998046875 128.501953125 c 0
 457.331054688 146.834960938 462.498046875 166.66796875 462.498046875 188.000976562 c 0
 462.498046875 200.000976562 461.665039062 211.16796875 459.998046875 221.500976562 c 0
 458.331054688 231.833984375 454.1640625 243.666992188 447.497070312 257 c 0
 440.830078125 270.333007812 431.830078125 282.666015625 420.497070312 293.999023438 c 0
 409.830078125 305.33203125 395.663085938 316.83203125 377.99609375 328.499023438 c 0
 360.329101562 340.166015625 338.49609375 351.333007812 312.49609375 362 c 1
 309.49609375 361 l 2
 264.163085938 347.666992188 226.830078125 324.666992188 197.497070312 292 c 0
 166.1640625 259.333007812 150.497070312 224 150.497070312 186 c 0xe4
 150.497070312 159.333007812 158.498046875 135.168945312 174.498046875 113.501953125 c 0
EndSplineSet
EndChar

StartChar: nine
Encoding: 57 57 26
Width: 620
GlyphClass: 2
Flags: HMW
HStem: -13 21G<192.501 197.501 197.501 205.501> 244.999 69 664.999 64.002
VStem: 89.5 78<464 497> 461.499 69.001
LayerCount: 2
Fore
SplineSet
511.5 238 m 0
 499.5 196 483.166992188 160.333007812 462.5 131 c 0
 441.833007812 101.666992188 417.5 76.6669921875 389.5 56 c 0
 362.833007812 35.3330078125 334.333007812 19.5 304 8.5 c 0
 273.666992188 -2.5 240.833984375 -9.6669921875 205.500976562 -13 c 2
 197.500976562 -13 l 2
 187.500976562 -13 178.333984375 -10.8330078125 170.000976562 -6.5 c 0
 161.66796875 -2.1669921875 156.834960938 4.3330078125 155.501953125 13 c 2
 155.501953125 14 l 2
 155.501953125 19.3330078125 158.501953125 25.3330078125 164.501953125 32 c 0
 171.834960938 40 180.16796875 45.3330078125 189.500976562 48 c 0
 196.833984375 50.6669921875 208.166992188 53.6669921875 223.5 57 c 0
 238.833007812 60.3330078125 252.5 63.666015625 264.5 66.9990234375 c 0
 276.5 70.33203125 290.166992188 75.1650390625 305.5 81.498046875 c 0
 320.833007812 87.8310546875 335.666015625 96.498046875 349.999023438 107.498046875 c 0
 364.33203125 118.498046875 377.83203125 131.665039062 390.499023438 146.998046875 c 0
 406.499023438 167.665039062 421.166015625 190.998046875 434.499023438 216.998046875 c 0
 447.83203125 242.998046875 456.83203125 266.998046875 461.499023438 288.998046875 c 2
 468.499023438 324.998046875 l 1
 444.499023438 296.998046875 l 2
 427.166015625 277.665039062 405.833007812 264.33203125 380.5 256.999023438 c 0
 355.833007812 248.999023438 324.166015625 244.999023438 285.499023438 244.999023438 c 0
 260.166015625 244.999023438 235.833007812 251.666015625 212.5 264.999023438 c 0
 187.833007812 277.666015625 166.5 294.833007812 148.5 316.5 c 0
 130.5 338.166992188 116.166992188 363.166992188 105.5 391.5 c 0
 94.8330078125 419.833007812 89.5 449 89.5 479 c 0
 89.5 515 95.5 548.666992188 107.5 580 c 0
 119.5 611.333007812 135.5 637.833007812 155.5 659.5 c 0
 175.5 681.166992188 199.166992188 698.333984375 226.5 711.000976562 c 0
 252.5 723.000976562 280.166992188 729.000976562 309.5 729.000976562 c 0
 380.833007812 729.000976562 435.5 699.66796875 473.5 641.000976562 c 0
 511.5 582.333984375 530.5 498.666992188 530.5 390 c 0
 530.5 333.333007812 524.166992188 282.666992188 511.5 238 c 0
205.5 359.999023438 m 0
 228.833007812 329.33203125 263.166015625 313.999023438 308.499023438 313.999023438 c 0
 336.499023438 313.999023438 363.83203125 320.999023438 390.499023438 334.999023438 c 0
 419.166015625 348.999023438 442.166015625 368.33203125 459.499023438 392.999023438 c 2
 461.499023438 395.999023438 l 1
 461.499023438 411.999023438 l 2
 461.499023438 430.666015625 460.499023438 455.666015625 458.499023438 486.999023438 c 2
 458.499023438 487.999023438 l 2
 455.166015625 520.666015625 445.166015625 551.999023438 428.499023438 581.999023438 c 0
 419.83203125 597.999023438 409.83203125 611.999023438 398.499023438 623.999023438 c 0
 387.83203125 635.999023438 374.83203125 645.83203125 359.499023438 653.499023438 c 0
 344.166015625 661.166015625 327.833007812 664.999023438 310.5 664.999023438 c 2
 308.5 664.999023438 l 2
 284.5 664.33203125 261.833007812 655.665039062 240.5 638.998046875 c 0
 219.166992188 622.331054688 201.666992188 600.6640625 188 573.997070312 c 0
 174.333007812 547.330078125 167.5 519.663085938 167.5 490.99609375 c 0
 167.5 434.329101562 180.166992188 390.666015625 205.5 359.999023438 c 0
EndSplineSet
EndChar

StartChar: colon
Encoding: 58 58 27
Width: 620
GlyphClass: 2
Flags: HMW
HStem: 49.001 136.124 317 135.143
VStem: 255.748 110.001
LayerCount: 2
Fore
SplineSet
313.750976562 317 m 2
 310.750976562 317 l 2
 294.750976562 317.666992188 282.083984375 320.666992188 272.750976562 326 c 0
 262.750976562 332 257.083984375 341.333007812 255.750976562 354 c 0
 255.083984375 365.333007812 254.750976562 377 254.750976562 389 c 0
 254.416992188 394.666015625 254.250976562 400.249023438 254.250976562 405.749023438 c 0
 254.250976562 411.249023438 254.416992188 416.666015625 254.750976562 422 c 0
 255.418945312 428.666992188 257.418945312 434 260.750976562 438 c 0
 264.083984375 442 268.416992188 445 273.750976562 447 c 0
 284.036132812 450.428710938 294.810546875 452.143554688 306.075195312 452.143554688 c 0
 307.954101562 452.143554688 309.844726562 452.095703125 311.750976562 452 c 0
 317.083007812 452 322.416015625 451.333007812 327.749023438 450 c 0
 341.749023438 447.333007812 351.416015625 442 356.749023438 434 c 0
 360.083007812 429.333007812 362.083007812 423.333007812 362.749023438 416 c 0
 363.416015625 412 363.749023438 408 363.749023438 404 c 0
 363.749023438 386.666992188 361.083007812 368.333984375 355.749023438 349.000976562 c 0
 353.083007812 338.333984375 347.415039062 330.333984375 338.748046875 325.000976562 c 0
 330.081054688 319.66796875 321.750976562 317 313.750976562 317 c 2
310.748046875 49.0009765625 m 0
 298.081054688 49.0009765625 285.748046875 53.0009765625 273.748046875 61.0009765625 c 0
 263.748046875 67.0009765625 258.081054688 75.333984375 256.748046875 86.0009765625 c 0
 256.081054688 104.000976562 255.748046875 114.000976562 255.748046875 116.000976562 c 0
 255.748046875 118.000976562 256.081054688 123.66796875 256.748046875 133.000976562 c 0
 257.415039062 142.333984375 258.083007812 149.666992188 258.749023438 155 c 0
 258.749023438 161 260.416015625 166 263.749023438 170 c 0
 266.416015625 174 270.416015625 177 275.749023438 179 c 0
 287.415039062 183.083007812 298.315429688 185.125 308.450195312 185.125 c 0
 309.899414062 185.125 311.331054688 185.083007812 312.748046875 185 c 0
 319.415039062 185 326.083007812 184 332.749023438 182 c 0
 340.083007812 180 346.749023438 176 352.749023438 170 c 0
 358.749023438 164 362.416015625 157 363.749023438 149 c 0
 365.083007812 140.333007812 365.749023438 132 365.749023438 124 c 0
 365.749023438 110 363.749023438 95.6669921875 359.749023438 81 c 0
 357.083007812 70.3330078125 350.415039062 62.3330078125 339.748046875 57 c 0
 329.748046875 51.6669921875 320.081054688 49.0009765625 310.748046875 49.0009765625 c 0
EndSplineSet
EndChar

StartChar: semicolon
Encoding: 59 59 28
Width: 620
GlyphClass: 2
Flags: HMW
HStem: 275.002 136.001
VStem: 283.834 109.666
LayerCount: 2
Fore
SplineSet
373.498046875 79.001953125 m 0
 373.498046875 62.3349609375 351.831054688 -25.33203125 308.498046875 -183.999023438 c 0
 305.165039062 -195.999023438 299.833007812 -204.33203125 292.499023438 -208.999023438 c 0
 285.166015625 -213.666015625 277.499023438 -215.999023438 269.499023438 -215.999023438 c 2
 267.499023438 -215.999023438 l 2
 256.166015625 -215.33203125 245.833007812 -211.665039062 236.500976562 -204.998046875 c 0
 229.833007812 -200.331054688 226.500976562 -193.6640625 226.500976562 -184.997070312 c 0
 226.500976562 -173.6640625 233.500976562 -133.331054688 247.500976562 -63.998046875 c 0
 260.166992188 -2.6650390625 270.500976562 44.3349609375 278.500976562 77.001953125 c 0
 280.500976562 85.6689453125 283.000976562 92.3359375 286.000976562 97.0029296875 c 0
 289.000976562 101.669921875 291.833007812 104.669921875 294.500976562 106.002929688 c 0
 301.166992188 108.669921875 307.500976562 110.002929688 313.500976562 110.002929688 c 0
 315.500976562 110.002929688 317.833007812 109.669921875 320.500976562 109.002929688 c 2
 321.500976562 109.002929688 l 2
 332.833007812 109.002929688 344.500976562 106.3359375 356.500976562 101.002929688 c 0
 362.500976562 98.3359375 367.166992188 94.6689453125 370.500976562 90.001953125 c 0
 372.500976562 87.3349609375 373.498046875 83.6689453125 373.498046875 79.001953125 c 0
341.500976562 275.001953125 m 2
 334.166992188 275.668945312 326.331054688 277.333984375 317.998046875 280.000976562 c 0
 309.665039062 282.66796875 302.333007812 286.834960938 295.999023438 292.501953125 c 0
 289.666015625 298.168945312 286.166015625 304.668945312 285.499023438 312.001953125 c 0
 284.833007812 323.334960938 284.333007812 334.834960938 283.999023438 346.501953125 c 0
 283.887695312 350.38671875 283.833007812 354.216796875 283.833007812 357.991210938 c 0
 283.833007812 365.55078125 284.055664062 372.887695312 284.500976562 380.002929688 c 0
 285.166992188 386.002929688 287.166992188 391.169921875 290.500976562 395.502929688 c 0
 293.833007812 399.8359375 298.500976562 403.002929688 304.500976562 405.002929688 c 0
 310.500976562 407.002929688 316.333007812 408.502929688 322.000976562 409.502929688 c 0
 327.666992188 410.502929688 332.000976562 411.002929688 335.000976562 411.002929688 c 2
 341.500976562 411.002929688 l 2
 352.833007812 410.3359375 363.498046875 407.668945312 373.498046875 403.001953125 c 0
 378.831054688 401.001953125 383.166015625 397.501953125 386.499023438 392.501953125 c 0
 389.833007812 387.501953125 391.833007812 381.668945312 392.499023438 375.001953125 c 0
 393.166015625 371.001953125 393.499023438 367.001953125 393.499023438 363.001953125 c 0
 393.499023438 345.001953125 390.833007812 326.334960938 385.499023438 307.001953125 c 0
 382.833007812 296.334960938 377.165039062 288.334960938 368.498046875 283.001953125 c 0
 359.831054688 277.668945312 351.498046875 275.001953125 343.498046875 275.001953125 c 2
 341.998046875 275.001953125 l 1
 341.500976562 275.001953125 l 2
EndSplineSet
EndChar

StartChar: less
Encoding: 60 60 29
Width: 620
GlyphClass: 2
Flags: HMW
HStem: 683 20G<497.167 504.501>
LayerCount: 2
Fore
SplineSet
538.5 648 m 0
 531.83203125 637.333007812 517.83203125 624.333007812 496.5 609 c 0
 459.166992188 583 402.5 540.333007812 326.5 481 c 0
 249.83203125 421 197.83203125 380.666992188 170.5 360 c 1
 181.5 353 l 2
 206.83203125 333 235.5 308.666992188 267.5 280 c 0
 299.5 251.333007812 327.5 225.666015625 351.5 202.999023438 c 0
 375.5 179.666015625 401.5 155.999023438 429.5 131.999023438 c 0
 458.166992188 107.999023438 482.833984375 89.33203125 503.5 75.9990234375 c 0
 524.833984375 61.9990234375 538.5 50.33203125 544.5 40.9990234375 c 0
 547.16796875 36.9990234375 548.5 32.666015625 548.5 27.9990234375 c 0
 548.5 25.9990234375 547.833984375 22.666015625 546.5 17.9990234375 c 0
 544.5 12.666015625 540.833984375 8.3330078125 535.5 5 c 0
 530.16796875 1.6669921875 522.5 -0.666015625 512.5 -1.9990234375 c 0
 509.833984375 -2.666015625 507.5 -2.9990234375 505.5 -2.9990234375 c 0
 496.833984375 -2.9990234375 487.166992188 -0.9990234375 476.5 3.0009765625 c 0
 459.83203125 8.333984375 439.83203125 19.6669921875 416.5 37 c 0
 392.5 54.3330078125 366.5 75.666015625 338.5 100.999023438 c 0
 310.5 126.33203125 282.5 151.999023438 254.5 177.999023438 c 0
 226.5 203.999023438 196.83203125 230.666015625 165.5 257.999023438 c 0
 134.166992188 285.33203125 107.5 306.999023438 85.5 322.999023438 c 0
 78.8330078125 328.33203125 74.5 335.665039062 72.5 344.998046875 c 0
 71.8330078125 349.665039062 71.5 354.33203125 71.5 358.999023438 c 0
 71.5 363.666015625 72.1669921875 368.333007812 73.5 373 c 0
 76.1669921875 381.666992188 80.5 388 86.5 392 c 0
 124.5 420 169.166992188 455.333007812 220.5 498 c 0
 271.83203125 540.666992188 318.5 579 360.5 613 c 0
 403.166992188 647 440.833984375 673.666992188 473.5 693 c 0
 483.5 699.666992188 492.833984375 703 501.5 703 c 0
 507.5 703 512.5 701.666992188 516.5 699 c 0
 527.833984375 693 535.833984375 684.666992188 540.5 674 c 0
 542.5 669.333007812 543.5 665 543.5 661 c 0
 542.833984375 657 541.166992188 652.666992188 538.5 648 c 0
EndSplineSet
EndChar

StartChar: equal
Encoding: 61 61 30
Width: 620
GlyphClass: 2
Flags: HMW
HStem: 256.909 63.091 452.907 66.0929
LayerCount: 2
Fore
SplineSet
163.499023438 519 m 2
 166.499023438 519 l 2
 204.499023438 517.666992188 243.499023438 517 283.499023438 517 c 0
 324.166015625 517 361.833007812 517.333007812 396.499023438 518 c 0
 431.166992188 518.666992188 452.166992188 519 459.499023438 519 c 0
 472.166992188 518.333007812 480.499023438 515.666015625 484.499023438 510.999023438 c 0
 489.166992188 506.33203125 491.833984375 499.665039062 492.500976562 490.998046875 c 0
 491.833984375 473.665039062 486.833984375 462.998046875 477.500976562 458.998046875 c 0
 474.833984375 457.665039062 471.833984375 456.998046875 468.500976562 456.998046875 c 2
 460.500976562 456.998046875 l 2
 445.166992188 457.665039062 431.166992188 457.998046875 418.500976562 457.998046875 c 2
 383.500976562 457.998046875 l 1
 273.500976562 454.998046875 l 2
 227.500976562 453.665039062 193.500976562 452.998046875 171.500976562 452.998046875 c 0
 170.166992188 452.9375 168.862304688 452.907226562 167.588867188 452.907226562 c 0
 154.862304688 452.907226562 145.166992188 455.9375 138.500976562 461.998046875 c 0
 131.166992188 467.998046875 127.500976562 475.331054688 127.500976562 483.998046875 c 2
 127.500976562 486.998046875 l 2
 128.166992188 495.665039062 131.166992188 502.998046875 136.500976562 508.998046875 c 0
 142.500976562 515.665039062 151.499023438 519 163.499023438 519 c 2
169.500976562 319.998046875 m 2
 190.833984375 319.331054688 216.166992188 318.998046875 245.499023438 318.998046875 c 0
 275.499023438 319.665039062 311.499023438 320.33203125 353.499023438 320.999023438 c 2
 459.499023438 322.999023438 l 2
 472.166992188 322.999023438 480.499023438 320.666015625 484.499023438 315.999023438 c 0
 489.166992188 310.666015625 491.833984375 303.666015625 492.500976562 294.999023438 c 0
 492.500976562 284.33203125 490.500976562 275.999023438 486.500976562 269.999023438 c 0
 483.833984375 266.666015625 480.833984375 264.333007812 477.500976562 263 c 0
 474.833984375 261.666992188 471.833984375 261 468.500976562 261 c 2
 460.500976562 261 l 2
 443.833984375 261.666992188 425.166992188 262 404.499023438 262 c 0
 383.833007812 262 339.166015625 261 270.499023438 259 c 0
 223.166015625 257.666992188 188.833007812 257 167.499023438 257 c 0
 166.225585938 256.939453125 164.986328125 256.909179688 163.779296875 256.909179688 c 0
 151.713867188 256.909179688 142.954101562 259.939453125 137.499023438 266 c 0
 130.833007812 272.666992188 127.499023438 280.666992188 127.499023438 290 c 2
 127.499023438 292 l 2
 128.166992188 300 131.499023438 306.666992188 137.499023438 312 c 0
 143.499023438 317.333007812 153.499023438 320 167.499023438 320 c 2
 169.500976562 319.998046875 l 2
EndSplineSet
EndChar

StartChar: greater
Encoding: 62 62 31
Width: 620
GlyphClass: 2
Flags: HMW
HStem: 690 20G<113.499 118.833>
LayerCount: 2
Fore
SplineSet
546.500976562 334 m 0
 543.833984375 325.333007812 539.500976562 319 533.500976562 315 c 0
 495.500976562 287 450.833984375 251.666992188 399.500976562 209 c 0
 348.16796875 166.333007812 301.500976562 128 259.500976562 94 c 0
 216.833984375 60.6669921875 179.166992188 34 146.5 14 c 0
 136.5 7.3330078125 126.833007812 4 117.5 4 c 0
 112.166992188 4 107.5 5.3330078125 103.5 8 c 0
 92.1669921875 14 84.1669921875 22.3330078125 79.5 33 c 0
 77.5 37.6669921875 76.5 42 76.5 46 c 0
 76.5 50 77.8330078125 54.3330078125 80.5 59 c 0
 87.1669921875 69.6669921875 101.5 82.6669921875 123.5 98 c 0
 160.833007812 124 217.5 166.666992188 293.5 226 c 0
 369.5 286 418.166992188 323.666992188 439.5 339 c 2
 449.5 347 l 1
 439.5 354 l 2
 413.5 374 384.5 398.333007812 352.5 427 c 0
 320.5 455.666992188 292.5 481.333984375 268.5 504.000976562 c 0
 244.5 527.333984375 218.5 551.000976562 190.5 575.000976562 c 0
 161.833007812 599.000976562 137.166015625 617.66796875 116.499023438 631.000976562 c 0
 95.166015625 645.000976562 81.4990234375 656.66796875 75.4990234375 666.000976562 c 0
 72.83203125 670.66796875 71.4990234375 675.334960938 71.4990234375 680.001953125 c 0
 71.4990234375 681.334960938 72.166015625 684.334960938 73.4990234375 689.001953125 c 0
 75.4990234375 694.334960938 79.166015625 698.66796875 84.4990234375 702.000976562 c 0
 89.83203125 705.333984375 97.4990234375 707.666992188 107.499023438 709 c 0
 110.166015625 709.666992188 112.499023438 710 114.499023438 710 c 0
 123.166015625 710 132.833007812 708 143.5 704 c 0
 159.5 698.666992188 179.5 687.333984375 203.5 670.000976562 c 0
 227.5 652.66796875 253.5 631.334960938 281.5 606.001953125 c 0
 309.5 580.668945312 337.5 555.001953125 365.5 529.001953125 c 0
 393.5 503.001953125 423.166992188 476.334960938 454.5 449.001953125 c 0
 485.166992188 421.668945312 511.833984375 400.001953125 534.500976562 384.001953125 c 0
 541.16796875 378.668945312 545.500976562 371.3359375 547.500976562 362.002929688 c 0
 548.16796875 357.3359375 548.500976562 352.668945312 548.500976562 348.001953125 c 0
 548.500976562 343.334960938 547.833984375 338.666992188 546.500976562 334 c 0
EndSplineSet
EndChar

StartChar: question
Encoding: 63 63 32
Width: 620
GlyphClass: 2
Flags: HMW
HStem: -4.00195 134.053 646.999 64.999
VStem: 216.549 143 427.549 80.001
LayerCount: 2
Fore
SplineSet
507.55078125 522 m 0
 507.55078125 505.333007812 504.8828125 490 499.55078125 476 c 0
 494.217773438 462.666992188 487.217773438 451 478.55078125 441 c 0
 469.8828125 431 459.8828125 421.333007812 448.55078125 412 c 0
 436.55078125 403.333007812 424.55078125 394.333007812 412.55078125 385 c 0
 400.55078125 375.666992188 388.8828125 365.666992188 377.55078125 355 c 0
 366.8828125 343.666992188 357.216796875 330.333984375 348.549804688 315.000976562 c 0
 339.8828125 299.66796875 334.21484375 282.66796875 331.548828125 264.000976562 c 0
 328.881835938 248.66796875 323.548828125 237.000976562 315.548828125 229.000976562 c 0
 310.881835938 225.000976562 304.548828125 223.000976562 296.548828125 223.000976562 c 0
 292.548828125 222.333984375 288.21484375 222.666992188 283.548828125 224 c 0
 268.21484375 228 258.21484375 235 253.548828125 245 c 0
 250.881835938 250.333007812 249.548828125 256.666015625 249.548828125 263.999023438 c 0
 249.548828125 271.999023438 250.548828125 280.666015625 252.548828125 289.999023438 c 0
 257.21484375 306.666015625 263.8828125 322.666015625 272.549804688 337.999023438 c 0
 281.216796875 353.33203125 290.549804688 366.33203125 300.549804688 376.999023438 c 0
 311.216796875 388.33203125 322.216796875 398.999023438 333.549804688 408.999023438 c 0
 344.8828125 418.999023438 355.8828125 428.666015625 366.549804688 437.999023438 c 0
 377.216796875 447.33203125 387.216796875 456.999023438 396.549804688 466.999023438 c 0
 405.216796875 476.999023438 412.549804688 487.999023438 418.549804688 499.999023438 c 0
 424.549804688 511.999023438 427.549804688 524.999023438 427.549804688 538.999023438 c 0
 427.549804688 576.999023438 416.216796875 604.666015625 393.549804688 621.999023438 c 0
 372.216796875 638.666015625 341.549804688 646.999023438 301.549804688 646.999023438 c 0
 290.8828125 646.999023438 280.21484375 644.666015625 269.548828125 639.999023438 c 0
 258.881835938 635.999023438 249.881835938 630.999023438 242.548828125 624.999023438 c 0
 235.21484375 618.999023438 227.548828125 611.33203125 219.548828125 601.999023438 c 0
 210.881835938 591.999023438 204.548828125 583.999023438 200.548828125 577.999023438 c 0
 196.548828125 571.999023438 191.548828125 564.666015625 185.548828125 555.999023438 c 0
 179.548828125 547.33203125 174.548828125 540.999023438 170.548828125 536.999023438 c 0
 166.548828125 533.666015625 162.548828125 531.666015625 158.548828125 530.999023438 c 2
 152.548828125 530.999023438 l 2
 150.548828125 530.999023438 147.881835938 531.33203125 144.548828125 531.999023438 c 0
 141.21484375 532.666015625 135.8828125 534.666015625 128.549804688 537.999023438 c 0
 120.549804688 542.666015625 115.549804688 548.999023438 113.548828125 556.999023438 c 0
 112.869140625 559.040039062 112.44921875 562.078125 112.44921875 566.469726562 c 0
 112.44921875 574.08984375 115.150390625 583.599609375 120.549804688 594.999023438 c 0
 135.216796875 622.33203125 156.216796875 647.665039062 183.549804688 670.998046875 c 0
 198.216796875 683.665039062 215.549804688 693.665039062 235.549804688 700.998046875 c 0
 255.549804688 708.331054688 276.216796875 711.998046875 297.549804688 711.998046875 c 0
 366.8828125 711.998046875 419.21484375 696.331054688 454.548828125 664.998046875 c 0
 489.881835938 633.665039062 507.55078125 586 507.55078125 522 c 0
288.548828125 -4.001953125 m 2
 279.549804688 -4.001953125 l 2
 278.63671875 -4.037109375 277.732421875 -4.0546875 276.8359375 -4.0546875 c 0
 260.71484375 -4.0546875 247.287109375 1.6298828125 236.55078125 12.998046875 c 0
 223.217773438 27.6650390625 216.55078125 44.6650390625 216.55078125 63.998046875 c 0
 216.55078125 81.3310546875 223.8828125 96.3310546875 238.55078125 108.998046875 c 0
 254.55078125 122.998046875 273.217773438 129.998046875 294.55078125 129.998046875 c 0
 295.498046875 130.033203125 296.4375 130.05078125 297.3671875 130.05078125 c 0
 314.12109375 130.05078125 328.181640625 124.366210938 339.549804688 112.998046875 c 0
 352.8828125 100.331054688 359.549804688 84.6640625 359.549804688 65.9970703125 c 0
 359.549804688 47.330078125 353.216796875 31.6630859375 340.549804688 18.99609375 c 0
 327.216796875 6.3291015625 309.881835938 -1.3349609375 288.548828125 -4.001953125 c 2
EndSplineSet
EndChar

StartChar: at
Encoding: 64 64 33
Width: 620
GlyphClass: 2
Flags: HMW
HStem: -120 66.0049 111.004 59 127.005 61.002 391.008 56.998 623.005 69.9971
VStem: 61.4985 67.0049 184.501 58.0029 366.504 61.001 504.505 53.9971
LayerCount: 2
Fore
SplineSet
508.5 9 m 0xdf80
 505.166992188 -0.3330078125 501.5 -8.3330078125 497.5 -15 c 0
 494.166992188 -22.3330078125 489.5 -30.666015625 483.5 -39.9990234375 c 0
 477.5 -49.9990234375 471.166992188 -58.33203125 464.5 -64.9990234375 c 0
 457.83203125 -71.666015625 449.166015625 -78.666015625 438.499023438 -85.9990234375 c 0
 428.499023438 -93.33203125 417.166015625 -99.33203125 404.499023438 -103.999023438 c 0
 391.83203125 -108.666015625 377.1640625 -112.333007812 360.498046875 -115 c 0
 343.831054688 -118.333007812 326.498046875 -120 308.498046875 -120 c 2
 302.498046875 -120 l 2
 269.1640625 -120 237.83203125 -111.666992188 208.499023438 -95 c 0
 178.499023438 -78.3330078125 152.83203125 -55 131.499023438 -25 c 0
 110.166015625 5 93.166015625 41.6669921875 80.498046875 85 c 0
 67.83203125 129 61.498046875 176.666992188 61.498046875 228 c 0
 62.166015625 286 66.83203125 340 75.5 390 c 0
 84.83203125 440.666992188 97.5 484.333984375 113.5 521.000976562 c 0
 129.5 557.66796875 148.5 589.000976562 170.5 615.000976562 c 0
 191.83203125 641.66796875 215.5 661.334960938 241.5 674.001953125 c 0
 267.5 686.668945312 294.83203125 693.001953125 323.5 693.001953125 c 0
 345.5 693.001953125 365.166992188 691.334960938 382.5 688.001953125 c 0
 400.5 684.668945312 417.5 679.001953125 433.5 671.001953125 c 0
 449.5 663.001953125 463.5 652.334960938 475.5 639.001953125 c 0
 488.166992188 625.668945312 499.833984375 609.001953125 510.5 589.001953125 c 0
 521.16796875 569.001953125 529.834960938 545.334960938 536.501953125 518.001953125 c 0
 551.16796875 458.668945312 558.501953125 383.3359375 558.501953125 292.002929688 c 0
 557.834960938 244.669921875 550.834960938 203.336914062 537.501953125 168.00390625 c 0
 530.834960938 150.00390625 521.501953125 136.00390625 509.501953125 126.00390625 c 0
 498.16796875 116.00390625 484.501953125 111.00390625 468.501953125 111.00390625 c 0xdf80
 445.16796875 111.670898438 427.501953125 119.337890625 415.501953125 134.004882812 c 0
 405.501953125 146.004882812 399.16796875 163.671875 396.501953125 187.004882812 c 2
 392.501953125 232.004882812 l 1
 377.501953125 189.00390625 l 2
 370.834960938 170.336914062 362.16796875 156.004882812 351.5 146.004882812 c 0
 338.833984375 133.337890625 321.833984375 127.004882812 300.5 127.004882812 c 0
 263.833984375 127.671875 235.5 139.338867188 215.5 162.005859375 c 0
 194.833984375 184.672851562 184.5 220.005859375 184.5 268.005859375 c 0
 184.5 292.005859375 187.16796875 314.338867188 192.5 335.005859375 c 0
 197.833984375 355.672851562 205.166992188 373.005859375 214.5 387.005859375 c 0
 223.83203125 400.338867188 234.5 412.005859375 246.5 422.005859375 c 0
 259.166992188 432.005859375 271.833984375 439.005859375 284.5 443.005859375 c 0
 297.16796875 446.338867188 309.834960938 448.005859375 322.501953125 448.005859375 c 0
 340.501953125 448.005859375 357.834960938 444.672851562 374.501953125 438.005859375 c 0
 388.501953125 432.672851562 399.501953125 425.672851562 407.501953125 417.005859375 c 0
 412.16796875 411.672851562 414.501953125 407.33984375 414.501953125 404.006835938 c 0
 414.501953125 402.673828125 414.16796875 401.340820312 413.501953125 400.0078125 c 0
 409.501953125 392.0078125 404.501953125 387.0078125 398.501953125 385.0078125 c 0
 391.834960938 383.0078125 386.834960938 382.0078125 383.501953125 382.0078125 c 0
 378.16796875 382.674804688 370.8359375 384.0078125 361.502929688 386.0078125 c 2
 346.502929688 389.0078125 l 2
 340.502929688 390.340820312 334.8359375 391.0078125 329.502929688 391.0078125 c 2
 317.502929688 391.0078125 l 2
 308.169921875 390.340820312 298.8359375 387.0078125 289.50390625 381.0078125 c 0
 280.170898438 375.0078125 272.170898438 367.674804688 265.50390625 359.0078125 c 0
 258.170898438 351.0078125 252.50390625 340.005859375 248.50390625 326.005859375 c 0
 244.50390625 312.005859375 242.50390625 296.674804688 242.50390625 280.0078125 c 0
 242.50390625 271.340820312 243.170898438 262.673828125 244.50390625 254.006835938 c 0
 245.170898438 246.006835938 247.170898438 236.670898438 250.50390625 226.00390625 c 0
 253.8359375 215.336914062 259.50390625 206.33984375 267.50390625 199.006835938 c 0
 275.50390625 191.673828125 285.50390625 188.006835938 297.50390625 188.006835938 c 0xbf80
 322.170898438 188.006835938 339.837890625 198.006835938 350.50390625 218.006835938 c 0
 359.837890625 235.33984375 365.170898438 263.672851562 366.50390625 303.005859375 c 0
 367.170898438 309.672851562 373.837890625 315.672851562 386.50390625 321.005859375 c 0
 396.50390625 324.338867188 405.171875 326.005859375 412.50390625 326.005859375 c 0
 417.171875 326.005859375 421.502929688 325.338867188 425.502929688 324.005859375 c 0
 429.502929688 322.005859375 431.50390625 319.672851562 431.50390625 317.005859375 c 2
 431.50390625 315.005859375 l 2
 428.837890625 290.338867188 427.50390625 269.671875 427.50390625 253.004882812 c 0
 427.50390625 244.337890625 427.837890625 236.670898438 428.50390625 230.00390625 c 0
 431.171875 208.670898438 435.171875 193.670898438 440.50390625 185.00390625 c 0
 447.171875 175.00390625 456.501953125 170.00390625 468.501953125 170.00390625 c 0
 478.501953125 170.00390625 486.171875 176.336914062 491.50390625 189.00390625 c 0
 495.50390625 199.00390625 498.50390625 211.336914062 500.50390625 226.00390625 c 0
 503.171875 250.670898438 504.50390625 273.670898438 504.50390625 295.00390625 c 0
 504.50390625 329.670898438 503.171875 361.333007812 500.50390625 390 c 0
 497.171875 419.333007812 493.170898438 444.337890625 488.50390625 465.004882812 c 0
 483.8359375 486.337890625 477.8359375 505.337890625 470.50390625 522.004882812 c 0
 463.170898438 539.337890625 455.838867188 553.337890625 448.505859375 564.004882812 c 0
 441.171875 574.671875 432.505859375 584.004882812 422.505859375 592.004882812 c 0
 412.505859375 599.337890625 403.834960938 605.004882812 396.501953125 609.004882812 c 0
 389.16796875 613.671875 380.505859375 617.004882812 370.505859375 619.004882812 c 0
 360.505859375 621.004882812 353.171875 622.004882812 348.505859375 622.004882812 c 0
 343.838867188 622.671875 338.171875 623.004882812 331.50390625 623.004882812 c 0
 302.837890625 622.337890625 276.170898438 613.337890625 251.50390625 596.004882812 c 0
 226.8359375 578.671875 205.50390625 554.671875 187.50390625 524.004882812 c 0
 169.50390625 492.671875 155.170898438 454.671875 144.50390625 410.004882812 c 0
 133.8359375 365.337890625 128.50390625 316.670898438 128.50390625 264.00390625 c 0
 129.170898438 218.00390625 132.837890625 176.670898438 139.50390625 140.00390625 c 0
 146.837890625 102.670898438 156.170898438 72.337890625 167.50390625 49.0048828125 c 0
 178.8359375 25.671875 192.499023438 6.0048828125 208.499023438 -9.9951171875 c 0
 223.83203125 -25.9951171875 239.8359375 -37.328125 256.50390625 -43.9951171875 c 0
 273.170898438 -50.662109375 290.498046875 -53.9951171875 308.498046875 -53.9951171875 c 0
 325.831054688 -53.9951171875 342.169921875 -52.328125 357.502929688 -48.9951171875 c 0
 372.8359375 -45.662109375 385.502929688 -41.3291015625 395.502929688 -35.99609375 c 0
 406.169921875 -30.6630859375 416.169921875 -23.6669921875 425.502929688 -15 c 0
 434.169921875 -7 441.169921875 0.6708984375 446.502929688 8.00390625 c 0
 451.169921875 15.3369140625 456.8359375 24.3369140625 463.50390625 35.00390625 c 0
 466.170898438 39.6708984375 468.50390625 43.337890625 470.50390625 46.0048828125 c 0
 472.50390625 48.0048828125 474.50390625 50.671875 476.50390625 54.0048828125 c 0
 479.170898438 57.337890625 481.170898438 59.6708984375 482.50390625 61.00390625 c 2
 488.50390625 64.00390625 l 2
 491.170898438 66.00390625 494.837890625 66.00390625 499.50390625 64.00390625 c 0
 506.837890625 61.3369140625 511.837890625 57.00390625 514.50390625 51.00390625 c 0
 515.837890625 48.3369140625 516.50390625 45.669921875 516.50390625 43.0029296875 c 0
 516.50390625 34.3359375 513.83203125 23 508.5 9 c 0xdf80
EndSplineSet
EndChar

StartChar: A
Encoding: 65 65 34
Width: 620
GlyphClass: 2
Flags: HMW
HStem: 271 50.998
VStem: 62.4985 72.001
LayerCount: 2
Fore
SplineSet
345.5 606.997070312 m 2
 318.16796875 561.6640625 279.16796875 466.331054688 228.5 320.998046875 c 2
 223.5 305.998046875 l 1
 237.5 307.998046875 l 2
 300.16796875 315.998046875 355.834960938 320.665039062 404.501953125 321.998046875 c 2
 415.501953125 321.998046875 l 1
 357.501953125 626.998046875 l 1
 345.5 606.997070312 l 2
477.5 53.9990234375 m 0
 469.5 74.666015625 452.5 147 426.5 271 c 0
 424.5 277.666992188 422.166992188 277.666992188 419.5 271 c 1
 340.166992188 267 267.166992188 259.33203125 200.5 247.999023438 c 1
 178.5 189.33203125 156.5 124.333007812 134.5 53 c 0
 129.166992188 35 121.5 23.330078125 111.5 17.9970703125 c 0
 106.166015625 15.330078125 101.166015625 13.9970703125 96.5 13.9970703125 c 0
 91.83203125 13.9970703125 87.166015625 14.9970703125 82.498046875 16.9970703125 c 0
 69.166015625 22.330078125 62.498046875 34.3330078125 62.498046875 53 c 0
 62.498046875 61 63.83203125 70.3330078125 66.498046875 81 c 0
 71.166015625 104.333007812 91.166015625 158.666015625 126.499023438 243.999023438 c 1
 123.83203125 251.999023438 121.499023438 253.33203125 119.499023438 247.999023438 c 1
 110.83203125 253.999023438 106.498046875 260.999023438 106.498046875 268.999023438 c 2
 106.498046875 269.999023438 l 2
 105.83203125 275.999023438 108.83203125 281.999023438 115.499023438 287.999023438 c 0
 124.166015625 295.33203125 134.83203125 300.999023438 147.5 304.999023438 c 1
 148.83203125 311.666015625 150.166015625 311.998046875 151.499023438 305.998046875 c 1
 230.166015625 499.331054688 289.83203125 627.665039062 330.5 690.998046875 c 0
 339.166992188 703.665039062 346.333984375 712.498046875 352 717.498046875 c 0
 357.66796875 722.498046875 363.834960938 724.998046875 370.501953125 724.998046875 c 2
 371.501953125 724.998046875 l 1
 377.501953125 724.998046875 l 2
 384.834960938 724.998046875 391.834960938 722.998046875 398.501953125 718.998046875 c 0
 405.16796875 714.998046875 409.501953125 706.998046875 411.501953125 694.998046875 c 0
 424.834960938 612.331054688 447.834960938 494.998046875 480.501953125 342.998046875 c 0
 513.16796875 190.331054688 536.16796875 102.331054688 549.501953125 78.998046875 c 0
 554.834960938 69.6650390625 557.501953125 61.33203125 557.501953125 53.9990234375 c 0
 556.834960938 53.33203125 556.501953125 52.33203125 556.501953125 50.9990234375 c 0
 555.834960938 42.33203125 553.334960938 35.1650390625 549.001953125 29.498046875 c 0
 544.66796875 23.8310546875 539.501953125 19.6640625 533.501953125 16.9970703125 c 0
 528.834960938 14.9970703125 524.16796875 13.9970703125 519.5 13.9970703125 c 0
 514.16796875 13.9970703125 508.834960938 15.330078125 503.501953125 17.9970703125 c 0
 492.834960938 23.330078125 484.166992188 35.33203125 477.5 53.9990234375 c 0
EndSplineSet
EndChar

StartChar: B
Encoding: 66 66 35
Width: 620
GlyphClass: 2
Flags: HMW
HStem: -20.3672 79.3672 307 51.999 640.002 49.998
VStem: 86.5 77.7998 90.5 82.999 421.5 72.001 455.502 79.998
LayerCount: 2
Fore
SplineSet
407.497070312 260.001953125 m 0xea
 393.497070312 269.334960938 374.330078125 278.16796875 349.997070312 286.500976562 c 0
 325.6640625 294.833984375 297.831054688 301.666992188 266.498046875 307 c 1
 265.498046875 307 l 2
 220.165039062 307 186.83203125 306.666992188 165.499023438 306 c 1
 168.83203125 192 171.499023438 109 173.499023438 57 c 1
 186.83203125 58.3330078125 201.499023438 59 217.499023438 59 c 0
 233.499023438 59.6669921875 245.499023438 60 253.499023438 60 c 0
 282.166015625 61.3330078125 309.333007812 66.666015625 335 75.9990234375 c 0
 360.666992188 85.33203125 381.833984375 96.9990234375 398.500976562 110.999023438 c 0
 415.16796875 124.33203125 428.834960938 138.83203125 439.501953125 154.499023438 c 0
 450.168945312 170.166015625 455.501953125 184.999023438 455.501953125 198.999023438 c 0
 455.501953125 219.666015625 439.497070312 240.001953125 407.497070312 260.001953125 c 0xea
176.5 626.999023438 m 2
 169.5 624.999023438 l 1
 169.5 607.666015625 168.833007812 584.999023438 167.5 556.999023438 c 0
 165.366210938 503.668945312 164.299804688 451.40625 164.299804688 400.209960938 c 0
 164.299804688 387.40625 164.366210938 374.668945312 164.5 361.999023438 c 1
 200.5 359.999023438 231.5 358.999023438 257.5 358.999023438 c 0
 276.833007812 358.999023438 294.333007812 360.83203125 310 364.499023438 c 0
 325.666992188 368.166015625 339.166992188 372.833007812 350.5 378.5 c 0
 361.833007812 384.166992188 371.833007812 391.166992188 380.5 399.5 c 0
 389.166992188 407.833007812 395.833007812 416.333007812 400.5 425 c 0
 405.166992188 433.666992188 409.16796875 443 412.500976562 453 c 0
 415.833984375 463 418.166992188 472.333007812 419.5 481 c 0
 420.833007812 489.666992188 421.5 498.333984375 421.5 507.000976562 c 0xf4
 420.833007812 525.66796875 417.166015625 543.000976562 410.499023438 559.000976562 c 0
 403.83203125 575.000976562 395.165039062 587.833984375 384.498046875 597.500976562 c 0
 373.831054688 607.16796875 362.1640625 615.334960938 349.497070312 622.001953125 c 0
 326.830078125 634.001953125 302.830078125 640.001953125 277.497070312 640.001953125 c 0
 243.497070312 640.001953125 209.833007812 635.666015625 176.5 626.999023438 c 2
517.001953125 130 m 0
 504.668945312 106.666992188 486.666015625 84.833984375 462.999023438 64.5009765625 c 0
 439.33203125 44.16796875 410.166992188 27.0009765625 375.5 13.0009765625 c 0
 341.5 -0.9990234375 303.833007812 -9.9990234375 262.5 -13.9990234375 c 1
 242.81640625 -20.3671875 l 2
 238.044921875 -20.3671875 233.2734375 -19.244140625 228.501953125 -16.9990234375 c 2
 209.974609375 -23.3671875 l 2
 205.483398438 -23.3671875 200.9921875 -22.244140625 196.500976562 -19.9990234375 c 0
 176.500976562 -21.9990234375 160.833984375 -22.9990234375 149.500976562 -22.9990234375 c 0
 142.16796875 -22.9990234375 135.16796875 -22.33203125 128.500976562 -20.9990234375 c 2
 124.500976562 -20.9990234375 l 2
 113.833984375 -21.666015625 105.166992188 -18.3330078125 98.5 -11 c 0
 93.1669921875 -5 90.5 3.3330078125 90.5 14 c 2
 90.5 19 l 2xea
 91.8330078125 39.6669921875 92.5 74.333984375 92.5 123.000976562 c 0
 92.5 213.66796875 90.5 314.000976562 86.5 424.000976562 c 0
 85.1669921875 468.66796875 84.5 498.500976562 84.5 513.500976562 c 0
 84.5 528.500976562 85.1669921875 549.000976562 86.5 575.000976562 c 0
 87.8330078125 601.000976562 88.5 619.000976562 88.5 629.000976562 c 0
 89.1669921875 644.333984375 93.333984375 655.666992188 101.000976562 663 c 0
 108.66796875 670.333007812 117.833984375 674 128.500976562 674 c 2
 132.501953125 674 l 1
 133.501953125 674 l 2
 144.834960938 677.333007812 156.166992188 680 167.5 682 c 0
 189.5 686 209.500976562 688.333007812 227.500976562 689 c 0
 237.500976562 689.666992188 245.16796875 690 250.500976562 690 c 2
 269.500976562 690 l 1
 279.500976562 690 l 2
 319.500976562 690 354.833984375 682 385.500976562 666 c 0
 417.500976562 650 443.500976562 626.833007812 463.500976562 596.5 c 0
 483.500976562 566.166992188 493.500976562 530 493.500976562 488 c 0xf4
 493.500976562 452.666992188 485.16796875 422.333984375 468.500976562 397.000976562 c 0
 451.833984375 371.66796875 429.166992188 353.000976562 400.5 341.000976562 c 1
 392.5 331.000976562 384.833007812 327.66796875 377.5 331.000976562 c 1
 385.5 321.000976562 393.166992188 318.000976562 400.5 322.000976562 c 1
 421.166992188 314.66796875 442 304.16796875 463 290.500976562 c 0
 484 276.833984375 501.333007812 261.666992188 515 245 c 0
 528.666992188 228.333007812 535.5 213.666015625 535.5 200.999023438 c 2
 535.5 198.999023438 l 2xe2
 535.5 176.33203125 529.334960938 153.333007812 517.001953125 130 c 0
EndSplineSet
EndChar

StartChar: C
Encoding: 67 67 36
Width: 620
GlyphClass: 2
Flags: HMW
HStem: -30.999 72.001 650.002 62.999
VStem: 71.999 80.999 465 83.001
LayerCount: 2
Fore
SplineSet
535 553.5 m 0
 526.333007812 541.166992188 518 534.333984375 510 533.000976562 c 2
 504 533.000976562 l 2
 496 533.000976562 487.666992188 535.66796875 479 541.000976562 c 0
 469.666992188 547.66796875 465 556.334960938 465 567.001953125 c 0
 465 572.334960938 465.666992188 588.334960938 467 615.001953125 c 1
 451.666992188 625.668945312 442.666992188 632.001953125 440 634.001953125 c 0
 437.333007812 636.001953125 433.333007812 638.334960938 428 641.001953125 c 0
 418 647.001953125 407.666992188 650.001953125 397 650.001953125 c 0
 376.333007812 650.001953125 354.5 642.668945312 331.5 628.001953125 c 0
 308.5 613.334960938 286.666992188 593.001953125 266 567.001953125 c 0
 245.333007812 541.001953125 226.666015625 511.334960938 209.999023438 478.001953125 c 0
 193.33203125 444.001953125 179.665039062 406.001953125 168.998046875 364.001953125 c 0
 158.331054688 322.001953125 152.998046875 279.668945312 152.998046875 237.001953125 c 0
 152.998046875 205.001953125 158.998046875 174.168945312 170.998046875 144.501953125 c 0
 182.998046875 114.834960938 199.665039062 90.001953125 220.998046875 70.001953125 c 0
 241.665039062 50.6689453125 264.665039062 41.001953125 289.998046875 41.001953125 c 0
 310.665039062 41.001953125 330.665039062 43.3349609375 349.998046875 48.001953125 c 0
 369.331054688 52.6689453125 386.831054688 58.8359375 402.498046875 66.5029296875 c 0
 418.165039062 74.169921875 431.998046875 81.669921875 443.998046875 89.0029296875 c 0
 455.331054688 96.3359375 466.331054688 104.3359375 476.998046875 113.002929688 c 0
 484.998046875 118.3359375 491.831054688 122.3359375 497.498046875 125.002929688 c 0
 503.165039062 127.669921875 508.998046875 129.002929688 514.998046875 129.002929688 c 0
 520.331054688 129.002929688 525.331054688 127.3359375 529.998046875 124.002929688 c 0
 538.665039062 117.3359375 542.998046875 109.668945312 542.998046875 101.001953125 c 0
 542.998046875 90.3349609375 536.665039062 77.66796875 523.998046875 63.0009765625 c 0
 469.998046875 0.333984375 390.998046875 -30.9990234375 286.998046875 -30.9990234375 c 2
 278.998046875 -30.9990234375 l 2
 254.998046875 -30.9990234375 232.331054688 -26.666015625 210.998046875 -17.9990234375 c 0
 188.998046875 -8.666015625 169.665039062 3.6669921875 152.998046875 19 c 0
 136.331054688 34.3330078125 121.831054688 52 109.498046875 72 c 0
 97.1650390625 92 87.83203125 113.333007812 81.4990234375 136 c 0
 75.166015625 158.666992188 71.9990234375 181.333984375 71.9990234375 204.000976562 c 0
 71.9990234375 252.66796875 76.9990234375 300.16796875 86.9990234375 346.500976562 c 0
 96.9990234375 392.833984375 110.33203125 434.333984375 126.999023438 471.000976562 c 0
 143.666015625 507.66796875 163.333007812 541.334960938 186 572.001953125 c 0
 206.666992188 603.334960938 228.5 629.16796875 251.5 649.500976562 c 0
 274.5 669.833984375 297.833007812 685.500976562 321.5 696.500976562 c 0
 345.166992188 707.500976562 368 713.000976562 390 713.000976562 c 0
 412 713.000976562 432.666992188 710.333984375 452 705.000976562 c 1
 454.666992188 710.333984375 457.666992188 709.333984375 461 702.000976562 c 1
 462.333007812 712.000976562 463.333007812 715.333984375 464 712.000976562 c 1
 466 720.000976562 470 726.66796875 476 732.000976562 c 0
 482 736.66796875 488.666992188 739.334960938 496 740.001953125 c 0
 499.333007812 740.668945312 501.333007812 741.001953125 502 741.001953125 c 0
 508.666992188 741.001953125 515.666992188 738.668945312 523 734.001953125 c 0
 531.666992188 728.668945312 537.333984375 720.3359375 540.000976562 709.002929688 c 0
 545.333984375 683.669921875 548.000976562 656.668945312 548.000976562 628.001953125 c 2
 548.000976562 591.002929688 l 2
 548.000976562 578.3359375 543.666992188 565.833007812 535 553.5 c 0
EndSplineSet
EndChar

StartChar: D
Encoding: 68 68 37
Width: 620
GlyphClass: 2
Flags: HMW
HStem: -31 75.999 675 20G<106.834 123.167>
VStem: 69.5014 77.7113 473.503 76.9953
LayerCount: 2
Fore
SplineSet
324.498046875 551 m 0
 290.498046875 574.333007812 241.498046875 598.666015625 177.498046875 623.999023438 c 1
 176.498046875 624.999023438 l 1
 175.498046875 624.999023438 l 1
 174.498046875 625.999023438 l 1
 173.498046875 625.999023438 l 1
 172.498046875 625.999023438 l 1
 172.498046875 626.999023438 l 1
 171.498046875 626.999023438 l 1
 170.498046875 626.999023438 l 1
 169.498046875 626.999023438 l 1
 169.498046875 627.999023438 l 1
 168.498046875 627.999023438 l 1
 167.498046875 627.999023438 l 1
 166.498046875 627.999023438 l 1
 166.498046875 628.999023438 l 1
 165.498046875 628.999023438 l 1
 164.498046875 628.999023438 l 1
 163.49609375 629.999023438 l 1
 162.498046875 629.999023438 l 1
 149.498046875 643.999023438 l 1
 148.498046875 620.999023438 l 2
 147.640625 583.283203125 147.212890625 546.118164062 147.212890625 509.50390625 c 0
 147.212890625 460.689453125 147.974609375 412.854492188 149.498046875 365.999023438 c 0
 150.831054688 324.666015625 152.1640625 275.166015625 153.498046875 217.499023438 c 0
 154.830078125 159.83203125 156.163085938 114.33203125 157.49609375 80.9990234375 c 1
 163.49609375 78.9990234375 l 2
 190.830078125 66.33203125 218.49609375 57.4990234375 246.49609375 52.4990234375 c 0
 274.49609375 47.4990234375 306.49609375 44.9990234375 342.49609375 44.9990234375 c 0
 361.830078125 44.9990234375 379.830078125 51.83203125 396.49609375 65.4990234375 c 0
 413.163085938 79.166015625 426.830078125 96.3330078125 437.498046875 117 c 0
 448.830078125 137.666992188 457.663085938 160.166992188 463.99609375 184.5 c 0
 473.458984375 220.85546875 473.502929688 247.245117188 473.502929688 258.552734375 c 0
 473.502929688 385.967773438 423.8359375 483.450195312 324.498046875 551 c 0
541.501953125 152.5 m 0
 535.501953125 128.833007812 526.169921875 106 513.501953125 84 c 0
 500.834960938 62 486.16796875 42.5 469.501953125 25.5 c 0
 452.833984375 8.5 433.501953125 -5.3330078125 411.501953125 -16 c 0
 390.16796875 -26 367.501953125 -31 343.501953125 -31 c 2
 334.501953125 -31 l 2
 307.16796875 -31 279.66796875 -29.6669921875 252.001953125 -27 c 0
 224.333984375 -24.3330078125 201.833984375 -21 184.501953125 -17 c 0
 166.501953125 -12.3330078125 150.333984375 -8.3330078125 136.001953125 -5 c 0
 121.66796875 -1.6669921875 112.8359375 0 109.501953125 0 c 0
 98.8359375 0 90.16796875 3.3330078125 83.501953125 10 c 0
 77.501953125 16 74.501953125 24.3330078125 74.501953125 35 c 2
 74.501953125 41 l 2
 76.501953125 65 77.501953125 102.333007812 77.501953125 153 c 0
 76.833984375 243.666992188 74.501953125 351.666992188 70.501953125 477 c 0
 69.833984375 514.333007812 69.501953125 538.833007812 69.501953125 550.5 c 0
 69.501953125 562.166992188 70.001953125 580.333984375 71.001953125 605.000976562 c 0
 72.001953125 629.66796875 72.501953125 644.66796875 72.501953125 650.000976562 c 0
 73.16796875 665.333984375 77.16796875 676.666992188 84.501953125 684 c 0
 91.833984375 691.333007812 101.16796875 695 112.5 695 c 0
 133.833984375 695 161.166015625 691.666992188 194.499023438 685 c 0
 213.83203125 681 233.499023438 675.5 253.499023438 668.5 c 0
 273.499023438 661.5 295.166015625 651.833007812 318.499023438 639.5 c 0
 341.83203125 627.166992188 363.83203125 612.666992188 384.499023438 596 c 0
 405.166015625 579.333007812 425.499023438 559 445.499023438 535 c 0
 466.83203125 511 485.166015625 484.5 500.498046875 455.5 c 0
 515.831054688 426.5 527.998046875 391.833007812 536.998046875 351.5 c 0
 545.998046875 311.166992188 550.498046875 267.666992188 550.498046875 221 c 0
 550.498046875 199 547.501953125 176.166992188 541.501953125 152.5 c 0
EndSplineSet
EndChar

StartChar: E
Encoding: 69 69 38
Width: 620
GlyphClass: 2
Flags: HMW
HStem: -20 68.0039<191.124 251.796> -6 71.0039<477.791 509.796 485.458 509.796> 312.004 65.998 332.004 61.999 615.002 63.999
VStem: 83.4569 76.0039
LayerCount: 2
Fore
SplineSet
498.45703125 -6 m 2x4c
 485.45703125 -6 l 2x4c
 470.124023438 -6 445.124023438 -7 410.45703125 -9 c 0
 309.790039062 -16.3330078125 240.123046875 -20 201.456054688 -20 c 0
 180.7890625 -20 163.456054688 -19.3330078125 149.456054688 -18 c 0
 136.123046875 -17.3330078125 122.623046875 -10.666015625 108.956054688 2.0009765625 c 0
 95.2890625 14.66796875 87.4560546875 30.00390625 85.4560546875 48.00390625 c 0
 83.4560546875 64.00390625 82.4560546875 91.333984375 82.4560546875 130.000976562 c 0
 82.4560546875 168.66796875 82.7890625 210.66796875 83.4560546875 256.000976562 c 2
 83.4560546875 343.500976562 l 2
 83.4560546875 370.500976562 82.7890625 408.000976562 81.4560546875 456.000976562 c 0
 80.7890625 496.000976562 80.4560546875 522.333984375 80.4560546875 535.000976562 c 0
 80.4560546875 547.66796875 80.9560546875 566.500976562 81.9560546875 591.500976562 c 0
 82.9560546875 616.500976562 83.4560546875 632.333984375 83.4560546875 639.000976562 c 0
 84.123046875 654.333984375 88.2900390625 665.833984375 95.95703125 673.500976562 c 0
 103.624023438 681.16796875 112.791015625 685.000976562 123.458007812 685.000976562 c 1
 124.125 678.333984375 125.125 678.333984375 126.458007812 685.000976562 c 1
 139.125 684.333984375 148.791992188 679.666992188 155.458984375 671 c 0
 156.791992188 663.666992188 158.126953125 662.333984375 159.459960938 667.000976562 c 1
 161.459960938 661.000976562 163.458007812 661.333984375 165.458007812 668.000976562 c 1
 216.125 675.333984375 279.791992188 679.000976562 356.458984375 679.000976562 c 0
 377.791992188 679.000976562 396.791992188 678.66796875 413.458984375 678.000976562 c 0
 452.125976562 676.000976562 482.79296875 673.666992188 505.459960938 671 c 0
 519.459960938 669.666992188 528.626953125 666.834960938 532.959960938 662.501953125 c 0
 537.29296875 658.168945312 539.459960938 652.001953125 539.459960938 644.001953125 c 0
 539.459960938 626.668945312 534.79296875 616.001953125 525.459960938 612.001953125 c 0
 521.459960938 610.001953125 517.959960938 609.168945312 514.959960938 609.501953125 c 0
 511.959960938 609.834960938 509.459960938 610.001953125 507.459960938 610.001953125 c 0
 460.79296875 613.334960938 415.459960938 615.001953125 371.459960938 615.001953125 c 0
 356.126953125 615.001953125 340.793945312 614.668945312 325.4609375 614.001953125 c 0
 267.4609375 612.668945312 216.4609375 608.668945312 172.4609375 602.001953125 c 1
 169.793945312 595.334960938 167.126953125 595.001953125 164.459960938 601.001953125 c 1
 161.126953125 525.668945312 159.459960938 454.668945312 159.459960938 388.001953125 c 2
 159.459960938 378.001953125 l 1xac
 212.79296875 378.668945312 278.125976562 381.3359375 355.458984375 386.002929688 c 0
 435.458984375 391.3359375 480.458984375 394.002929688 490.458984375 394.002929688 c 0
 503.125976562 394.002929688 511.79296875 391.502929688 516.459960938 386.502929688 c 0
 521.126953125 381.502929688 523.459960938 374.669921875 523.459960938 366.002929688 c 0
 523.459960938 354.669921875 521.459960938 346.336914062 517.459960938 341.00390625 c 0
 512.126953125 335.00390625 503.293945312 332.00390625 490.9609375 332.00390625 c 0x1c
 478.627929688 332.00390625 429.4609375 328.670898438 343.4609375 322.00390625 c 0
 259.4609375 315.336914062 201.4609375 312.00390625 169.4609375 312.00390625 c 1
 166.793945312 304.670898438 163.793945312 304.337890625 160.4609375 311.004882812 c 1
 160.4609375 284.337890625 160.793945312 247.670898438 161.4609375 201.00390625 c 0
 161.4609375 172.336914062 161.793945312 149.00390625 162.4609375 131.00390625 c 0
 163.793945312 93.00390625 166.4609375 68.6708984375 170.4609375 58.00390625 c 0
 171.127929688 50.00390625 171.793945312 48.6708984375 172.4609375 54.00390625 c 1
 174.4609375 47.3369140625 176.12890625 47.00390625 177.461914062 53.00390625 c 1
 188.12890625 49.6708984375 209.12890625 48.00390625 240.461914062 48.00390625 c 0xac
 263.12890625 48.00390625 291.4609375 48.6708984375 325.4609375 50.00390625 c 0
 406.793945312 54.00390625 460.124023438 58.3369140625 485.45703125 63.00390625 c 0
 494.124023438 64.3369140625 501.294921875 65.00390625 506.961914062 65.00390625 c 0x4c
 512.62890625 65.00390625 517.461914062 64.00390625 521.461914062 62.00390625 c 0
 525.461914062 60.00390625 528.461914062 58.00390625 530.461914062 56.00390625 c 0
 532.461914062 54.00390625 534.12890625 51.3369140625 535.461914062 48.00390625 c 0x8c
 536.794921875 44.6708984375 537.794921875 41.837890625 538.461914062 39.5048828125 c 0
 539.12890625 37.171875 539.459960938 34.3388671875 539.459960938 31.005859375 c 0
 540.126953125 20.3388671875 536.795898438 11.005859375 529.462890625 3.005859375 c 0
 524.129882812 -3.6611328125 515.796875 -6.994140625 504.463867188 -6.994140625 c 0
 502.463867188 -6.3271484375 500.45703125 -6 498.45703125 -6 c 2x4c
EndSplineSet
EndChar

StartChar: F
Encoding: 70 70 39
Width: 620
GlyphClass: 2
Flags: HMW
HStem: 310.003 62 323.003 64.999 619.002 67.998 675.001 20G
VStem: 81.9974 77.8028 85.9974 84.001
LayerCount: 2
Fore
SplineSet
507.001953125 682 m 0x28
 520.334960938 680.666992188 529.001953125 677.833007812 533.001953125 673.5 c 0
 537.001953125 669.166992188 539.334960938 662.666992188 540.001953125 654 c 0
 540.001953125 644.666992188 537.001953125 636.333984375 531.001953125 629.000976562 c 0
 526.334960938 622.333984375 517.66796875 619.000976562 505.001953125 619.000976562 c 2
 504.001953125 619.000976562 l 2
 467.333984375 621.000976562 430.333984375 622.000976562 393.001953125 622.000976562 c 0
 324.333984375 622.000976562 248.333984375 618.333984375 165.001953125 611.000976562 c 1
 164.333984375 594.333984375 163.666992188 573.333984375 163 548.000976562 c 0
 160.866210938 502.670898438 159.799804688 458.194335938 159.799804688 414.571289062 c 0
 159.799804688 403.661132812 159.866210938 392.8046875 160 382.001953125 c 0
 164 376.001953125 167.666992188 376.334960938 171 383.001953125 c 1
 198.333984375 386.334960938 227.666015625 388.001953125 258.999023438 388.001953125 c 2
 280.999023438 388.001953125 l 2x68
 320.999023438 386.668945312 356.999023438 384.668945312 388.999023438 382.001953125 c 0
 421.666015625 378.668945312 448.333984375 375.3359375 469 372.002929688 c 0
 483.666992188 369.3359375 493 366.002929688 497 362.002929688 c 0
 501 358.002929688 503.333984375 352.002929688 504 344.002929688 c 0
 504 334.002929688 501.666992188 325.3359375 497 318.002929688 c 0
 494.333984375 312.669921875 487.666015625 310.002929688 476.999023438 310.002929688 c 2
 471.999023438 310.002929688 l 2x88
 451.33203125 313.3359375 422.999023438 316.3359375 386.999023438 319.002929688 c 0
 352.999023438 321.669921875 314.666015625 323.002929688 271.999023438 323.002929688 c 0
 231.33203125 322.3359375 196.999023438 320.002929688 168.999023438 316.002929688 c 1
 166.33203125 309.3359375 163.666015625 309.002929688 160.998046875 315.002929688 c 1
 163.666015625 208.3359375 166.666015625 108.3359375 169.998046875 15.0029296875 c 0
 168.666015625 3.669921875 163.498046875 -5.330078125 154.498046875 -11.9970703125 c 0
 145.498046875 -18.6640625 135.331054688 -21.9970703125 123.998046875 -21.9970703125 c 1
 123.331054688 -27.9970703125 122.331054688 -27.6640625 120.998046875 -20.9970703125 c 1
 110.33203125 -21.6640625 101.6640625 -18.3310546875 94.998046875 -10.998046875 c 0
 88.998046875 -4.998046875 85.998046875 3.3349609375 85.998046875 14.001953125 c 2
 85.998046875 19.001953125 l 2x44
 87.998046875 41.001953125 88.998046875 77.6689453125 88.998046875 129.001953125 c 0
 88.330078125 223.668945312 85.998046875 329.001953125 81.998046875 445.001953125 c 0
 80.6640625 489.668945312 79.998046875 519.668945312 79.998046875 535.001953125 c 0
 79.998046875 550.334960938 80.6640625 570.834960938 81.998046875 596.501953125 c 0
 83.330078125 622.168945312 83.998046875 640.001953125 83.998046875 650.001953125 c 0
 84.6640625 665.334960938 88.6640625 676.66796875 95.998046875 684.000976562 c 0
 103.330078125 691.333984375 112.6640625 695.000976562 123.99609375 695.000976562 c 1
 125.99609375 688.333984375 127.663085938 688.333984375 128.99609375 695.000976562 c 1x58
 141.663085938 695.000976562 151.330078125 690.66796875 157.998046875 682.000976562 c 1
 158.6640625 673.333984375 159.6640625 671.666992188 160.998046875 677 c 1
 240.998046875 683.666992188 315.998046875 687 385.998046875 687 c 0
 432.6640625 687 473.001953125 685.333007812 507.001953125 682 c 0x28
EndSplineSet
EndChar

StartChar: G
Encoding: 71 71 40
Width: 620
GlyphClass: 2
Flags: HMW
HStem: -31.002 72.002 248.5 74.501 285.998 64.5022 661 62.998
VStem: 70.4015 79.998
LayerCount: 2
Fore
SplineSet
474.3984375 705 m 0xb8
 507.731445312 692.333007812 528.731445312 681.333007812 537.3984375 672 c 0
 545.3984375 664 549.3984375 654.666992188 549.3984375 644 c 0
 550.065429688 638 549.065429688 631.333007812 546.3984375 624 c 0
 545.065429688 618 540.732421875 613.666992188 533.399414062 611 c 0
 528.732421875 609.666992188 524.899414062 609 521.899414062 609 c 0
 518.899414062 609 514.732421875 609.666992188 509.399414062 611 c 0
 505.399414062 612.333007812 496.232421875 617.333007812 481.899414062 626 c 0
 467.56640625 634.666992188 452.399414062 642.666992188 436.399414062 650 c 0
 421.06640625 657.333007812 407.06640625 661 394.399414062 661 c 0
 373.732421875 661 351.899414062 653.5 328.899414062 638.5 c 0
 305.899414062 623.5 284.232421875 602.5 263.899414062 575.5 c 0
 243.56640625 548.5 225.06640625 518 208.399414062 484 c 0
 191.06640625 449.333007812 177.06640625 410.5 166.399414062 367.5 c 0
 155.732421875 324.5 150.399414062 281 150.399414062 237 c 0
 150.399414062 205 156.399414062 174.166992188 168.399414062 144.5 c 0
 180.399414062 114.833007812 197.06640625 90 218.399414062 70 c 0
 239.06640625 50.6669921875 262.06640625 41 287.399414062 41 c 0
 304.06640625 41 320.733398438 46.6669921875 337.400390625 58 c 0
 354.067382812 69.3330078125 368.900390625 83.666015625 381.900390625 100.999023438 c 0
 394.900390625 118.33203125 407.067382812 137.33203125 418.400390625 157.999023438 c 0
 429.733398438 178.666015625 439.400390625 198.999023438 447.400390625 218.999023438 c 0
 455.400390625 238.999023438 461.733398438 257.33203125 466.400390625 273.999023438 c 0
 467.733398438 276.666015625 469.06640625 280.999023438 470.399414062 286.999023438 c 1
 465.732421875 285.666015625 461.065429688 285.333007812 456.3984375 286 c 0
 416.3984375 284 377.3984375 280.166992188 339.3984375 274.5 c 0
 301.3984375 268.833007812 274.731445312 261.333007812 259.3984375 252 c 0
 256.065429688 250 252.732421875 248.833007812 249.399414062 248.5 c 0
 246.06640625 248.166992188 242.733398438 249.333984375 239.400390625 252.000976562 c 0
 232.067382812 257.333984375 227.734375 264.333984375 226.401367188 273.000976562 c 2
 226.401367188 281.000976562 l 2
 226.401367188 298.333984375 236.734375 312.333984375 257.401367188 323.000976562 c 0xd8
 273.401367188 332.333984375 309.734375 339.666992188 366.401367188 345 c 0
 408.401367188 348.333007812 445.068359375 350 476.401367188 350 c 0
 482.401367188 350.333984375 488.068359375 350.500976562 493.401367188 350.500976562 c 0
 498.734375 350.500976562 503.734375 350.333984375 508.401367188 350 c 0
 523.068359375 348.666992188 532.735351562 346 537.40234375 342 c 0
 543.40234375 337.333007812 546.40234375 328.666015625 546.40234375 315.999023438 c 0
 546.40234375 309.33203125 545.235351562 303.665039062 542.90234375 298.998046875 c 0
 540.569335938 294.331054688 536.40234375 290.998046875 530.40234375 288.998046875 c 0
 528.40234375 286.331054688 526.40234375 285.331054688 524.40234375 285.998046875 c 1
 524.40234375 278.998046875 l 2
 524.40234375 276.998046875 523.90234375 271.665039062 522.90234375 262.998046875 c 0
 521.90234375 254.331054688 521.069335938 247.331054688 520.40234375 241.998046875 c 0
 519.069335938 227.998046875 515.069335938 211.831054688 508.40234375 193.498046875 c 0
 501.735351562 175.165039062 492.90234375 155.498046875 481.90234375 134.498046875 c 0
 470.90234375 113.498046875 457.735351562 92.998046875 442.40234375 72.998046875 c 0
 427.735351562 53.6650390625 412.068359375 35.998046875 395.401367188 19.998046875 c 0
 378.734375 3.998046875 360.401367188 -8.6689453125 340.401367188 -18.001953125 c 0
 320.401367188 -26.6689453125 300.068359375 -31.001953125 279.401367188 -31.001953125 c 2
 277.401367188 -31.001953125 l 1
 276.401367188 -31.001953125 l 2
 252.401367188 -31.001953125 229.734375 -26.6689453125 208.401367188 -18.001953125 c 0
 186.401367188 -8.6689453125 167.068359375 3.6640625 150.401367188 18.9970703125 c 0
 133.734375 34.330078125 119.234375 51.9970703125 106.901367188 71.9970703125 c 0
 94.568359375 91.9970703125 85.4013671875 113.330078125 79.4013671875 135.997070312 c 0
 73.4013671875 158.6640625 70.4013671875 181.331054688 70.4013671875 203.998046875 c 0
 70.4013671875 253.998046875 75.234375 302.665039062 84.9013671875 349.998046875 c 0
 94.568359375 397.331054688 107.735351562 439.831054688 124.40234375 477.498046875 c 0
 141.069335938 515.165039062 160.736328125 549.665039062 183.403320312 580.998046875 c 0
 204.0703125 612.331054688 225.903320312 638.331054688 248.903320312 658.998046875 c 0
 271.903320312 679.665039062 295.403320312 695.665039062 319.403320312 706.998046875 c 0
 343.403320312 718.331054688 366.403320312 723.998046875 388.403320312 723.998046875 c 0
 412.403320312 723.998046875 441.065429688 717.666992188 474.3984375 705 c 0xb8
EndSplineSet
EndChar

StartChar: H
Encoding: 72 72 41
Width: 620
GlyphClass: 2
Flags: HMW
HStem: 311.994 66.002 674.994 20G
VStem: 98.0005 79.499 439.499 83.001 448.499 80.001
LayerCount: 2
Fore
SplineSet
174.999023438 292 m 0xe8
 174.666015625 287.333007812 174.499023438 284 174.499023438 282 c 0
 172.499023438 248.666992188 171.499023438 209.833984375 171.499023438 165.500976562 c 0
 171.499023438 121.16796875 172.499023438 70.9951171875 174.499023438 14.9951171875 c 0
 173.166015625 3.662109375 167.833007812 -5.337890625 158.499023438 -12.0048828125 c 0
 149.166992188 -18.671875 138.833984375 -22.0048828125 127.500976562 -22.0048828125 c 1
 126.833984375 -28.0048828125 125.833984375 -27.671875 124.500976562 -21.0048828125 c 1
 114.500976562 -21.671875 106.16796875 -18.3388671875 99.5009765625 -11.005859375 c 0
 93.5009765625 -5.005859375 90.5009765625 3 90.5009765625 13 c 0
 91.16796875 15 91.5009765625 16.994140625 91.5009765625 18.994140625 c 0
 92.833984375 38.3271484375 93.5009765625 81.3330078125 93.5009765625 148 c 0
 93.5009765625 182.666992188 93.833984375 214 94.5009765625 242 c 2
 94.5009765625 243 l 2
 94.5009765625 265 95.0009765625 297.166992188 96.0009765625 339.5 c 0
 97.0009765625 381.833007812 97.66796875 409.166015625 98.0009765625 421.499023438 c 0
 98.333984375 433.83203125 98.5009765625 446.165039062 98.5009765625 458.498046875 c 0
 98.5009765625 470.831054688 98.16796875 490.998046875 97.5009765625 518.998046875 c 0
 96.833984375 546.998046875 96.5009765625 565.498046875 96.5009765625 574.498046875 c 0
 96.5009765625 583.498046875 97.5009765625 608.662109375 99.5009765625 649.995117188 c 0
 100.16796875 665.328125 104.16796875 676.661132812 111.500976562 683.994140625 c 0
 118.833984375 691.327148438 128.166992188 694.994140625 139.499023438 694.994140625 c 2
 142.499023438 694.994140625 l 2
 153.166992188 694.994140625 162.166992188 691.827148438 169.499023438 685.494140625 c 0
 176.833007812 679.161132812 180.499023438 668.328125 180.499023438 652.995117188 c 0
 180.499023438 646.328125 179.666992188 632.1640625 177.999023438 610.497070312 c 0
 176.333007812 588.830078125 175.499023438 568.830078125 175.499023438 550.497070312 c 0
 175.499023438 532.1640625 175.833007812 505.1640625 176.499023438 469.497070312 c 0
 177.166992188 433.830078125 177.499023438 406.663085938 177.499023438 387.99609375 c 2
 177.499023438 377.99609375 l 2
 180.166992188 371.329101562 183.166992188 371.329101562 186.499023438 377.99609375 c 1
 239.833007812 379.329101562 303.833007812 385.662109375 378.499023438 396.995117188 c 0
 407.166992188 400.995117188 430.166992188 403.662109375 447.499023438 404.995117188 c 1
 447.499023438 413.995117188 l 2
 447.499023438 418.662109375 447.166992188 425.662109375 446.499023438 434.995117188 c 0
 445.833007812 444.328125 445.499023438 451.328125 445.499023438 455.995117188 c 0
 444.833007812 497.328125 444.499023438 524.495117188 444.499023438 537.495117188 c 0
 444.499023438 550.495117188 445.166992188 570.995117188 446.499023438 598.995117188 c 0
 447.833007812 626.995117188 448.499023438 643.995117188 448.499023438 649.995117188 c 0
 448.499023438 665.328125 452.333007812 676.661132812 459.999023438 683.994140625 c 0
 467.666992188 691.327148438 476.833984375 694.994140625 487.500976562 694.994140625 c 2
 490.500976562 694.994140625 l 2
 501.833984375 694.994140625 511.166992188 691.827148438 518.499023438 685.494140625 c 0
 525.833007812 679.161132812 529.499023438 668.328125 529.499023438 652.995117188 c 0
 529.499023438 640.328125 528.999023438 614.495117188 527.999023438 575.495117188 c 0
 526.999023438 536.495117188 526.499023438 501.995117188 526.499023438 471.995117188 c 0
 526.499023438 441.995117188 526.833007812 398.995117188 527.499023438 342.995117188 c 0
 528.166992188 327.662109375 528.499023438 305.995117188 528.499023438 277.995117188 c 0xe8
 528.499023438 249.995117188 527.499023438 206.495117188 525.499023438 147.495117188 c 0
 523.499023438 88.4951171875 522.499023438 46.9951171875 522.499023438 22.9951171875 c 2
 522.499023438 16.9951171875 l 1
 522.499023438 14.9951171875 l 2
 522.499023438 4.328125 517.166992188 -4.671875 506.499023438 -12.0048828125 c 0
 497.833007812 -18.671875 487.833007812 -22.0048828125 476.499023438 -22.0048828125 c 1
 475.833007812 -28.0048828125 474.833007812 -27.671875 473.499023438 -21.0048828125 c 1
 462.833007812 -21.671875 454.166992188 -18.3388671875 447.499023438 -11.005859375 c 0
 442.166992188 -5.005859375 439.499023438 3.3271484375 439.499023438 13.994140625 c 2
 439.499023438 18.994140625 l 1xf0
 445.499023438 103.661132812 448.499023438 197.661132812 448.499023438 300.994140625 c 2
 448.499023438 342.995117188 l 1
 444.499023438 336.328125 440.831054688 335.994140625 437.499023438 341.994140625 c 1
 426.166015625 341.327148438 388.166015625 335.994140625 323.499023438 325.994140625 c 0
 259.499023438 316.661132812 213.166015625 311.994140625 184.499023438 311.994140625 c 2
 175.499023438 311.994140625 l 1
 175.499023438 301.994140625 l 2
 175.499023438 299.994140625 175.331054688 296.666992188 174.999023438 292 c 0xe8
EndSplineSet
EndChar

StartChar: I
Encoding: 73 73 42
Width: 620
GlyphClass: 2
Flags: HMW
HStem: -6.40211 58.3992 612 69.001 624 64.001
VStem: 268.5 76.001 275.5 75.001
LayerCount: 2
Fore
SplineSet
272.501953125 540 m 2xc8
 272.501953125 546.666992188 273.166992188 560.001953125 274.500976562 580.001953125 c 0
 275.833984375 600.001953125 276.501953125 611.668945312 276.501953125 615.001953125 c 2
 276.501953125 624.001953125 l 1
 242.501953125 624.668945312 214.168945312 625.001953125 191.501953125 625.001953125 c 0
 166.834960938 625.001953125 149.834960938 624.834960938 140.501953125 624.501953125 c 0
 131.168945312 624.168945312 126.168945312 624.001953125 125.501953125 624.001953125 c 0
 112.168945312 624.001953125 102.3359375 626.834960938 96.0029296875 632.501953125 c 0
 89.669921875 638.168945312 86.5029296875 645.3359375 86.5029296875 654.002929688 c 2
 86.5029296875 657.002929688 l 2
 86.5029296875 665.002929688 89.5029296875 672.169921875 95.5029296875 678.502929688 c 0
 101.502929688 684.8359375 111.8359375 688.002929688 126.502929688 688.002929688 c 0xa8
 181.834960938 690.002929688 231.499023438 691.002929688 275.499023438 691.002929688 c 0
 363.499023438 691.002929688 439.168945312 687.669921875 502.501953125 681.002929688 c 0
 513.834960938 679.669921875 522.502929688 677.002929688 528.502929688 673.002929688 c 0
 535.169921875 668.3359375 538.836914062 660.668945312 539.502929688 650.001953125 c 0
 539.502929688 640.001953125 536.502929688 630.668945312 530.502929688 622.001953125 c 0
 527.836914062 618.001953125 524.169921875 615.001953125 519.502929688 613.001953125 c 0
 516.169921875 611.668945312 513.169921875 611.001953125 510.502929688 611.001953125 c 0
 507.834960938 611.001953125 505.168945312 611.334960938 502.501953125 612.001953125 c 0
 481.834960938 615.334960938 431.166992188 619.001953125 350.500976562 623.001953125 c 1
 350.500976562 613.001953125 l 2
 350.500976562 607.668945312 350.166992188 590.168945312 349.500976562 560.501953125 c 0
 348.833984375 530.834960938 348.500976562 504.66796875 348.500976562 482.000976562 c 2
 348.500976562 436.000976562 l 2
 348.500976562 415.333984375 348.833984375 394.166992188 349.500976562 372.5 c 0
 350.166992188 350.833007812 350.500976562 326.166015625 350.500976562 298.499023438 c 0xc8
 350.500976562 270.83203125 349.500976562 227.999023438 347.500976562 169.999023438 c 0
 345.500976562 111.999023438 344.500976562 75.9990234375 344.500976562 61.9990234375 c 2
 344.500976562 51.9990234375 l 1
 353.500976562 51.9990234375 l 2
 377.500976562 51.9990234375 428.833984375 51.666015625 507.500976562 50.9990234375 c 0
 520.833984375 50.9990234375 529.666992188 48.4990234375 533.999023438 43.4990234375 c 0
 538.333007812 38.4990234375 540.833007812 31.666015625 541.499023438 22.9990234375 c 0
 541.499023438 17.666015625 540.999023438 12.9990234375 539.999023438 8.9990234375 c 0
 538.999023438 4.9990234375 537.166992188 0.9990234375 534.499023438 -3.0009765625 c 0
 533.166992188 -6.333984375 530.833984375 -8.5009765625 527.500976562 -9.5009765625 c 0
 524.166992188 -10.5009765625 521.000976562 -11.16796875 518.000976562 -11.5009765625 c 0
 515.000976562 -11.833984375 512.166992188 -11.6669921875 509.500976562 -11 c 0
 491.500976562 -8.3330078125 462.833984375 -7 423.500976562 -7 c 0
 418.833984375 -7 407.500976562 -6.8330078125 389.500976562 -6.5 c 0
 385.903320312 -6.43359375 382.052734375 -6.400390625 377.948242188 -6.400390625 c 0
 361.521484375 -6.400390625 341.038085938 -6.93359375 316.501953125 -8 c 2
 250.501953125 -15.2001953125 l 2
 235.834960938 -15.2001953125 221.166992188 -14.1337890625 206.500976562 -12.0009765625 c 0
 165.166992188 -13.333984375 136.666992188 -14.0009765625 121.000976562 -14.0009765625 c 0
 105.333984375 -14.0009765625 94.333984375 -11.5009765625 88.0009765625 -6.5009765625 c 0
 81.66796875 -1.5009765625 78.5009765625 4.9990234375 78.5009765625 12.9990234375 c 2
 78.5009765625 14.9990234375 l 2
 78.5009765625 22.9990234375 81.5009765625 30.166015625 87.5009765625 36.4990234375 c 0
 93.5009765625 42.83203125 103.833984375 46.33203125 118.500976562 46.9990234375 c 0
 146.500976562 47.666015625 196.500976562 48.998046875 268.500976562 50.998046875 c 1xd0
 273.166992188 133.665039062 275.500976562 215.999023438 275.500976562 297.999023438 c 0
 275.723632812 311.783203125 275.834960938 325.641601562 275.834960938 339.57421875 c 0
 275.834960938 367.418945312 275.389648438 395.560546875 274.501953125 423.998046875 c 0
 273.168945312 453.331054688 272.501953125 484.998046875 272.501953125 518.998046875 c 2
 272.501953125 540 l 2xc8
EndSplineSet
EndChar

StartChar: J
Encoding: 74 74 43
Width: 620
GlyphClass: 2
Flags: HMW
HStem: -34.999 82.001 626 65.001
VStem: 76.5 70 330.5 64.001
LayerCount: 2
Fore
SplineSet
214.500976562 626 m 0
 183.16796875 626 161.5 625.666015625 149.5 624.999023438 c 0
 137.5 624.33203125 131.166992188 623.999023438 130.5 623.999023438 c 0
 117.166992188 623.999023438 107.166992188 626.83203125 100.5 632.499023438 c 0
 93.8330078125 638.166015625 90.5 645.333007812 90.5 654 c 2
 90.5 657 l 2
 90.5 665 93.6669921875 672.166992188 100 678.5 c 0
 106.333007812 684.833007812 116.833007812 688 131.5 688 c 0
 186.166992188 690 235.5 691 279.5 691 c 0
 367.5 691 443.166992188 687.666992188 506.5 681 c 0
 517.833007812 680.333007812 526.5 677.666015625 532.5 672.999023438 c 0
 539.166992188 668.33203125 542.833984375 660.665039062 543.500976562 649.998046875 c 0
 543.500976562 639.998046875 540.500976562 630.665039062 534.500976562 621.998046875 c 0
 531.833984375 617.998046875 528.166992188 614.998046875 523.5 612.998046875 c 0
 520.833007812 611.665039062 518 610.998046875 515 610.998046875 c 0
 512 610.998046875 509.166992188 611.331054688 506.5 611.998046875 c 0
 486.5 615.331054688 447.833007812 618.331054688 390.5 620.998046875 c 1
 390.5 610.998046875 l 2
 390.5 591.665039062 391.166992188 562.33203125 392.5 522.999023438 c 0
 393.166992188 480.999023438 394.166992188 445.33203125 395.5 415.999023438 c 0
 396.833007812 387.999023438 397.5 353.83203125 397.5 313.499023438 c 0
 397.5 273.166015625 396.5 237.333007812 394.5 206 c 0
 389.833007812 146 382.666015625 98 372.999023438 62 c 0
 363.33203125 26 352.165039062 0.8330078125 339.498046875 -13.5 c 0
 326.831054688 -27.8330078125 311.831054688 -35 294.498046875 -35 c 0
 275.165039062 -35 255.83203125 -31.1669921875 236.499023438 -23.5 c 0
 217.166015625 -15.8330078125 200.166015625 -5.666015625 185.499023438 7.0009765625 c 0
 170.166015625 19.66796875 155.666015625 33.66796875 141.999023438 49.0009765625 c 0
 128.33203125 64.333984375 116.999023438 79.5009765625 107.999023438 94.5009765625 c 0
 98.9990234375 109.500976562 91.83203125 123.000976562 86.4990234375 135.000976562 c 0
 81.166015625 147.000976562 78.166015625 156.66796875 77.4990234375 164.000976562 c 0
 76.83203125 167.333984375 76.4990234375 171.000976562 76.4990234375 175.000976562 c 0
 76.4990234375 183.000976562 77.83203125 192.000976562 80.4990234375 202.000976562 c 0
 81.83203125 208.66796875 84.9990234375 214.16796875 89.9990234375 218.500976562 c 0
 94.9990234375 222.833984375 101.499023438 225.666992188 109.499023438 227 c 2
 117.499023438 227 l 2
 125.499023438 227.666992188 131.83203125 225.666992188 136.499023438 221 c 0
 143.166015625 214.333007812 146.499023438 206 146.499023438 196 c 0
 146.499023438 176.666992188 152.499023438 154.333984375 164.499023438 129.000976562 c 0
 171.166015625 115.000976562 179.833007812 102.000976562 190.5 90.0009765625 c 0
 199.833007812 78.0009765625 212.666015625 67.833984375 228.999023438 59.5009765625 c 0
 245.33203125 51.16796875 263.499023438 47.0009765625 283.499023438 47.0009765625 c 0
 298.166015625 47.0009765625 309.166015625 60.66796875 316.499023438 88.0009765625 c 0
 323.83203125 117.333984375 328.499023438 164.666992188 330.499023438 230 c 2
 330.499023438 254 l 2
 330.499023438 267.333007812 329.999023438 310 328.999023438 382 c 0
 328.399414062 425.202148438 328.099609375 471.404296875 328.099609375 520.606445312 c 0
 328.099609375 553.404296875 328.233398438 587.536132812 328.5 623.000976562 c 1
 282.5 625.000976562 244.500976562 626 214.500976562 626 c 0
EndSplineSet
EndChar

StartChar: K
Encoding: 75 75 44
Width: 620
GlyphClass: 2
Flags: HMW
HStem: -21.0341 21G 694.001 21G
VStem: 83.4995 79.002 87.5015 83
LayerCount: 2
Fore
SplineSet
81.5 541.5 m 0xe0
 81.5 556.5 82.16796875 578.333007812 83.5009765625 607 c 0
 84.833984375 635 85.5009765625 652.666992188 85.5009765625 660 c 0
 86.16796875 678.666992188 90.16796875 692.333984375 97.5009765625 701.000976562 c 0
 104.833984375 709.66796875 114.166992188 714.000976562 125.5 714.000976562 c 2
 128.5 714.000976562 l 2
 139.166992188 714.66796875 148.166992188 711.000976562 155.5 703.000976562 c 0
 162.83203125 695.66796875 166.5 682.334960938 166.5 663.001953125 c 0
 166.5 647.668945312 165.83203125 613.001953125 164.5 559.001953125 c 0
 163.166992188 505.001953125 162.166992188 452.334960938 161.5 401.001953125 c 1
 195.5 437.001953125 234.83203125 480.001953125 279.5 530.001953125 c 0
 368.83203125 625.334960938 421.5 680.001953125 437.5 694.001953125 c 0
 445.5 703.334960938 453.166992188 709.334960938 460.5 712.001953125 c 0
 465.166992188 714.001953125 469.166992188 715.001953125 472.5 715.001953125 c 0
 479.166992188 715.001953125 485.5 711.000976562 491.5 703.000976562 c 0
 496.83203125 694.333984375 499.5 685.334960938 499.5 676.001953125 c 0
 499.5 667.334960938 493.5 657.334960938 481.5 646.001953125 c 0
 471.5 634.001953125 437.5 597.668945312 379.5 537.001953125 c 0
 324.166992188 473.668945312 272.833984375 416.001953125 225.5 364.001953125 c 1
 231.5 357.001953125 l 2
 252.833984375 333.668945312 288.5 296.3359375 338.5 245.002929688 c 0
 439.16796875 142.3359375 499.5 79.3359375 519.5 56.0029296875 c 0
 528.16796875 46.0029296875 533.5 39.3359375 535.5 36.0029296875 c 0
 537.5 32.669921875 538.5 29.3369140625 538.5 26.00390625 c 0
 538.5 20.00390625 537.833984375 14.6708984375 536.5 10.00390625 c 0
 533.16796875 0.00390625 528.16796875 -7.6630859375 521.5 -12.99609375 c 0
 514.833984375 -18.3291015625 508.5 -20.9970703125 502.5 -20.9970703125 c 0
 502.10546875 -21.021484375 501.708984375 -21.0341796875 501.311523438 -21.0341796875 c 0
 490.9921875 -21.0341796875 480.0546875 -12.6875 468.5 4.0029296875 c 0
 461.166992188 13.3359375 437.5 36.3359375 397.5 73.0029296875 c 0
 360.166992188 110.3359375 319.833984375 151.3359375 276.5 196.002929688 c 0
 233.16796875 244.002929688 200.834960938 282.002929688 179.501953125 310.002929688 c 2
 162.501953125 331.002929688 l 1
 162.501953125 284.002929688 l 1xe0
 170.501953125 24.001953125 l 2
 169.834960938 9.3349609375 164.83203125 -1.9970703125 155.499023438 -9.9970703125 c 0
 146.166015625 -17.9970703125 135.8359375 -21.9970703125 124.502929688 -21.9970703125 c 1
 123.8359375 -27.9970703125 122.8359375 -27.6640625 121.502929688 -20.9970703125 c 1
 110.8359375 -21.6640625 102.168945312 -17.3310546875 95.501953125 -7.998046875 c 0
 90.1689453125 0.001953125 87.501953125 10.6689453125 87.501953125 24.001953125 c 2
 87.501953125 28.001953125 l 2xd0
 89.501953125 50.001953125 90.501953125 86.6689453125 90.501953125 138.001953125 c 0
 89.8349609375 233.334960938 87.5 339.001953125 83.5 455.001953125 c 0
 82.1669921875 497.668945312 81.5 526.5 81.5 541.5 c 0xe0
EndSplineSet
EndChar

StartChar: L
Encoding: 76 76 45
Width: 620
GlyphClass: 2
Flags: HMW
HStem: -15 67.001
VStem: 111.498 72.0039
LayerCount: 2
Fore
SplineSet
528 72.5 m 0
 531 68.1669921875 533.5 63.5 535.5 58.5 c 0
 537.5 53.5 538.5 48.6669921875 538.5 44 c 0
 538.5 34 536.333007812 26.5 532 21.5 c 0
 527.666992188 16.5 518.166992188 12.6669921875 503.5 10 c 0
 458.833007812 1.3330078125 393.833007812 -5 308.5 -9 c 0
 222.5 -13 158.166992188 -15 115.5 -15 c 0
 105.5 -15.6669921875 97.1669921875 -12.333984375 90.5 -5.0009765625 c 0
 84.5 0.9990234375 81.5 9.33203125 81.5 19.9990234375 c 0
 81.5 21.9990234375 81.6669921875 24.9990234375 82 28.9990234375 c 0
 82.3330078125 32.9990234375 86.166015625 69.9990234375 93.4990234375 139.999023438 c 0
 100.83203125 211.33203125 106.165039062 279.999023438 109.498046875 345.999023438 c 0
 110.831054688 363.999023438 111.498046875 388.166015625 111.498046875 418.499023438 c 0
 111.498046875 448.83203125 111.331054688 471.83203125 110.998046875 487.499023438 c 0
 110.665039062 503.166015625 109.83203125 554.333007812 108.499023438 641 c 0
 109.166015625 657 113.333007812 668.666992188 121 676 c 0
 128.666992188 683.333007812 137.833984375 687 148.500976562 687 c 2
 151.500976562 687 l 2
 162.16796875 687 171.16796875 683.666992188 178.500976562 677 c 0
 185.833984375 670.333007812 189.500976562 659.666015625 189.500976562 644.999023438 c 0
 189.723632812 638.7734375 189.834960938 631.732421875 189.834960938 623.875976562 c 0
 189.834960938 608.174804688 189.390625 589.215820312 188.501953125 566.999023438 c 0
 186.501953125 517.666015625 184.834960938 475.333007812 183.501953125 440 c 0
 181.501953125 389.333007812 179.833984375 345.333007812 178.500976562 308 c 0
 177.833984375 280.666992188 175.501953125 240.333984375 171.501953125 187.000976562 c 0
 167.501953125 133.66796875 165.501953125 92.0009765625 165.501953125 62.0009765625 c 2
 165.501953125 52.0009765625 l 1
 189.500976562 52.0009765625 l 2
 238.833984375 52.66796875 296.16796875 56.3349609375 361.500976562 63.001953125 c 0
 429.500976562 69.6689453125 476.16796875 76.001953125 501.500976562 82.001953125 c 0
 504.16796875 82.6689453125 506.66796875 83.001953125 509.000976562 83.001953125 c 0
 511.333984375 83.001953125 513.833984375 82.6689453125 516.500976562 82.001953125 c 0
 521.16796875 80.001953125 525 76.8330078125 528 72.5 c 0
EndSplineSet
EndChar

StartChar: M
Encoding: 77 77 46
Width: 620
GlyphClass: 2
Flags: HMW
HStem: -10 21G<88.4995 93.8335> 684.001 20G
VStem: 59.4995 68.001 265.501 85.999
LayerCount: 2
Fore
SplineSet
116.5 5 m 0
 108.5 -5 99.1669921875 -10 88.5 -10 c 0
 69.1669921875 -9.3330078125 59.5 13.333984375 59.5 58.0009765625 c 0
 59.5 66.0009765625 60.3330078125 79.833984375 62 99.5009765625 c 0
 63.6669921875 119.16796875 66.1669921875 145.000976562 69.5 177.000976562 c 0
 72.8330078125 209.000976562 75.5 237.000976562 77.5 261.000976562 c 0
 83.5 342.333984375 87.5 394.000976562 89.5 416.000976562 c 0
 92.1669921875 444.66796875 95.5 480.000976562 99.5 522.000976562 c 0
 107.5 603.333984375 115.83203125 652.333984375 124.5 669.000976562 c 0
 131.166992188 681.000976562 140.5 690.000976562 152.5 696.000976562 c 0
 163.83203125 701.333984375 174.5 704.000976562 184.5 704.000976562 c 2
 188.5 704.000976562 l 2
 199.83203125 704.000976562 209.166015625 702.000976562 216.499023438 698.000976562 c 0
 225.166015625 692.66796875 230.83203125 684.334960938 233.5 673.001953125 c 0
 240.83203125 643.668945312 249 595.3359375 258 528.002929688 c 0
 267 460.669921875 276.166992188 383.502929688 285.5 296.502929688 c 0
 294.83203125 209.502929688 301.5 152.002929688 305.5 124.002929688 c 0
 308.16796875 106.669921875 311.166992188 84 314.5 56 c 1
 316.5 83.3330078125 318.166992188 106.002929688 319.5 124.002929688 c 0
 325.5 218.669921875 332.5 303.669921875 340.5 379.002929688 c 0
 346.5 434.3359375 354.33203125 489.668945312 364 545.001953125 c 0
 373.666992188 600.334960938 382.166992188 643.001953125 389.5 673.001953125 c 0
 391.5 681.001953125 396 687.668945312 403 693.001953125 c 0
 410 698.334960938 417.166992188 701.66796875 424.5 703.000976562 c 0
 429.83203125 703.66796875 434.5 704.000976562 438.5 704.000976562 c 2
 448.5 704.000976562 l 1
 452.5 704.000976562 l 1
 465.5 704.000976562 l 2
 468.83203125 704.000976562 473.33203125 703.333984375 479 702.000976562 c 0
 484.666992188 700.66796875 488.833984375 698.834960938 491.5 696.501953125 c 0
 494.16796875 694.168945312 497 690.668945312 500 686.001953125 c 0
 503 681.334960938 505.16796875 675.334960938 506.5 668.001953125 c 0
 509.16796875 647.334960938 517 547.501953125 530 368.501953125 c 0
 543 189.501953125 552.16796875 88.001953125 557.5 64.001953125 c 0
 559.5 53.3349609375 560.5 43.66796875 560.5 35.0009765625 c 0
 560.5 15.0009765625 553.5 1.66796875 539.5 -4.9990234375 c 0
 534.833984375 -6.9990234375 530 -7.9990234375 525 -7.9990234375 c 0
 520 -7.9990234375 514.5 -6.33203125 508.5 -2.9990234375 c 0
 498.5 2.333984375 490.5 14.333984375 484.5 33.0009765625 c 0
 470.5 77.0009765625 458.16796875 271.000976562 447.5 615.000976562 c 0
 446.833984375 631.66796875 446.166992188 653.000976562 445.5 679.000976562 c 1
 441.5 653.66796875 437.5 633.000976562 433.5 617.000976562 c 0
 414.83203125 520.333984375 402.83203125 432.333984375 397.5 353.000976562 c 0
 392.166992188 277.000976562 384.666992188 205.000976562 375 137.000976562 c 0
 365.33203125 69.0009765625 357.5 27.66796875 351.5 13.0009765625 c 0
 346.166992188 -0.33203125 330.833984375 -6.9990234375 305.5 -6.9990234375 c 2
 301.5 -6.9990234375 l 2
 292.16796875 -6.9990234375 284.16796875 -5.166015625 277.5 -1.4990234375 c 0
 270.833984375 2.16796875 266.833984375 7.3349609375 265.5 14.001953125 c 0
 258.16796875 46.001953125 245.834960938 119.168945312 228.501953125 233.501953125 c 0
 211.16796875 347.834960938 195.16796875 458.001953125 180.501953125 564.001953125 c 0
 177.16796875 579.334960938 174.16796875 599.66796875 171.501953125 625.000976562 c 1
 169.501953125 599.66796875 167.501953125 579.334960938 165.501953125 564.001953125 c 0
 160.834960938 505.334960938 157.16796875 457.66796875 154.5 421.000976562 c 0
 152.5 387.000976562 150.5 358.000976562 148.5 334.000976562 c 0
 146.5 300.66796875 144.5 271.66796875 142.5 247.000976562 c 0
 140.5 219.000976562 138.16796875 190.000976562 135.5 160.000976562 c 0
 133.5 131.333984375 131.5 107.666992188 129.5 89 c 0
 128.16796875 75 127.5 64 127.5 56 c 0
 128.16796875 48 128.5 46 128.5 46 c 2
 128.5 28.6669921875 124.5 15 116.5 5 c 0
EndSplineSet
EndChar

StartChar: N
Encoding: 78 78 47
Width: 620
GlyphClass: 2
Flags: HMW
HStem: -11.998 21G 685 20G<131.5 139.5 491.501 499.834>
VStem: 83.501 63 90.751 58.7499 463.502 72.999 474.002 62.4988
LayerCount: 2
Fore
SplineSet
496.500976562 705 m 0xc8
 503.16796875 705 508.5 704.333007812 512.5 703 c 0
 516.5 701 519.5 699 521.5 697 c 0
 523.5 695 525.166992188 690.666992188 526.5 684 c 0
 528.5 680 529.833007812 675.666992188 530.5 671 c 0
 531.166992188 666.333007812 532.166992188 659 533.5 649 c 0
 534.833007812 639.666992188 535.833007812 586.666992188 536.5 490 c 2
 536.5 448 l 2
 536.5 364 535.5 285.666992188 533.5 213 c 0
 531.5 139.666992188 529.166992188 89.6669921875 526.5 63 c 0
 523.833007812 35 521.166015625 17.6669921875 518.499023438 11 c 0
 513.166015625 -5.6669921875 497.833007812 -14 472.5 -14 c 1
 470.5 -20.6669921875 468.833007812 -20.6669921875 467.5 -14 c 1
 458.833007812 -14 451.5 -11.6669921875 445.5 -7 c 0
 439.5 -2.3330078125 435.166992188 4 432.5 12 c 0
 427.833007812 22.6669921875 412.5 52.333984375 386.5 101.000976562 c 2
 312.5 247.000976562 l 2
 287.166992188 295.66796875 260.833984375 350.334960938 233.500976562 411.001953125 c 0
 205.500976562 473.001953125 183.833984375 525.668945312 168.500976562 569.001953125 c 0
 160.500976562 592.334960938 152.833984375 613.334960938 145.500976562 632.001953125 c 1
 146.833984375 610.001953125 148.166992188 586.668945312 149.5 562.001953125 c 0
 152.833007812 504.668945312 154.5 450.001953125 154.5 398.001953125 c 0
 154.5 384.668945312 154.166992188 359.3359375 153.5 322.002929688 c 0
 152.833007812 284.002929688 151.5 237.669921875 149.5 183.002929688 c 0xd8
 147.5 128.3359375 146.5 90.6689453125 146.5 70.001953125 c 2
 146.5 62.001953125 l 2
 147.166992188 57.3349609375 147.5 53.3349609375 147.5 50.001953125 c 2
 147.5 44.001953125 l 2
 147.5 24.6689453125 144.166992188 10.6689453125 137.5 2.001953125 c 0
 130.833007812 -7.3310546875 122.5 -11.998046875 112.5 -11.998046875 c 2
 110.5 -11.998046875 l 2
 105.833007812 -11.998046875 101.833007812 -10.6650390625 98.5 -7.998046875 c 0
 95.1669921875 -5.3310546875 92.5 -0.6640625 90.5 6.0029296875 c 0
 85.8330078125 16.669921875 83.5 33.0029296875 83.5 55.0029296875 c 0xe0
 83.5 67.669921875 84.5 119.002929688 86.5 209.002929688 c 0
 88.5 299.669921875 89.8330078125 378.669921875 90.5 446.002929688 c 0
 90.6669921875 462.837890625 90.75 479.505859375 90.75 496.006835938 c 0
 90.75 545.504882812 90 593.50390625 88.5 640.002929688 c 2
 88.5 647.002929688 l 2
 89.1669921875 657.002929688 90.833984375 666.002929688 93.5009765625 674.002929688 c 0
 96.16796875 682.669921875 100.16796875 689.336914062 105.500976562 694.00390625 c 0
 114.833984375 701.336914062 125.5 705 137.5 705 c 0
 141.5 705 145.16796875 704.670898438 148.500976562 704.00390625 c 2
 149.5 704.00390625 l 2
 160.166992188 704.00390625 169.16796875 701.666992188 176.500976562 697 c 0
 185.16796875 691.666992188 191.16796875 682.00390625 194.500976562 668.00390625 c 0
 207.833984375 624.00390625 243.833984375 541.336914062 302.500976562 420.00390625 c 0
 360.500976562 299.336914062 410.833984375 202.00390625 453.500976562 128.00390625 c 0
 458.833984375 115.336914062 464.166992188 106.00390625 469.5 100.00390625 c 1
 470.166992188 110.00390625 470.833984375 122.336914062 471.500976562 137.00390625 c 0
 472.833984375 179.670898438 473.500976562 234.670898438 473.500976562 302.00390625 c 0
 473.834960938 318.670898438 474.001953125 336.170898438 474.001953125 354.50390625 c 0xd4
 474.001953125 372.836914062 473.834960938 392.00390625 473.501953125 412.00390625 c 0
 471.501953125 532.670898438 468.168945312 612.337890625 463.501953125 651.004882812 c 1
 463.501953125 657.004882812 l 2
 463.501953125 669.671875 466.168945312 680.338867188 471.501953125 689.005859375 c 0
 478.168945312 699.672851562 486.500976562 705 496.500976562 705 c 0xc8
EndSplineSet
EndChar

StartChar: O
Encoding: 79 79 48
Width: 620
GlyphClass: 2
Flags: HMW
HStem: -23.998 73.999 646.508 71.4923
VStem: 84.5 77.002 458.501 76.999
LayerCount: 2
Fore
SplineSet
414.5 120.001953125 m 0
 427.166992188 137.334960938 436.833984375 157.001953125 443.500976562 179.001953125 c 0
 446.16796875 187.668945312 449.000976562 208.001953125 452.000976562 240.001953125 c 0
 455.000976562 272.001953125 457.16796875 309.668945312 458.500976562 353.001953125 c 0
 459.16796875 365.668945312 459.500976562 378.3359375 459.500976562 391.002929688 c 0
 459.500976562 422.3359375 458.16796875 453.002929688 455.500976562 483.002929688 c 0
 451.500976562 529.002929688 436.500976562 567.669921875 410.500976562 599.002929688 c 0
 386.500976562 630.3359375 356.833984375 646.168945312 321.500976562 646.501953125 c 0
 321.095703125 646.505859375 320.690429688 646.5078125 320.286132812 646.5078125 c 0
 285.487304688 646.5078125 256.225585938 632.338867188 232.500976562 604.000976562 c 0
 209.16796875 576.000976562 191.834960938 537.66796875 180.501953125 489.000976562 c 0
 167.834960938 437.000976562 161.501953125 377.66796875 161.501953125 311.000976562 c 0
 162.168945312 269.66796875 164.501953125 233.334960938 168.501953125 202.001953125 c 0
 170.501953125 183.334960938 174.501953125 164.66796875 180.501953125 146.000976562 c 0
 186.501953125 127.333984375 193.834960938 111.000976562 202.501953125 97.0009765625 c 0
 210.501953125 83.0009765625 221.168945312 71.66796875 234.501953125 63.0009765625 c 0
 247.834960938 54.333984375 262.833007812 50.0009765625 279.5 50.0009765625 c 0
 314.833007812 50.0009765625 346.501953125 59.66796875 374.501953125 79.0009765625 c 0
 389.168945312 89.0009765625 402.5 102.668945312 414.5 120.001953125 c 0
84.5 261 m 2
 84.5 291.666992188 84.833984375 316.166992188 85.5009765625 334.5 c 0
 86.16796875 352.833007812 87.5009765625 377.333007812 89.5009765625 408 c 0
 93.5009765625 467.333007812 104.500976562 522 122.500976562 572 c 0
 139.16796875 614.666992188 167.500976562 649.666992188 207.500976562 677 c 0
 244.16796875 704.333007812 285.834960938 718 332.501953125 718 c 0
 355.834960938 718 378.16796875 713 399.500976562 703 c 0
 421.500976562 693 441.833984375 678.5 460.500976562 659.5 c 0
 479.16796875 640.5 494.66796875 616.166992188 507.000976562 586.5 c 0
 519.333984375 556.833007812 527.166992188 523.333007812 530.5 486 c 0
 533.833007812 444.666992188 535.5 402.333984375 535.5 359.000976562 c 0
 535.5 325.66796875 534.333007812 290.834960938 532 254.501953125 c 0
 529.666992188 218.168945312 525.5 188.668945312 519.5 166.001953125 c 0
 510.833007812 134.668945312 500.333007812 107.668945312 488 85.001953125 c 0
 475.666992188 62.3349609375 462.333984375 44.001953125 448.000976562 30.001953125 c 0
 433.66796875 16.001953125 417.16796875 5.001953125 398.500976562 -2.998046875 c 0
 381.16796875 -10.998046875 363.16796875 -16.6650390625 344.500976562 -19.998046875 c 0
 325.833984375 -22.6650390625 304.166992188 -23.998046875 279.5 -23.998046875 c 0
 244.166992188 -23.998046875 211.5 -11.998046875 181.5 12.001953125 c 0
 150.166992188 36.001953125 126.166992188 68.001953125 109.5 108.001953125 c 0
 92.8330078125 148.001953125 84.5 191.334960938 84.5 238.001953125 c 2
 84.5 243.001953125 l 1
 84.5 261 l 2
EndSplineSet
EndChar

StartChar: P
Encoding: 80 80 49
Width: 620
GlyphClass: 2
Flags: HMW
HStem: -19 21G<140.501 146.501 146.501 149.501> 230 71.998 639.996 52.0029
VStem: 103.501 75 110.701 81.7989 453.5 73<470.999 514.997>
LayerCount: 2
Fore
SplineSet
181.500976562 630.998046875 m 1xf4
 178.500976562 547.998046875 l 2
 176.3671875 480.26953125 175.30078125 417.874023438 175.30078125 360.810546875 c 0
 175.30078125 346.5390625 175.3671875 332.6015625 175.500976562 318.998046875 c 1
 182.500976562 316.998046875 l 2
 209.833984375 306.998046875 240.500976562 301.998046875 274.500976562 301.998046875 c 0
 292.500976562 301.998046875 309.000976562 303.498046875 324.000976562 306.498046875 c 0
 339.000976562 309.498046875 352.16796875 313.498046875 363.500976562 318.498046875 c 0
 374.833984375 323.498046875 384.833984375 329.998046875 393.500976562 337.998046875 c 0
 402.833984375 345.998046875 410.833984375 354.165039062 417.500976562 362.498046875 c 0
 424.16796875 370.831054688 429.834960938 380.331054688 434.501953125 390.998046875 c 0
 439.168945312 401.665039062 442.668945312 411.498046875 445.001953125 420.498046875 c 0
 447.334960938 429.498046875 449.16796875 439.665039062 450.500976562 450.998046875 c 0
 451.833984375 462.331054688 452.666992188 471.6640625 453 478.997070312 c 0
 453.333007812 486.330078125 453.5 494.997070312 453.5 504.997070312 c 0
 453.5 524.997070312 449.833007812 543.1640625 442.5 559.497070312 c 0
 435.166992188 575.830078125 425.833007812 588.997070312 414.5 598.997070312 c 0
 403.833007812 608.330078125 392.000976562 616.163085938 379.000976562 622.49609375 c 0
 366.000976562 628.829101562 353.66796875 633.329101562 342.000976562 635.99609375 c 0
 330.333984375 638.663085938 318.833007812 639.99609375 307.5 639.99609375 c 0
 286.833007812 639.99609375 244.833984375 636.998046875 181.500976562 630.998046875 c 1xf4
102.5 626 m 1
 101.166992188 621.333007812 99.5 622.998046875 97.5 630.998046875 c 0
 94.8330078125 635.665039062 93.5 640 93.5 644 c 0
 94.1669921875 644.666992188 94.5 645.666992188 94.5 647 c 0
 95.1669921875 653.666992188 97.6669921875 659.5 102 664.5 c 0
 106.333007812 669.5 110.833007812 672.666992188 115.5 674 c 0
 138.833007812 679.333007812 173.5 683.666015625 219.5 686.999023438 c 0
 261.5 690.33203125 290.833007812 691.999023438 307.5 691.999023438 c 0
 347.5 691.999023438 383.166992188 684.33203125 414.5 668.999023438 c 0
 448.5 653.666015625 475.5 630.666015625 495.5 599.999023438 c 0
 515.5 569.33203125 525.833007812 532.33203125 526.5 488.999023438 c 0
 526.5 452.999023438 520.666992188 419.166015625 509 387.499023438 c 0
 497.333007812 355.83203125 481.333007812 328.33203125 461 304.999023438 c 0
 440.666992188 281.666015625 416.5 263.333007812 388.5 250 c 0
 361.833007812 236.666992188 332.833007812 230 301.5 230 c 0
 254.833007812 230 217.5 233.333007812 189.5 240 c 1
 184.833007812 234.666992188 180.5 235.666992188 176.5 243 c 1
 179.166992188 189.666992188 183.166992188 130.666992188 188.5 66 c 0
 191.166992188 35.3330078125 192.5 17.666015625 192.5 12.9990234375 c 2
 192.5 11.9990234375 l 2
 192.5 2.666015625 188.5 -4.6669921875 180.5 -10 c 0
 171.166992188 -16 160.833984375 -19 149.500976562 -19 c 2
 146.500976562 -19 l 2
 134.500976562 -19 124.833984375 -15.6669921875 117.500976562 -9 c 0
 112.16796875 -3.6669921875 109.500976562 3.666015625 109.500976562 12.9990234375 c 0
 109.500976562 14.9990234375 109.66796875 20.166015625 110.000976562 28.4990234375 c 0
 110.333984375 36.83203125 110.500976562 55.6650390625 110.500976562 84.998046875 c 0
 110.634765625 91.7998046875 110.701171875 100.109375 110.701171875 109.926757812 c 0xec
 110.701171875 149.180664062 109.634765625 212.538085938 107.500976562 299.998046875 c 0
 105.500976562 371.998046875 104.500976562 420.998046875 104.500976562 446.998046875 c 0
 103.833984375 462.998046875 103.500976562 484.498046875 103.500976562 511.498046875 c 0
 103.500976562 538.498046875 104.16796875 575.665039062 105.500976562 622.998046875 c 1
 104.16796875 617.665039062 103.166992188 618.666992188 102.5 626 c 1
EndSplineSet
EndChar

StartChar: Q
Encoding: 81 81 50
Width: 620
GlyphClass: 2
Flags: HMW
HStem: -24.0667 74.0667 646.001 71.999
VStem: 80.5136 75.998 277.509 51.0039 458.512 74.002
LayerCount: 2
Fore
SplineSet
227.514648438 -11 m 0
 205.514648438 -1.6669921875 185.513671875 11.166015625 167.513671875 27.4990234375 c 0
 149.513671875 43.83203125 134.180664062 63.33203125 121.513671875 85.9990234375 c 0
 96.8466796875 129.999023438 83.1796875 182.666015625 80.5126953125 243.999023438 c 2
 80.5126953125 295.999023438 l 2
 80.49609375 298.634765625 80.48828125 301.259765625 80.48828125 303.874023438 c 0
 80.48828125 408.397460938 93.49609375 496.10546875 119.512695312 566.999023438 c 0
 134.845703125 609.666015625 162.845703125 645.333007812 203.512695312 674 c 0
 241.512695312 703.333007812 283.512695312 718 329.512695312 718 c 0
 377.512695312 717.333007812 419.512695312 699.333007812 455.512695312 664 c 0
 473.512695312 646.666992188 488.845703125 622.833984375 501.512695312 592.500976562 c 0
 514.1796875 562.16796875 522.512695312 527.66796875 526.512695312 489.000976562 c 0
 530.512695312 450.333984375 532.512695312 406.000976562 532.512695312 356.000976562 c 0
 532.512695312 269.333984375 528.1796875 204.000976562 519.512695312 160.000976562 c 0
 505.512695312 89.333984375 474.1796875 39.0009765625 425.512695312 9.0009765625 c 0
 422.1796875 2.333984375 419.1796875 0.6669921875 416.512695312 4 c 1
 433.845703125 -21.3330078125 450.178710938 -44.3330078125 465.51171875 -65 c 0
 480.178710938 -85 491.01171875 -99.5 498.01171875 -108.5 c 0
 505.01171875 -117.5 517.51171875 -133.666992188 535.51171875 -157 c 0
 538.178710938 -160.333007812 539.51171875 -164.333007812 539.51171875 -169 c 2
 539.51171875 -173 l 2
 538.178710938 -180.333007812 535.678710938 -187.166015625 532.01171875 -193.499023438 c 0
 528.344726562 -199.83203125 524.51171875 -204.33203125 520.51171875 -206.999023438 c 0
 515.178710938 -210.33203125 509.51171875 -211.999023438 503.51171875 -211.999023438 c 0
 500.844726562 -211.999023438 497.844726562 -211.666015625 494.51171875 -210.999023438 c 0
 484.51171875 -207.666015625 475.51171875 -201.333007812 467.51171875 -192 c 0
 457.51171875 -180.666992188 441.51171875 -158.666992188 419.51171875 -126 c 0
 399.51171875 -93.3330078125 378.51171875 -58 356.51171875 -20 c 1
 354.51171875 -26.6669921875 352.51171875 -27 350.51171875 -21 c 1
 335.178710938 -23 318.178710938 -24 299.51171875 -24 c 0
 297.778320312 -24.044921875 296.053710938 -24.0673828125 294.337890625 -24.0673828125 c 0
 270.321289062 -24.0673828125 248.047851562 -19.7109375 227.514648438 -11 c 0
316.51171875 208.999023438 m 0
 321.178710938 205.666015625 325.178710938 199.333007812 328.51171875 190 c 0
 339.178710938 156.666992188 355.178710938 120.333984375 376.51171875 81.0009765625 c 2
 381.51171875 71.0009765625 l 1
 389.51171875 77.0009765625 l 2
 418.844726562 98.333984375 438.177734375 131.333984375 447.510742188 176.000976562 c 0
 449.510742188 185.333984375 451.84375 205.666992188 454.510742188 237 c 0
 456.510742188 267.666992188 457.84375 306 458.510742188 352 c 2
 458.510742188 368 l 2
 458.59375 373.084960938 458.635742188 378.138671875 458.635742188 383.161132812 c 0
 458.635742188 418.305664062 456.59375 451.918945312 452.510742188 484.000976562 c 0
 446.510742188 532.66796875 431.177734375 572.000976562 406.510742188 602.000976562 c 0
 383.84375 631.333984375 354.510742188 646.000976562 318.510742188 646.000976562 c 0
 282.510742188 646.000976562 252.510742188 632.333984375 228.510742188 605.000976562 c 0
 204.510742188 577.66796875 186.84375 539.66796875 175.510742188 491.000976562 c 0
 162.84375 439.000976562 156.510742188 383.66796875 156.510742188 325.000976562 c 2
 156.510742188 321.000976562 l 2
 157.177734375 302.333984375 158.177734375 282.666992188 159.510742188 262 c 0
 162.177734375 221.333007812 169.677734375 185.5 182.010742188 154.5 c 0
 194.34375 123.5 210.676757812 98.3330078125 231.009765625 79 c 0
 251.342773438 59.6669921875 274.17578125 50 299.508789062 50 c 2
 308.508789062 50 l 1
 323.508789062 50 l 1
 316.508789062 65 l 2
 301.841796875 94.3330078125 291.674804688 116.833007812 286.0078125 132.5 c 0
 280.340820312 148.166992188 277.5078125 161.666992188 277.5078125 173 c 0
 277.5078125 187 282.174804688 198 291.5078125 206 c 0
 296.840820312 210.666992188 301.840820312 213 306.5078125 213 c 0
 309.840820312 213 313.178710938 211.666015625 316.51171875 208.999023438 c 0
EndSplineSet
EndChar

StartChar: R
Encoding: 82 82 51
Width: 620
GlyphClass: 2
Flags: HMW
HStem: -18.998 21G 280.633 68.3692 675.001 20G
VStem: 85.501 76.001 89.502 83.998 94.168 59.3317 95.001 70.5 451.499 72.0029
LayerCount: 2
Fore
SplineSet
429.501953125 504.000976562 m 0xe3
 414.834960938 522.66796875 397.500976562 538.834960938 377.500976562 552.501953125 c 0
 357.500976562 566.168945312 335.16796875 578.668945312 310.500976562 590.001953125 c 0
 263.833984375 610.668945312 217.833984375 625.001953125 172.500976562 633.001953125 c 2
 161.500976562 635.001953125 l 1xf1
 162.833984375 578.334960938 164.166992188 532.334960938 165.5 497.001953125 c 0
 165.5 485.001953125 164.499023438 465.334960938 162.499023438 438.001953125 c 0
 161.83203125 429.334960938 159.166015625 400.334960938 154.499023438 351.001953125 c 1
 162.499023438 350.001953125 l 2
 171.260742188 348.477539062 181.981445312 347.715820312 194.661132812 347.715820312 c 0
 204.171875 347.715820312 214.784179688 348.14453125 226.499023438 349.001953125 c 0
 304.499023438 352.334960938 357.83203125 359.334960938 386.499023438 370.001953125 c 0
 397.83203125 374.001953125 408.499023438 379.334960938 418.499023438 386.001953125 c 0
 440.499023438 400.001953125 451.499023438 419.668945312 451.499023438 445.001953125 c 0
 451.499023438 465.668945312 444.168945312 485.333984375 429.501953125 504.000976562 c 0xe3
464.500976562 3 m 0
 453.833984375 17 438.49609375 34.66796875 418.49609375 56.0009765625 c 0
 400.49609375 76.66796875 378.666015625 99.5009765625 352.999023438 124.500976562 c 0
 327.33203125 149.500976562 298.165039062 174.333984375 265.498046875 199.000976562 c 0
 232.831054688 223.66796875 199.831054688 243.334960938 166.498046875 258.001953125 c 1
 161.831054688 253.334960938 157.1640625 255.334960938 152.497070312 264.001953125 c 1
 153.1640625 252.668945312 153.497070312 249.001953125 153.497070312 249.001953125 c 2xe5
 154.830078125 210.334960938 158.497070312 163.001953125 164.497070312 107.001953125 c 0
 170.497070312 51.001953125 173.497070312 19.3349609375 173.497070312 12.001953125 c 0
 172.830078125 2.6689453125 168.497070312 -4.6640625 160.497070312 -9.9970703125 c 0
 151.1640625 -15.9970703125 140.831054688 -18.9970703125 129.498046875 -18.9970703125 c 2
 126.498046875 -18.9970703125 l 2
 115.165039062 -18.9970703125 105.83203125 -15.6640625 98.4990234375 -8.9970703125 c 0
 92.4990234375 -3.6640625 89.4990234375 3.6689453125 89.4990234375 13.001953125 c 0xe9
 90.166015625 14.3349609375 90.4990234375 16.3349609375 90.4990234375 19.001953125 c 0
 92.4990234375 53.6689453125 93.666015625 83.501953125 93.9990234375 108.501953125 c 0
 94.1103515625 116.827148438 94.166015625 129.051757812 94.166015625 145.176757812 c 0xe5
 94.166015625 177.473632812 93.943359375 225.415039062 93.498046875 289.000976562 c 2
 93.498046875 305.500976562 l 2
 93.498046875 314.500976562 93.998046875 333.000976562 94.998046875 361.000976562 c 0xe3
 95.998046875 389.000976562 96.498046875 412.833984375 96.498046875 432.500976562 c 0
 96.498046875 452.16796875 96.1650390625 472.000976562 95.498046875 492.000976562 c 0
 94.8310546875 512.000976562 92.998046875 541.500976562 89.998046875 580.500976562 c 0
 86.998046875 619.500976562 85.498046875 642.66796875 85.498046875 650.000976562 c 2
 85.498046875 656.000976562 l 1
 85.498046875 659.000976562 l 2xf1
 85.498046875 667.000976562 89.1650390625 674.66796875 96.498046875 682.000976562 c 0
 103.165039062 690.66796875 112.83203125 695.000976562 125.499023438 695.000976562 c 0
 136.166015625 695.000976562 144.499023438 692.66796875 150.499023438 688.000976562 c 1
 151.83203125 681.333984375 152.830078125 681.000976562 153.497070312 687.000976562 c 1xe5
 207.497070312 684.333984375 254.999023438 677.166992188 295.999023438 665.5 c 0
 336.999023438 653.833007812 370.83203125 639.666015625 397.499023438 622.999023438 c 0
 425.499023438 606.33203125 449.33203125 587.33203125 468.999023438 565.999023438 c 0
 488.666015625 544.666015625 502.666015625 523.499023438 510.999023438 502.499023438 c 0
 519.33203125 481.499023438 523.499023438 460.33203125 523.499023438 438.999023438 c 0
 523.499023438 408.33203125 515.83203125 382.999023438 500.499023438 362.999023438 c 0
 493.166015625 353.666015625 483.499023438 345.166015625 471.499023438 337.499023438 c 0
 459.499023438 329.83203125 446.499023438 323.33203125 432.499023438 317.999023438 c 0
 419.166015625 312.666015625 403.829101562 307.833007812 386.49609375 303.5 c 0
 369.163085938 299.166992188 351.666992188 295.833984375 334 293.500976562 c 0
 316.333007812 291.16796875 296.5 289.000976562 274.5 287.000976562 c 0
 268.7109375 282.755859375 262.809570312 280.6328125 256.796875 280.6328125 c 0
 252.423828125 280.6328125 247.9921875 281.755859375 243.500976562 284.000976562 c 1
 251.301757812 273.201171875 259.372070312 267.801757812 267.711914062 267.801757812 c 0
 268.638671875 267.801757812 269.568359375 267.868164062 270.501953125 268.000976562 c 0
 331.168945312 234.000976562 385.16796875 194.333984375 432.500976562 149.000976562 c 0
 483.16796875 103.000976562 516.501953125 64.333984375 532.501953125 33.0009765625 c 0
 533.834960938 28.333984375 534.501953125 23.833984375 534.501953125 19.5009765625 c 0
 534.501953125 15.16796875 533.834960938 11.0009765625 532.501953125 7.0009765625 c 0
 529.168945312 -0.33203125 524.168945312 -6.33203125 517.501953125 -10.9990234375 c 0
 511.501953125 -15.666015625 505.501953125 -17.9990234375 499.501953125 -17.9990234375 c 0
 486.834960938 -17.9990234375 475.16796875 -11 464.500976562 3 c 0
EndSplineSet
EndChar

StartChar: S
Encoding: 83 83 52
Width: 620
GlyphClass: 2
Flags: HMW
HStem: -29.0049 67.0049 664.997 59.1678
VStem: 108.499 81 461.496 80.0039
LayerCount: 2
Fore
SplineSet
79.4970703125 102 m 0
 81.4970703125 110.666992188 86.830078125 117 95.4970703125 121 c 0
 102.830078125 124.333007812 107.997070312 126.333007812 110.997070312 127 c 0
 113.997070312 127.666992188 116.497070312 128 118.497070312 128 c 2
 124.497070312 128 l 2
 128.497070312 128 132.6640625 126 136.997070312 122 c 0
 141.330078125 118 146.163085938 112 151.49609375 104 c 0
 164.829101562 84 182.49609375 68 204.49609375 56 c 0
 225.163085938 44 248.49609375 38 274.49609375 38 c 0
 289.829101562 38 305.99609375 40.3330078125 322.99609375 45 c 0
 339.99609375 49.6669921875 356.49609375 56.6669921875 372.49609375 66 c 0
 388.49609375 75.3330078125 402.829101562 86.666015625 415.49609375 99.9990234375 c 0
 428.829101562 113.33203125 439.829101562 128.999023438 448.49609375 146.999023438 c 0
 457.163085938 164.999023438 461.49609375 183.999023438 461.49609375 203.999023438 c 0
 461.49609375 214.666015625 460.829101562 224.499023438 459.49609375 233.499023438 c 0
 458.163085938 242.499023438 455.330078125 252.166015625 450.997070312 262.499023438 c 0
 446.6640625 272.83203125 441.1640625 282.33203125 434.497070312 290.999023438 c 0
 427.830078125 299.666015625 418.830078125 308.333007812 407.497070312 317 c 0
 396.1640625 325.666992188 383.331054688 333 368.998046875 339 c 0
 354.665039062 345 336.998046875 350.666992188 315.998046875 356 c 0
 294.998046875 361.333007812 271.831054688 365.666015625 246.498046875 368.999023438 c 0
 225.831054688 371.666015625 206.831054688 377.666015625 189.498046875 386.999023438 c 0
 170.831054688 396.33203125 155.831054688 407.83203125 144.498046875 421.499023438 c 0
 133.165039062 435.166015625 124.33203125 449.666015625 117.999023438 464.999023438 c 0
 111.666015625 480.33203125 108.499023438 495.33203125 108.499023438 509.999023438 c 0
 108.499023438 531.999023438 112.166015625 553.33203125 119.499023438 573.999023438 c 0
 126.83203125 594.666015625 138.165039062 614.166015625 153.498046875 632.499023438 c 0
 168.831054688 650.83203125 187.1640625 666.665039062 208.497070312 679.998046875 c 0
 228.497070312 693.331054688 252.6640625 703.998046875 280.997070312 711.998046875 c 0
 309.330078125 719.998046875 339.830078125 723.998046875 372.497070312 723.998046875 c 0
 375.165039062 724.109375 378.018554688 724.165039062 381.057617188 724.165039062 c 0
 396.2421875 724.165039062 416.055664062 722.776367188 440.497070312 719.999023438 c 0
 471.1640625 716.666015625 491.831054688 712.999023438 502.498046875 708.999023438 c 0
 513.165039062 704.999023438 520.498046875 698.999023438 524.498046875 690.999023438 c 0
 528.498046875 684.33203125 530.498046875 677.665039062 530.498046875 670.998046875 c 0
 530.498046875 662.331054688 528.498046875 655.998046875 524.498046875 651.998046875 c 0
 521.831054688 648.665039062 518.498046875 646.83203125 514.498046875 646.499023438 c 0
 510.498046875 646.166015625 506.831054688 645.999023438 503.498046875 645.999023438 c 0
 494.165039062 645.999023438 485.165039062 647.666015625 476.498046875 650.999023438 c 0
 464.498046875 654.33203125 454.831054688 656.665039062 447.498046875 657.998046875 c 0
 440.165039062 659.331054688 428.83203125 660.6640625 413.499023438 661.997070312 c 0
 398.83203125 663.997070312 382.499023438 664.997070312 364.499023438 664.997070312 c 0
 335.83203125 664.997070312 308.499023438 660.330078125 282.499023438 650.997070312 c 0
 255.83203125 640.997070312 233.83203125 625.997070312 216.499023438 605.997070312 c 0
 198.499023438 585.997070312 189.499023438 562.997070312 189.499023438 536.997070312 c 0
 190.166015625 506.997070312 202.166015625 481.997070312 225.499023438 461.997070312 c 0
 247.499023438 441.997070312 278.166015625 430.997070312 317.499023438 428.997070312 c 0
 351.499023438 426.997070312 381.166015625 421.330078125 406.499023438 411.997070312 c 0
 433.166015625 402.6640625 454.833007812 391.331054688 471.5 377.998046875 c 0
 488.166992188 364.665039062 502 348.998046875 513 330.998046875 c 0
 524 312.998046875 531.5 295.331054688 535.5 277.998046875 c 0
 539.5 260.665039062 541.5 241.998046875 541.5 221.998046875 c 0
 541.5 191.331054688 536.5 162.6640625 526.5 135.997070312 c 0
 516.5 109.330078125 502.666992188 86.1630859375 485 66.49609375 c 0
 467.333007812 46.8291015625 446.5 29.662109375 422.5 14.9951171875 c 0
 401.166992188 0.328125 377.5 -10.671875 351.5 -18.0048828125 c 0
 325.5 -25.337890625 298.833007812 -29.0048828125 271.5 -29.0048828125 c 0
 229.5 -29.0048828125 191.5 -20.0048828125 157.5 -2.0048828125 c 0
 123.5 15.9951171875 100.166992188 37.662109375 87.5 62.9951171875 c 0
 81.5 75.662109375 78.5 86.3291015625 78.5 94.99609375 c 0
 78.5 97.6630859375 78.830078125 100 79.4970703125 102 c 0
EndSplineSet
EndChar

StartChar: T
Encoding: 84 84 53
Width: 620
GlyphClass: 2
Flags: HMW
HStem: 612 69<506 508 504 512.333> 640.499 54.499
VStem: 273.999 75 283.999 76.001
LayerCount: 2
Fore
SplineSet
116.999023438 694 m 0x60
 154.33203125 688 284 683.666992188 506 681 c 0
 518.666992188 681 527.666992188 678 533 672 c 0
 538.333007812 666 541.333007812 658.666992188 542 650 c 0
 542 639.333007812 538.666992188 630 532 622 c 0
 526.666992188 615.333007812 518.666992188 612 508 612 c 2
 504 612 l 2
 485.333007812 610.366210938 466.870117188 609.549804688 448.611328125 609.549804688 c 0
 414.703125 609.549804688 381.499023438 612.366210938 348.999023438 618 c 1xa0
 349.666015625 475.333007812 353.333007812 277.333007812 360 24 c 0
 359.333007812 12.6669921875 354.666015625 3.6669921875 345.999023438 -3 c 0
 337.33203125 -9.6669921875 327.999023438 -13 317.999023438 -13 c 1
 316.666015625 -19.6669921875 315.666015625 -19.6669921875 314.999023438 -13 c 1
 304.999023438 -13 296.999023438 -9.3330078125 290.999023438 -2 c 0
 286.33203125 3.3330078125 283.999023438 11 283.999023438 21 c 0x90
 283.999023438 23 284.166015625 26.6669921875 284.499023438 32 c 0
 284.83203125 37.3330078125 284.999023438 51.666015625 284.999023438 74.9990234375 c 0
 284.999023438 122.999023438 283.166015625 208.33203125 279.499023438 330.999023438 c 0
 275.83203125 453.666015625 273.999023438 540.999023438 273.999023438 592.999023438 c 2
 273.999023438 619.999023438 l 1
 185.33203125 624.666015625 134.33203125 627.999023438 120.999023438 629.999023438 c 0
 107.666015625 631.999023438 97.3330078125 635.499023438 90 640.499023438 c 0
 82.6669921875 645.499023438 79 651.999023438 79 659.999023438 c 1
 78.3330078125 653.999023438 78 654.666015625 78 661.999023438 c 0
 78 671.33203125 81.3330078125 679.665039062 88 686.998046875 c 0
 92.6669921875 692.331054688 99.333984375 694.998046875 108.000976562 694.998046875 c 0
 110.66796875 694.998046875 113.666015625 694.666992188 116.999023438 694 c 0x60
EndSplineSet
EndChar

StartChar: U
Encoding: 85 85 54
Width: 620
GlyphClass: 2
Flags: HMW
HStem: -28.999 71 669.52 20G
VStem: 73.5379 73.9219 472.461 74.001
LayerCount: 2
Fore
SplineSet
542.461914062 250 m 0
 541.794921875 220.666992188 537.961914062 193.334960938 530.961914062 168.001953125 c 0
 523.961914062 142.668945312 515.461914062 120.668945312 505.461914062 102.001953125 c 0
 495.461914062 83.3349609375 483.62890625 66.501953125 469.961914062 51.501953125 c 0
 456.294921875 36.501953125 441.794921875 24.001953125 426.461914062 14.001953125 c 0
 412.461914062 4.001953125 397.794921875 -4.1650390625 382.461914062 -10.498046875 c 0
 367.12890625 -16.8310546875 352.12890625 -21.498046875 337.461914062 -24.498046875 c 0
 322.794921875 -27.498046875 307.627929688 -28.998046875 291.9609375 -28.998046875 c 0
 276.293945312 -28.998046875 259.793945312 -26.498046875 242.4609375 -21.498046875 c 0
 225.127929688 -16.498046875 207.127929688 -7.6650390625 188.4609375 5.001953125 c 0
 168.4609375 17.6689453125 150.793945312 33.501953125 135.4609375 52.501953125 c 0
 120.127929688 71.501953125 107.127929688 96.001953125 96.4609375 126.001953125 c 0
 85.7939453125 156.001953125 79.7939453125 190.334960938 78.4609375 229.001953125 c 0
 75.1787109375 353.721679688 73.5380859375 453.825195312 73.5380859375 529.3125 c 0
 73.5380859375 576.490234375 74.1787109375 614.053710938 75.4609375 642.001953125 c 0
 75.4609375 657.334960938 79.6279296875 669.16796875 87.9609375 677.500976562 c 0
 95.9736328125 685.513671875 105.373046875 689.520507812 116.16015625 689.520507812 c 0
 116.590820312 689.520507812 117.024414062 689.513671875 117.459960938 689.500976562 c 0
 128.79296875 689.16796875 136.79296875 685.334960938 141.459960938 678.001953125 c 0
 145.459960938 671.334960938 147.459960938 661.334960938 147.459960938 648.001953125 c 0
 148.126953125 422.001953125 150.126953125 285.334960938 153.459960938 238.001953125 c 0
 154.79296875 215.334960938 157.125976562 196.334960938 160.458984375 181.001953125 c 0
 163.791992188 165.668945312 169.458984375 149.168945312 177.458984375 131.501953125 c 0
 185.458984375 113.834960938 194.791992188 98.66796875 205.458984375 86.0009765625 c 0
 216.125976562 73.333984375 229.625976562 62.833984375 245.958984375 54.5009765625 c 0
 262.291992188 46.16796875 280.791992188 42.0009765625 301.458984375 42.0009765625 c 0
 348.125976562 42.66796875 385.79296875 59.66796875 414.459960938 93.0009765625 c 0
 445.126953125 126.333984375 462.793945312 176.666992188 467.4609375 244 c 0
 469.4609375 272.666992188 470.793945312 305.166992188 471.4609375 341.5 c 0
 472.127929688 377.833007812 472.4609375 405 472.4609375 423 c 0
 472.4609375 441 472.293945312 469.833007812 471.9609375 509.5 c 0
 471.627929688 549.166992188 471.4609375 590.666992188 471.4609375 634 c 0
 471.4609375 661.333007812 475.127929688 678 482.4609375 684 c 0
 485.793945312 686.666992188 489.293945312 688.5 492.9609375 689.5 c 0
 496.627929688 690.5 501.4609375 691 507.4609375 691 c 0
 516.793945312 691 524.793945312 687.166992188 531.4609375 679.5 c 0
 538.127929688 671.833007812 541.794921875 660.333007812 542.461914062 645 c 0
 545.12890625 593 546.461914062 534 546.461914062 468 c 0
 546.461914062 402 545.12890625 329.333007812 542.461914062 250 c 0
EndSplineSet
EndChar

